<?xml version="1.0" encoding="UTF-8" standalone="no"?>
<!-- Created with Inkscape (http://www.inkscape.org/) -->

<svg
   width="5.5in"
   height="6in"
   viewBox="0 0 139.7 152.4"
   version="1.1"
   id="svg5"
   xmlns="http://www.w3.org/2000/svg"
   xmlns:svg="http://www.w3.org/2000/svg">
  <defs
     id="defs2">
    <marker
       style="overflow:visible;"
       id="Arrow2Mend"
       refX="0.0"
       refY="0.0"
       orient="auto">
      <path
         transform="scale(0.6) rotate(180) translate(0,0)"
         d="M 8.7185878,4.0337352 L -2.2072895,0.016013256 L 8.7185884,-4.0017078 C 6.9730900,-1.6296469 6.9831476,1.6157441 8.7185878,4.0337352 z "
         style="stroke:context-stroke;fill-rule:evenodd;fill:context-stroke;stroke-width:0.62500000;stroke-linejoin:round;"
         id="path4341" />
    </marker>
    <marker
       style="overflow:visible;"
       id="marker4592"
       refX="0.0"
       refY="0.0"
       orient="auto">
      <path
         transform="scale(0.4) rotate(180) translate(10,0)"
         style="fill-rule:evenodd;fill:context-stroke;stroke:context-stroke;stroke-width:1.0pt;"
         d="M 0.0,0.0 L 5.0,-5.0 L -12.5,0.0 L 5.0,5.0 L 0.0,0.0 z "
         id="path4590" />
    </marker>
    <marker
       style="overflow:visible;"
       id="Arrow1Mend"
       refX="0.0"
       refY="0.0"
       orient="auto">
      <path
         transform="scale(0.4) rotate(180) translate(10,0)"
         style="fill-rule:evenodd;fill:context-stroke;stroke:context-stroke;stroke-width:1.0pt;"
         d="M 0.0,0.0 L 5.0,-5.0 L -12.5,0.0 L 5.0,5.0 L 0.0,0.0 z "
         id="path4323" />
    </marker>
    <marker
       style="overflow:visible"
       id="Arrow2Mstart"
       refX="0.0"
       refY="0.0"
       orient="auto">
      <path
         transform="scale(0.6) translate(0,0)"
         d="M 8.7185878,4.0337352 L -2.2072895,0.016013256 L 8.7185884,-4.0017078 C 6.9730900,-1.6296469 6.9831476,1.6157441 8.7185878,4.0337352 z "
         style="stroke:context-stroke;fill-rule:evenodd;fill:context-stroke;stroke-width:0.62500000;stroke-linejoin:round"
         id="path4338" />
    </marker>
    <marker
       style="overflow:visible"
       id="Arrow1Lstart"
       refX="0.0"
       refY="0.0"
       orient="auto">
      <path
         transform="scale(0.8) translate(12.5,0)"
         style="fill-rule:evenodd;fill:context-stroke;stroke:context-stroke;stroke-width:1.0pt"
         d="M 0.0,0.0 L 5.0,-5.0 L -12.5,0.0 L 5.0,5.0 L 0.0,0.0 z "
         id="path1369" />
    </marker>
    <marker
       style="overflow:visible;"
       id="Arrow1Lend"
       refX="0.0"
       refY="0.0"
       orient="auto">
      <path
         transform="scale(0.8) rotate(180) translate(12.5,0)"
         style="fill-rule:evenodd;fill:context-stroke;stroke:context-stroke;stroke-width:1.0pt;"
         d="M 0.0,0.0 L 5.0,-5.0 L -12.5,0.0 L 5.0,5.0 L 0.0,0.0 z "
         id="path1372" />
    </marker>
  </defs>
  <g
     id="layer1">
    <g
       id="path508">
      <path
         style="color:#000000;fill:#000000;-inkscape-stroke:none"
         d="m 93.941406,95.765625 -0.527344,0.404297 c 8.223368,10.692678 8.199338,25.582048 -0.05859,36.248048 l 0.52539,0.4082 c 8.441001,-10.90246 8.466221,-26.13082 0.06055,-37.060545 z"
         id="path6570" />
      <g
         id="g6552">
        <g
           id="path6562">
          <path
             style="color:#000000;fill:#000000;fill-rule:evenodd;stroke-width:0.249375;stroke-linejoin:round;-inkscape-stroke:none"
             d="m 97.021038,130.85692 -3.936364,2.46566 1.401236,-4.42843 c 0.322007,1.1301 1.348363,1.91966 2.535128,1.96277 z"
             id="path6566" />
          <path
             style="color:#000000;fill:#000000;fill-rule:evenodd;stroke-linejoin:round;-inkscape-stroke:none"
             d="m 94.488281,128.76953 a 0.12469997,0.12469997 0 0 0 -0.121094,0.0879 l -1.402343,4.42774 a 0.12469997,0.12469997 0 0 0 0.185547,0.14257 l 3.9375,-2.46484 a 0.12469997,0.12469997 0 0 0 -0.0625,-0.23047 c -1.134176,-0.0412 -2.112856,-0.79538 -2.419922,-1.87305 a 0.12469997,0.12469997 0 0 0 -0.117188,-0.0898 z m 0.04102,0.40039 c 0.380589,0.93554 1.20548,1.57319 2.214844,1.71485 l -3.439454,2.15234 z"
             id="path6568" />
        </g>
        <g
           id="path6554">
          <path
             style="color:#000000;fill:#000000;fill-rule:evenodd;stroke-width:0.249375;stroke-linejoin:round;-inkscape-stroke:none"
             d="m 94.523027,99.706404 -1.386896,-4.432938 3.928364,2.478383 c -1.174819,0.02491 -2.198832,0.81751 -2.541468,1.954555 z"
             id="path6558" />
          <path
             style="color:#000000;fill:#000000;fill-rule:evenodd;stroke-linejoin:round;-inkscape-stroke:none"
             d="m 93.203125,95.167969 a 0.12469997,0.12469997 0 0 0 -0.185547,0.142578 l 1.386719,4.433594 a 0.12469997,0.12469997 0 0 0 0.238281,-0.002 c 0.327453,-1.086659 1.303518,-1.84148 2.423828,-1.865234 a 0.12469997,0.12469997 0 0 0 0.06445,-0.230469 z m 0.154297,0.392578 3.429687,2.164062 c -1.00135,0.130807 -1.825618,0.76684 -2.21875,1.707032 z"
             id="path6560" />
        </g>
      </g>
    </g>
    <g
       aria-label="ON"
       id="text3651-3"
       style="font-size:10.5833px;line-height:1.25;stroke-width:0.264583">
      <path
         d="m 81.285435,134.59493 q 1.178219,0 2.020543,0.48059 0.84749,0.47543 1.281571,1.35909 0.434081,0.8785 0.434081,2.06705 0,0.8785 -0.237711,1.5968 -0.237711,0.7183 -0.713133,1.24539 -0.475421,0.5271 -1.167883,0.80615 -0.692462,0.27906 -1.586462,0.27906 -0.888832,0 -1.591629,-0.28422 -0.702797,-0.28939 -1.173051,-0.81132 -0.470254,-0.52193 -0.713133,-1.25573 -0.23771,-0.73381 -0.23771,-1.58647 0,-0.87332 0.248046,-1.60196 0.253213,-0.72863 0.728635,-1.24023 0.475422,-0.51159 1.157548,-0.78031 0.682127,-0.27389 1.550288,-0.27389 z m 2.180739,3.89639 q 0,-0.83198 -0.268717,-1.44176 -0.268716,-0.60978 -0.769976,-0.91984 -0.496092,-0.31523 -1.142046,-0.31523 -0.459918,0 -0.852658,0.1757 -0.387572,0.17054 -0.671791,0.50126 -0.279052,0.33073 -0.444416,0.84749 -0.160197,0.5116 -0.160197,1.15238 0,0.64596 0.160197,1.16789 0.165364,0.52193 0.459918,0.86816 0.299723,0.34106 0.682127,0.51159 0.387572,0.17054 0.847491,0.17054 0.589109,0 1.080034,-0.29456 0.496092,-0.29455 0.785479,-0.9095 0.294555,-0.61495 0.294555,-1.51412 z"
         style="font-family:'Arial Rounded MT Bold';-inkscape-font-specification:'Arial Rounded MT Bold, '"
         id="path6527" />
      <path
         d="m 88.334078,135.51477 2.950715,4.46483 v -4.50617 q 0,-0.43925 0.186035,-0.65629 0.191202,-0.22221 0.511595,-0.22221 0.330728,0 0.52193,0.22221 0.191202,0.21704 0.191202,0.65629 v 5.95827 q 0,0.99736 -0.82682,0.99736 -0.206705,0 -0.372069,-0.062 -0.165364,-0.0568 -0.310058,-0.18603 -0.144694,-0.12919 -0.268717,-0.29972 -0.124023,-0.1757 -0.248046,-0.35657 l -2.878368,-4.41315 v 4.43899 q 0,0.43408 -0.201537,0.65629 -0.201538,0.22221 -0.516763,0.22221 -0.32556,0 -0.52193,-0.22221 -0.19637,-0.22738 -0.19637,-0.65629 v -5.84459 q 0,-0.37207 0.08268,-0.58394 0.09819,-0.23254 0.325561,-0.37723 0.227375,-0.14987 0.490924,-0.14987 0.206705,0 0.351399,0.0672 0.149861,0.0672 0.258381,0.18087 0.113688,0.11369 0.227376,0.29456 0.118855,0.18086 0.242878,0.37723 z"
         style="font-family:'Arial Rounded MT Bold';-inkscape-font-specification:'Arial Rounded MT Bold, '"
         id="path6529" />
    </g>
    <g
       aria-label="OFF"
       id="text3651"
       style="font-size:10.5833px;line-height:1.25;stroke-width:0.264583">
      <path
         d="m 76.004124,86.597574 q 1.178219,0 2.020542,0.480589 0.847491,0.475422 1.281572,1.359086 0.434081,0.878497 0.434081,2.067051 0,0.878496 -0.237711,1.596796 -0.237711,0.718301 -0.713133,1.245399 -0.475421,0.527097 -1.167883,0.806149 -0.692462,0.279052 -1.586462,0.279052 -0.888832,0 -1.591629,-0.284219 -0.702797,-0.289387 -1.173051,-0.811318 -0.470254,-0.52193 -0.713133,-1.255733 -0.23771,-0.733803 -0.23771,-1.586461 0,-0.873329 0.248046,-1.601965 0.253213,-0.728635 0.728635,-1.24023 0.475422,-0.511595 1.157548,-0.780312 0.682127,-0.273884 1.550288,-0.273884 z m 2.180739,3.896391 q 0,-0.831988 -0.268717,-1.441768 -0.268716,-0.60978 -0.769976,-0.919838 -0.496092,-0.315225 -1.142046,-0.315225 -0.459918,0 -0.852658,0.175699 -0.387572,0.170532 -0.671791,0.50126 -0.279052,0.330728 -0.444416,0.847491 -0.160197,0.511595 -0.160197,1.152381 0,0.645953 0.160197,1.167883 0.165364,0.521931 0.459918,0.868162 0.299723,0.341063 0.682127,0.511595 0.387572,0.170531 0.847491,0.170531 0.589109,0 1.080034,-0.294554 0.496092,-0.294555 0.785479,-0.909503 0.294555,-0.614947 0.294555,-1.514114 z"
         style="font-family:'Arial Rounded MT Bold';-inkscape-font-specification:'Arial Rounded MT Bold, '"
         id="path6520" />
      <path
         d="m 85.579737,87.910151 h -3.023062 v 1.93786 h 2.526969 q 0.351399,0 0.521931,0.160197 0.175699,0.155028 0.175699,0.418577 0,0.263549 -0.175699,0.418578 -0.1757,0.155029 -0.521931,0.155029 h -2.526969 v 2.495964 q 0,0.475421 -0.21704,0.707965 -0.211873,0.227375 -0.547769,0.227375 -0.341063,0 -0.558104,-0.232543 Q 81.02189,93.96661 81.02189,93.496356 v -5.829083 q 0,-0.330728 0.09819,-0.537433 0.09819,-0.211873 0.30489,-0.30489 0.211872,-0.09819 0.537433,-0.09819 h 3.617339 q 0.366901,0 0.5426,0.165364 0.180867,0.160196 0.180867,0.423745 0,0.268717 -0.180867,0.434081 -0.175699,0.160196 -0.5426,0.160196 z"
         style="font-family:'Arial Rounded MT Bold';-inkscape-font-specification:'Arial Rounded MT Bold, '"
         id="path6522" />
      <path
         d="m 91.972091,87.910151 h -3.023062 v 1.93786 h 2.526969 q 0.351399,0 0.521931,0.160197 0.175699,0.155028 0.175699,0.418577 0,0.263549 -0.175699,0.418578 -0.1757,0.155029 -0.521931,0.155029 h -2.526969 v 2.495964 q 0,0.475421 -0.21704,0.707965 -0.211873,0.227375 -0.547769,0.227375 -0.341063,0 -0.558104,-0.232543 -0.211872,-0.232543 -0.211872,-0.702797 v -5.829083 q 0,-0.330728 0.09819,-0.537433 0.09819,-0.211873 0.30489,-0.30489 0.211872,-0.09819 0.537433,-0.09819 h 3.617339 q 0.366901,0 0.5426,0.165364 0.180867,0.160196 0.180867,0.423745 0,0.268717 -0.180867,0.434081 -0.175699,0.160196 -0.5426,0.160196 z"
         style="font-family:'Arial Rounded MT Bold';-inkscape-font-specification:'Arial Rounded MT Bold, '"
         id="path6524" />
    </g>
    <path
       style="fill:#000000;stroke-width:0.146766"
       d="m 14.49687,41.764053 c 0,-0.04782 1.71629,-5.314874 3.813977,-11.704555 2.097687,-6.389681 3.953366,-12.096425 4.123732,-12.681653 l 0.309756,-1.06405 h 48.638502 c 26.751173,0 48.638503,0.04155 48.638503,0.09234 0,0.121368 -7.56376,24.516864 -7.76398,25.041265 l -0.1541,0.403605 H 63.300066 c -26.841757,0 -48.803196,-0.03913 -48.803196,-0.08695 z m 24.617836,-2.17752 c 0.06549,-0.05804 6.643238,-21.062483 6.643238,-21.213552 0,-0.102444 -3.518445,-0.151233 -10.906199,-0.151233 H 23.945547 l -1.445223,4.659807 c -0.794873,2.562894 -2.311792,7.402944 -3.370931,10.755668 l -1.925709,6.09586 10.938213,-0.05794 c 6.016017,-0.03187 10.953781,-0.07174 10.972809,-0.08861 z M 24.476932,36.185998 c 0,-0.226769 4.468863,-14.238333 4.594404,-14.405185 0.205119,-0.272612 9.348328,-0.266119 9.348328,0.0066 0,0.104552 -0.187584,0.748486 -0.416852,1.430965 l -0.416853,1.240869 -3.068831,0.04065 -3.06883,0.04065 -0.349395,1.133472 c -0.192166,0.623409 -0.381492,1.249049 -0.420722,1.390311 -0.06603,0.237761 0.125544,0.25684 2.578908,0.25684 1.45763,0 2.683174,0.0533 2.723432,0.118432 0.07123,0.115257 -0.53611,2.378532 -0.716668,2.670682 -0.05481,0.08868 -1.173441,0.146198 -2.843283,0.146198 h -2.752928 l -0.876945,2.972003 -0.876945,2.972003 -1.71841,0.04135 c -0.945126,0.02274 -1.71841,-0.0024 -1.71841,-0.05588 z m 38.952756,2.252709 c 0.204142,-0.665949 1.717004,-5.487617 3.361916,-10.714816 l 2.99075,-9.504 -10.943497,0.03762 -10.943498,0.03762 -3.267764,10.567123 c -1.797269,5.811917 -3.268856,10.616655 -3.270191,10.677196 -0.0013,0.06054 4.88087,0.110074 10.849346,0.110074 H 63.058522 Z M 51.297533,36.168539 c -0.03335,-0.06312 0.971051,-3.350954 2.232004,-7.306286 l 2.292641,-7.191514 1.65846,-0.04162 1.658462,-0.04162 -0.09256,0.408532 c -0.05091,0.224692 -1.063821,3.512623 -2.250919,7.306513 l -2.158357,6.897983 -1.639548,0.04139 c -0.901751,0.02276 -1.666833,-0.01026 -1.700182,-0.07338 z M 90.36286,29.043683 c 1.80972,-5.830983 3.3164,-10.651742 3.34816,-10.712798 0.0318,-0.06106 -4.87707,-0.09408 -10.908516,-0.07338 l -10.966274,0.03763 -3.276269,10.567123 c -1.801949,5.811917 -3.277604,10.616655 -3.279231,10.677196 -0.0016,0.06054 4.900845,0.109163 10.894386,0.108047 l 10.897344,-0.002 z m -19.983465,7.146138 c -0.0511,-0.0511 2.082687,-3.355309 4.741751,-7.342687 l 4.834663,-7.249778 h 1.956845 1.956845 l 0.0969,4.953339 c 0.05329,2.724336 0.097,6.026562 0.09713,7.338279 l 2.35e-4,2.384941 H 82.449342 80.83492 v -1.467656 -1.467656 h -2.683722 -2.683722 l -0.820061,1.430964 -0.820063,1.430965 -1.677525,0.0411 c -0.922641,0.0226 -1.719336,-7.34e-4 -1.770435,-0.05181 z m 10.308763,-8.237249 v -2.597484 l -1.510209,2.414027 c -0.830615,1.327715 -1.561002,2.496584 -1.623083,2.597485 -0.08768,0.142511 0.249386,0.183457 1.510208,0.183457 h 1.623084 z m 30.447732,10.486135 c 0.20362,-0.665949 1.71682,-5.470687 3.36266,-10.677196 l 2.99243,-9.466381 -10.7931,-0.03764 c -5.93622,-0.0207 -10.82337,-0.0074 -10.86035,0.02959 -0.0587,0.05865 -6.34922,20.163342 -6.58078,21.032221 l -0.088,0.330222 h 10.79847 10.79846 z M 99.2766,36.163701 c -0.0407,-0.06579 0.74645,-2.69317 1.74913,-5.838631 1.00268,-3.145461 1.82328,-5.735531 1.82354,-5.755711 2.7e-4,-0.02018 -0.89111,-0.03669 -1.98084,-0.03669 -1.21387,0 -1.98134,-0.05646 -1.98134,-0.145753 0,-0.08016 0.23809,-0.740609 0.52908,-1.467656 l 0.52909,-1.321903 h 5.46384 c 3.00511,0 5.49755,0.03371 5.53875,0.0749 0.0412,0.0412 -0.0949,0.701642 -0.3025,1.467656 l -0.37741,1.392753 h -2.01624 -2.01623 l -0.5399,1.724495 c -0.29695,0.948473 -1.11429,3.573742 -1.81631,5.833933 l -1.27639,4.109436 -1.62618,0.04139 c -0.89439,0.02276 -1.65944,-0.01243 -1.70009,-0.07822 z"
       id="path4714" />
  </g>
</svg>
