%TF.GenerationSoftware,KiCad,Pcbnew,7.0.5-7.0.5~ubuntu22.04.1*%
%TF.CreationDate,2023-08-20T16:34:42-07:00*%
%TF.ProjectId,terminal_strip_adaptor,7465726d-696e-4616-9c5f-73747269705f,rev?*%
%TF.SameCoordinates,Original*%
%TF.FileFunction,Copper,L1,Top*%
%TF.FilePolarity,Positive*%
%FSLAX46Y46*%
G04 Gerber Fmt 4.6, Leading zero omitted, Abs format (unit mm)*
G04 Created by KiCad (PCBNEW 7.0.5-7.0.5~ubuntu22.04.1) date 2023-08-20 16:34:42*
%MOMM*%
%LPD*%
G01*
G04 APERTURE LIST*
%TA.AperFunction,ComponentPad*%
%ADD10R,2.100000X2.100000*%
%TD*%
%TA.AperFunction,ComponentPad*%
%ADD11C,2.100000*%
%TD*%
%TA.AperFunction,ComponentPad*%
%ADD12C,1.600000*%
%TD*%
%TA.AperFunction,ComponentPad*%
%ADD13R,1.700000X1.700000*%
%TD*%
%TA.AperFunction,ComponentPad*%
%ADD14O,1.700000X1.700000*%
%TD*%
%TA.AperFunction,ViaPad*%
%ADD15C,1.000000*%
%TD*%
%TA.AperFunction,Conductor*%
%ADD16C,0.350000*%
%TD*%
%TA.AperFunction,Conductor*%
%ADD17C,1.000000*%
%TD*%
%TA.AperFunction,Conductor*%
%ADD18C,0.750000*%
%TD*%
G04 APERTURE END LIST*
D10*
%TO.P,J10,1,Pin_1*%
%TO.N,/IGN_3*%
X177500000Y-73439600D03*
D11*
%TO.P,J10,2,Pin_2*%
%TO.N,/IGN_2*%
X177500000Y-70899600D03*
%TO.P,J10,3,Pin_3*%
%TO.N,/BOOST*%
X177500000Y-68359600D03*
%TO.P,J10,4,Pin_4*%
%TO.N,/IDLE_2*%
X177500000Y-65819600D03*
%TD*%
D10*
%TO.P,J8,1,Pin_1*%
%TO.N,/CRANK_VR1+*%
X177500000Y-96790800D03*
D11*
%TO.P,J8,2,Pin_2*%
%TO.N,/VR2-*%
X177500000Y-94250800D03*
%TO.P,J8,3,Pin_3*%
%TO.N,/VR1-*%
X177500000Y-91710800D03*
%TO.P,J8,4,Pin_4*%
%TO.N,/5V*%
X177500000Y-89170800D03*
%TD*%
D10*
%TO.P,J11,1,Pin_1*%
%TO.N,/PWM_IDLE*%
X177500000Y-61764000D03*
D11*
%TO.P,J11,2,Pin_2*%
%TO.N,/VVT*%
X177500000Y-59224000D03*
%TO.P,J11,3,Pin_3*%
%TO.N,/INJ2_P2*%
X177500000Y-56684000D03*
%TO.P,J11,4,Pin_4*%
%TO.N,/INJ1_P2*%
X177500000Y-54144000D03*
%TD*%
D10*
%TO.P,J13,1,Pin_1*%
%TO.N,/5V*%
X177500000Y-120142000D03*
D11*
%TO.P,J13,2,Pin_2*%
X177500000Y-117602000D03*
%TO.P,J13,3,Pin_3*%
X177500000Y-115062000D03*
%TO.P,J13,4,Pin_4*%
X177500000Y-112522000D03*
%TD*%
D10*
%TO.P,J9,1,Pin_1*%
%TO.N,/IDLE_STEP_2B*%
X177500000Y-85115200D03*
D11*
%TO.P,J9,2,Pin_2*%
%TO.N,/IDLE_STEP_2A*%
X177500000Y-82575200D03*
%TO.P,J9,3,Pin_3*%
%TO.N,/IDLE_STEP_1A*%
X177500000Y-80035200D03*
%TO.P,J9,4,Pin_4*%
%TO.N,/IDLE_STEP_1B*%
X177500000Y-77495200D03*
%TD*%
D10*
%TO.P,J6,1,Pin_1*%
%TO.N,/PROTO_4*%
X169118000Y-100838400D03*
D11*
%TO.P,J6,2,Pin_2*%
%TO.N,/PROTO_5*%
X169118000Y-103378400D03*
%TO.P,J6,3,Pin_3*%
%TO.N,/CLT*%
X169118000Y-105918400D03*
%TO.P,J6,4,Pin_4*%
%TO.N,/IAT*%
X169118000Y-108458400D03*
%TD*%
D10*
%TO.P,J12,1,Pin_1*%
%TO.N,/GND*%
X169118000Y-120142000D03*
D11*
%TO.P,J12,2,Pin_2*%
X169118000Y-117602000D03*
%TO.P,J12,3,Pin_3*%
X169118000Y-115062000D03*
%TO.P,J12,4,Pin_4*%
X169118000Y-112522000D03*
%TD*%
D12*
%TO.P,J14,1,Pin_1*%
%TO.N,/5V*%
X186944000Y-111633000D03*
%TO.P,J14,2,Pin_2*%
%TO.N,/GND*%
X186944000Y-114173000D03*
%TO.P,J14,3,Pin_3*%
%TO.N,Net-(J14-Pin_3)*%
X186944000Y-116713000D03*
%TO.P,J14,4,Pin_4*%
X186944000Y-119253000D03*
%TO.P,J14,5,Pin_5*%
X186944000Y-121793000D03*
%TO.P,J14,6,Pin_6*%
%TO.N,/5V*%
X189484000Y-111633000D03*
%TO.P,J14,7,Pin_7*%
%TO.N,/GND*%
X189484000Y-114173000D03*
%TO.P,J14,8,Pin_8*%
%TO.N,Net-(J14-Pin_10)*%
X189484000Y-116713000D03*
%TO.P,J14,9,Pin_9*%
X189484000Y-119253000D03*
%TO.P,J14,10,Pin_10*%
X189484000Y-121793000D03*
%TO.P,J14,11,Pin_11*%
%TO.N,/5V*%
X192024000Y-111633000D03*
%TO.P,J14,12,Pin_12*%
%TO.N,/GND*%
X192024000Y-114173000D03*
%TO.P,J14,13,Pin_13*%
%TO.N,Net-(J14-Pin_13)*%
X192024000Y-116713000D03*
%TO.P,J14,14,Pin_14*%
X192024000Y-119253000D03*
%TO.P,J14,15,Pin_15*%
X192024000Y-121793000D03*
%TO.P,J14,16,Pin_16*%
%TO.N,/5V*%
X194564000Y-111633000D03*
%TO.P,J14,17,Pin_17*%
%TO.N,/GND*%
X194564000Y-114173000D03*
%TO.P,J14,18,Pin_18*%
%TO.N,Net-(J14-Pin_18)*%
X194564000Y-116713000D03*
%TO.P,J14,19,Pin_19*%
X194564000Y-119253000D03*
%TO.P,J14,20,Pin_20*%
X194564000Y-121793000D03*
%TO.P,J14,21,Pin_21*%
%TO.N,/5V*%
X197104000Y-111633000D03*
%TO.P,J14,22,Pin_22*%
%TO.N,/GND*%
X197104000Y-114173000D03*
%TO.P,J14,23,Pin_23*%
%TO.N,Net-(J14-Pin_23)*%
X197104000Y-116713000D03*
%TO.P,J14,24,Pin_24*%
X197104000Y-119253000D03*
%TO.P,J14,25,Pin_25*%
X197104000Y-121793000D03*
%TD*%
D10*
%TO.P,J5,1,Pin_1*%
%TO.N,/5V*%
X169118000Y-89164800D03*
D11*
%TO.P,J5,2,Pin_2*%
%TO.N,/PROTO_1*%
X169118000Y-91704800D03*
%TO.P,J5,3,Pin_3*%
%TO.N,/PROTO_2*%
X169118000Y-94244800D03*
%TO.P,J5,4,Pin_4*%
%TO.N,/PROTO_3*%
X169118000Y-96784800D03*
%TD*%
D10*
%TO.P,J4,1,Pin_1*%
%TO.N,/GND*%
X169118000Y-77491200D03*
D11*
%TO.P,J4,2,Pin_2*%
X169118000Y-80031200D03*
%TO.P,J4,3,Pin_3*%
%TO.N,/MAP*%
X169118000Y-82571200D03*
%TO.P,J4,4,Pin_4*%
%TO.N,/GND*%
X169118000Y-85111200D03*
%TD*%
D10*
%TO.P,J7,1,Pin_1*%
%TO.N,/O2*%
X177500000Y-108466400D03*
D11*
%TO.P,J7,2,Pin_2*%
%TO.N,/TPS*%
X177500000Y-105926400D03*
%TO.P,J7,3,Pin_3*%
%TO.N,/GND*%
X177500000Y-103386400D03*
%TO.P,J7,4,Pin_4*%
%TO.N,/CAM_VR2+*%
X177500000Y-100846400D03*
%TD*%
D10*
%TO.P,J3,1,Pin_1*%
%TO.N,/INJ4_P1*%
X169118000Y-65817600D03*
D11*
%TO.P,J3,2,Pin_2*%
%TO.N,/INJ4_P2*%
X169118000Y-68357600D03*
%TO.P,J3,3,Pin_3*%
%TO.N,/IGN_1*%
X169118000Y-70897600D03*
%TO.P,J3,4,Pin_4*%
%TO.N,/IGN_4*%
X169118000Y-73437600D03*
%TD*%
D10*
%TO.P,J2,1,Pin_1*%
%TO.N,/INJ1_P1*%
X169118000Y-54144000D03*
D11*
%TO.P,J2,2,Pin_2*%
%TO.N,/INJ2_P1*%
X169118000Y-56684000D03*
%TO.P,J2,3,Pin_3*%
%TO.N,/INJ3_P1*%
X169118000Y-59224000D03*
%TO.P,J2,4,Pin_4*%
%TO.N,/INJ3_P2*%
X169118000Y-61764000D03*
%TD*%
D13*
%TO.P,J1,1,Pin_1*%
%TO.N,/INJ1_P1*%
X192532000Y-56896000D03*
D14*
%TO.P,J1,2,Pin_2*%
%TO.N,/INJ2_P1*%
X192532000Y-59436000D03*
%TO.P,J1,3,Pin_3*%
%TO.N,/INJ3_P1*%
X192532000Y-61976000D03*
%TO.P,J1,4,Pin_4*%
%TO.N,/INJ3_P2*%
X192532000Y-64516000D03*
%TO.P,J1,5,Pin_5*%
%TO.N,/INJ4_P1*%
X192532000Y-67056000D03*
%TO.P,J1,6,Pin_6*%
%TO.N,/INJ4_P2*%
X192532000Y-69596000D03*
%TO.P,J1,7,Pin_7*%
%TO.N,/IGN_1*%
X192532000Y-72136000D03*
%TO.P,J1,8,Pin_8*%
%TO.N,/IGN_4*%
X192532000Y-74676000D03*
%TO.P,J1,9,Pin_9*%
%TO.N,/GND*%
X192532000Y-77216000D03*
%TO.P,J1,10,Pin_10*%
X192532000Y-79756000D03*
%TO.P,J1,11,Pin_11*%
%TO.N,/MAP*%
X192532000Y-82296000D03*
%TO.P,J1,12,Pin_12*%
%TO.N,/GND*%
X192532000Y-84836000D03*
%TO.P,J1,13,Pin_13*%
%TO.N,/5V*%
X192532000Y-87376000D03*
%TO.P,J1,14,Pin_14*%
%TO.N,/PROTO_1*%
X192532000Y-89916000D03*
%TO.P,J1,15,Pin_15*%
%TO.N,/PROTO_2*%
X192532000Y-92456000D03*
%TO.P,J1,16,Pin_16*%
%TO.N,/PROTO_3*%
X192532000Y-94996000D03*
%TO.P,J1,17,Pin_17*%
%TO.N,/PROTO_4*%
X192532000Y-97536000D03*
%TO.P,J1,18,Pin_18*%
%TO.N,/PROTO_5*%
X192532000Y-100076000D03*
%TO.P,J1,19,Pin_19*%
%TO.N,/CLT*%
X192532000Y-102616000D03*
%TO.P,J1,20,Pin_20*%
%TO.N,/IAT*%
X192532000Y-105156000D03*
%TO.P,J1,21,Pin_21*%
%TO.N,/O2*%
X195072000Y-105156000D03*
%TO.P,J1,22,Pin_22*%
%TO.N,/TPS*%
X195072000Y-102616000D03*
%TO.P,J1,23,Pin_23*%
%TO.N,/GND*%
X195072000Y-100076000D03*
%TO.P,J1,24,Pin_24*%
%TO.N,/CAM_VR2+*%
X195072000Y-97536000D03*
%TO.P,J1,25,Pin_25*%
%TO.N,/CRANK_VR1+*%
X195072000Y-94996000D03*
%TO.P,J1,26,Pin_26*%
%TO.N,/VR2-*%
X195072000Y-92456000D03*
%TO.P,J1,27,Pin_27*%
%TO.N,/VR1-*%
X195072000Y-89916000D03*
%TO.P,J1,28,Pin_28*%
%TO.N,/5V*%
X195072000Y-87376000D03*
%TO.P,J1,29,Pin_29*%
%TO.N,/IDLE_STEP_2B*%
X195072000Y-84836000D03*
%TO.P,J1,30,Pin_30*%
%TO.N,/IDLE_STEP_2A*%
X195072000Y-82296000D03*
%TO.P,J1,31,Pin_31*%
%TO.N,/IDLE_STEP_1A*%
X195072000Y-79756000D03*
%TO.P,J1,32,Pin_32*%
%TO.N,/IDLE_STEP_1B*%
X195072000Y-77216000D03*
%TO.P,J1,33,Pin_33*%
%TO.N,/IGN_3*%
X195072000Y-74676000D03*
%TO.P,J1,34,Pin_34*%
%TO.N,/IGN_2*%
X195072000Y-72136000D03*
%TO.P,J1,35,Pin_35*%
%TO.N,/BOOST*%
X195072000Y-69596000D03*
%TO.P,J1,36,Pin_36*%
%TO.N,/IDLE_2*%
X195072000Y-67056000D03*
%TO.P,J1,37,Pin_37*%
%TO.N,/PWM_IDLE*%
X195072000Y-64516000D03*
%TO.P,J1,38,Pin_38*%
%TO.N,/VVT*%
X195072000Y-61976000D03*
%TO.P,J1,39,Pin_39*%
%TO.N,/INJ2_P2*%
X195072000Y-59436000D03*
%TO.P,J1,40,Pin_40*%
%TO.N,/INJ1_P2*%
X195072000Y-56896000D03*
%TD*%
D15*
%TO.N,/INJ1_P1*%
X185790000Y-48514000D03*
%TO.N,/INJ3_P1*%
X182880000Y-50292000D03*
%TO.N,/INJ4_P2*%
X186944000Y-64262000D03*
%TO.N,/IGN_1*%
X182880000Y-72136000D03*
%TO.N,/GND*%
X188722000Y-82804000D03*
%TO.N,/MAP*%
X188468000Y-86106000D03*
%TO.N,/PROTO_1*%
X186182000Y-87630000D03*
%TO.N,/CLT*%
X179832000Y-113792000D03*
X173482000Y-118872000D03*
%TO.N,/IAT*%
X172466000Y-120142000D03*
X180848000Y-115824000D03*
%TO.N,/O2*%
X183896000Y-108466400D03*
%TO.N,/TPS*%
X184404000Y-103886000D03*
X187960000Y-102870000D03*
%TO.N,/INJ2_P2*%
X195326000Y-53848000D03*
%TO.N,/INJ1_P2*%
X193888497Y-53340000D03*
%TD*%
D16*
%TO.N,/O2*%
X183896000Y-108466400D02*
X191761600Y-108466400D01*
X191761600Y-108466400D02*
X195072000Y-105156000D01*
D17*
%TO.N,/PROTO_5*%
X169118000Y-103378400D02*
X173482000Y-107742400D01*
X173482000Y-107742400D02*
X173482000Y-109728000D01*
X173482000Y-109728000D02*
X174244000Y-110490000D01*
X188468000Y-105664000D02*
X189738000Y-104394000D01*
X174244000Y-110490000D02*
X179578000Y-110490000D01*
X189738000Y-104394000D02*
X189738000Y-101576764D01*
X191238765Y-100076000D02*
X192532000Y-100076000D01*
X179578000Y-110490000D02*
X184404000Y-105664000D01*
X184404000Y-105664000D02*
X188468000Y-105664000D01*
X189738000Y-101576764D02*
X191238765Y-100076000D01*
%TO.N,/INJ1_P1*%
X192532000Y-51308000D02*
X192532000Y-56896000D01*
X189738000Y-48514000D02*
X192532000Y-51308000D01*
X185790000Y-48514000D02*
X189738000Y-48514000D01*
%TO.N,/INJ2_P1*%
X190500000Y-57964000D02*
X190500000Y-55880000D01*
X183134000Y-48514000D02*
X172720000Y-48514000D01*
X171196000Y-50038000D02*
X171196000Y-55566000D01*
X172720000Y-48514000D02*
X171196000Y-50038000D01*
X170078000Y-56684000D02*
X169118000Y-56684000D01*
X190500000Y-55880000D02*
X183134000Y-48514000D01*
X191972000Y-59436000D02*
X190500000Y-57964000D01*
X192532000Y-59436000D02*
X191972000Y-59436000D01*
X171196000Y-55566000D02*
X170078000Y-56684000D01*
%TO.N,/INJ3_P1*%
X188214000Y-55372000D02*
X188214000Y-57658000D01*
X187960000Y-55372000D02*
X188214000Y-55372000D01*
X188214000Y-57658000D02*
X192532000Y-61976000D01*
X182880000Y-50292000D02*
X187960000Y-55372000D01*
%TO.N,/INJ3_P2*%
X174244000Y-49784000D02*
X180340000Y-49784000D01*
X172396000Y-58486000D02*
X172396000Y-51632000D01*
X169118000Y-61764000D02*
X172396000Y-58486000D01*
X172396000Y-51632000D02*
X174244000Y-49784000D01*
X180340000Y-49784000D02*
X187014000Y-56458000D01*
X187014000Y-58998000D02*
X192532000Y-64516000D01*
X187014000Y-56458000D02*
X187014000Y-58998000D01*
%TO.N,/INJ4_P1*%
X181610000Y-60960000D02*
X185928000Y-60960000D01*
X171181600Y-63754000D02*
X178816000Y-63754000D01*
X169118000Y-65817600D02*
X171181600Y-63754000D01*
X192024000Y-67056000D02*
X192532000Y-67056000D01*
X185928000Y-60960000D02*
X192024000Y-67056000D01*
X178816000Y-63754000D02*
X181610000Y-60960000D01*
%TO.N,/INJ4_P2*%
X186944000Y-64262000D02*
X192278000Y-69596000D01*
%TO.N,/IGN_1*%
X182880000Y-72136000D02*
X192532000Y-72136000D01*
%TO.N,/IGN_4*%
X171118400Y-75438000D02*
X179843200Y-75438000D01*
X169118000Y-73437600D02*
X171118400Y-75438000D01*
X179843200Y-75438000D02*
X180605200Y-74676000D01*
X180605200Y-74676000D02*
X192532000Y-74676000D01*
%TO.N,/GND*%
X190500000Y-82804000D02*
X188722000Y-82804000D01*
X192532000Y-84836000D02*
X190754000Y-83058000D01*
X190754000Y-81534000D02*
X192532000Y-79756000D01*
X190754000Y-82550000D02*
X190500000Y-82804000D01*
X192532000Y-77216000D02*
X192532000Y-79756000D01*
X186944000Y-114173000D02*
X197104000Y-114173000D01*
X169118000Y-120142000D02*
X169118000Y-112522000D01*
X190754000Y-82550000D02*
X190754000Y-81534000D01*
X190754000Y-83058000D02*
X190754000Y-82550000D01*
D16*
%TO.N,/MAP*%
X179324000Y-86614000D02*
X179832000Y-86106000D01*
X176022000Y-86614000D02*
X179324000Y-86614000D01*
X171958000Y-82550000D02*
X176022000Y-86614000D01*
X169139200Y-82550000D02*
X171958000Y-82550000D01*
X179832000Y-86106000D02*
X188468000Y-86106000D01*
X169118000Y-82571200D02*
X169139200Y-82550000D01*
D17*
%TO.N,/5V*%
X171958000Y-110490000D02*
X164846000Y-110490000D01*
X177500000Y-112522000D02*
X186055000Y-112522000D01*
X164846000Y-91694000D02*
X167375200Y-89164800D01*
X173990000Y-112522000D02*
X171958000Y-110490000D01*
X167375200Y-89164800D02*
X169118000Y-89164800D01*
X189992000Y-87376000D02*
X188197200Y-89170800D01*
X192532000Y-87376000D02*
X189992000Y-87376000D01*
X164846000Y-110490000D02*
X164846000Y-91694000D01*
X188197200Y-89170800D02*
X177500000Y-89170800D01*
X192532000Y-87376000D02*
X195072000Y-87376000D01*
X186944000Y-111633000D02*
X197104000Y-111633000D01*
X186055000Y-112522000D02*
X186944000Y-111633000D01*
X177500000Y-112522000D02*
X173990000Y-112522000D01*
%TO.N,/PROTO_1*%
X175260000Y-87545800D02*
X175090200Y-87545800D01*
X180340000Y-87545800D02*
X186097800Y-87545800D01*
X170931200Y-91704800D02*
X169118000Y-91704800D01*
X175090200Y-87545800D02*
X170931200Y-91704800D01*
D18*
X175260000Y-87545800D02*
X176276000Y-87545800D01*
D16*
X176276000Y-87545800D02*
X175090200Y-87545800D01*
X186097800Y-87545800D02*
X186182000Y-87630000D01*
D18*
X180340000Y-87545800D02*
X176276000Y-87545800D01*
D17*
%TO.N,/PROTO_2*%
X186182000Y-98806000D02*
X192532000Y-92456000D01*
X171206800Y-94244800D02*
X175768000Y-98806000D01*
X175768000Y-98806000D02*
X186182000Y-98806000D01*
X169118000Y-94244800D02*
X171206800Y-94244800D01*
D16*
%TO.N,/CLT*%
X179832000Y-113792000D02*
X179832000Y-120660000D01*
X179832000Y-120660000D02*
X178826000Y-121666000D01*
X176276000Y-121666000D02*
X173482000Y-118872000D01*
X178826000Y-121666000D02*
X176276000Y-121666000D01*
%TO.N,/IAT*%
X180848000Y-120650000D02*
X179070000Y-122428000D01*
X180848000Y-115824000D02*
X180848000Y-120650000D01*
X179070000Y-122428000D02*
X174752000Y-122428000D01*
X174752000Y-122428000D02*
X172466000Y-120142000D01*
%TO.N,/TPS*%
X185420000Y-102870000D02*
X184404000Y-103886000D01*
X187960000Y-102870000D02*
X185420000Y-102870000D01*
%TO.N,/CAM_VR2+*%
X178016400Y-100330000D02*
X187198000Y-100330000D01*
X191217000Y-96311000D02*
X193847000Y-96311000D01*
X187198000Y-100330000D02*
X191217000Y-96311000D01*
X193847000Y-96311000D02*
X195072000Y-97536000D01*
%TO.N,/VR1-*%
X192069588Y-88646000D02*
X193802000Y-88646000D01*
X177500000Y-91710800D02*
X189004788Y-91710800D01*
X189004788Y-91710800D02*
X192069588Y-88646000D01*
X193802000Y-88646000D02*
X195072000Y-89916000D01*
%TO.N,/IDLE_STEP_2B*%
X193847000Y-86061000D02*
X195072000Y-84836000D01*
D17*
X178033200Y-84582000D02*
X189529000Y-84582000D01*
D16*
X191008000Y-86061000D02*
X193847000Y-86061000D01*
D17*
X177500000Y-85115200D02*
X178033200Y-84582000D01*
X189529000Y-84582000D02*
X191008000Y-86061000D01*
%TO.N,/IGN_3*%
X190500000Y-73406000D02*
X190466400Y-73439600D01*
D16*
X193802000Y-73406000D02*
X190500000Y-73406000D01*
D17*
X195072000Y-74676000D02*
X193802000Y-73406000D01*
X177500000Y-73439600D02*
X190466400Y-73439600D01*
%TO.N,/IDLE_2*%
X177500000Y-65819600D02*
X186215600Y-65819600D01*
D16*
X190754000Y-70358000D02*
X191262000Y-70866000D01*
D17*
X193802000Y-68326000D02*
X195072000Y-67056000D01*
D16*
X193294000Y-70866000D02*
X193802000Y-70358000D01*
X191262000Y-70866000D02*
X193294000Y-70866000D01*
X193802000Y-70358000D02*
X193802000Y-68326000D01*
D17*
X186215600Y-65819600D02*
X190754000Y-70358000D01*
%TO.N,/INJ2_P2*%
X196850000Y-55372000D02*
X196850000Y-57658000D01*
X196850000Y-57658000D02*
X195072000Y-59436000D01*
X195326000Y-53848000D02*
X196850000Y-55372000D01*
%TO.N,/INJ1_P2*%
X195072000Y-55707006D02*
X193888497Y-54523503D01*
X193888497Y-53340000D02*
X193888497Y-54523503D01*
X195072000Y-56896000D02*
X195072000Y-55707006D01*
%TO.N,Net-(J14-Pin_3)*%
X186944000Y-121793000D02*
X186944000Y-116713000D01*
%TO.N,Net-(J14-Pin_10)*%
X189484000Y-121793000D02*
X189484000Y-116713000D01*
%TO.N,Net-(J14-Pin_13)*%
X192024000Y-121793000D02*
X192024000Y-116713000D01*
%TO.N,Net-(J14-Pin_18)*%
X194564000Y-121793000D02*
X194564000Y-116713000D01*
%TO.N,Net-(J14-Pin_23)*%
X197104000Y-116713000D02*
X197104000Y-121793000D01*
%TD*%
M02*
