%TF.GenerationSoftware,KiCad,Pcbnew,7.0.5-7.0.5~ubuntu22.04.1*%
%TF.CreationDate,2023-08-20T16:34:46-07:00*%
%TF.ProjectId,terminal_strip_adaptor,7465726d-696e-4616-9c5f-73747269705f,rev?*%
%TF.SameCoordinates,Original*%
%TF.FileFunction,Drillmap*%
%TF.FilePolarity,Positive*%
%FSLAX45Y45*%
G04 Gerber Fmt 4.5, Leading zero omitted, Abs format (unit mm)*
G04 Created by KiCad (PCBNEW 7.0.5-7.0.5~ubuntu22.04.1) date 2023-08-20 16:34:46*
%MOMM*%
%LPD*%
G01*
G04 APERTURE LIST*
%ADD10C,0.100000*%
%ADD11C,0.200000*%
G04 APERTURE END LIST*
D10*
X15240000Y-4673600D02*
X19964400Y-4673600D01*
X19964400Y-12420600D01*
X15240000Y-12420600D01*
X15240000Y-4673600D01*
D11*
X15495777Y-12737084D02*
X15495777Y-12537084D01*
X15495777Y-12537084D02*
X15543396Y-12537084D01*
X15543396Y-12537084D02*
X15571967Y-12546608D01*
X15571967Y-12546608D02*
X15591015Y-12565655D01*
X15591015Y-12565655D02*
X15600539Y-12584703D01*
X15600539Y-12584703D02*
X15610062Y-12622798D01*
X15610062Y-12622798D02*
X15610062Y-12651369D01*
X15610062Y-12651369D02*
X15600539Y-12689465D01*
X15600539Y-12689465D02*
X15591015Y-12708512D01*
X15591015Y-12708512D02*
X15571967Y-12727560D01*
X15571967Y-12727560D02*
X15543396Y-12737084D01*
X15543396Y-12737084D02*
X15495777Y-12737084D01*
X15695777Y-12737084D02*
X15695777Y-12603750D01*
X15695777Y-12641846D02*
X15705301Y-12622798D01*
X15705301Y-12622798D02*
X15714824Y-12613274D01*
X15714824Y-12613274D02*
X15733872Y-12603750D01*
X15733872Y-12603750D02*
X15752920Y-12603750D01*
X15819586Y-12737084D02*
X15819586Y-12603750D01*
X15819586Y-12537084D02*
X15810062Y-12546608D01*
X15810062Y-12546608D02*
X15819586Y-12556131D01*
X15819586Y-12556131D02*
X15829110Y-12546608D01*
X15829110Y-12546608D02*
X15819586Y-12537084D01*
X15819586Y-12537084D02*
X15819586Y-12556131D01*
X15943396Y-12737084D02*
X15924348Y-12727560D01*
X15924348Y-12727560D02*
X15914824Y-12708512D01*
X15914824Y-12708512D02*
X15914824Y-12537084D01*
X16048158Y-12737084D02*
X16029110Y-12727560D01*
X16029110Y-12727560D02*
X16019586Y-12708512D01*
X16019586Y-12708512D02*
X16019586Y-12537084D01*
X16276729Y-12737084D02*
X16276729Y-12537084D01*
X16276729Y-12537084D02*
X16343396Y-12679941D01*
X16343396Y-12679941D02*
X16410062Y-12537084D01*
X16410062Y-12537084D02*
X16410062Y-12737084D01*
X16591015Y-12737084D02*
X16591015Y-12632322D01*
X16591015Y-12632322D02*
X16581491Y-12613274D01*
X16581491Y-12613274D02*
X16562443Y-12603750D01*
X16562443Y-12603750D02*
X16524348Y-12603750D01*
X16524348Y-12603750D02*
X16505301Y-12613274D01*
X16591015Y-12727560D02*
X16571967Y-12737084D01*
X16571967Y-12737084D02*
X16524348Y-12737084D01*
X16524348Y-12737084D02*
X16505301Y-12727560D01*
X16505301Y-12727560D02*
X16495777Y-12708512D01*
X16495777Y-12708512D02*
X16495777Y-12689465D01*
X16495777Y-12689465D02*
X16505301Y-12670417D01*
X16505301Y-12670417D02*
X16524348Y-12660893D01*
X16524348Y-12660893D02*
X16571967Y-12660893D01*
X16571967Y-12660893D02*
X16591015Y-12651369D01*
X16686253Y-12603750D02*
X16686253Y-12803750D01*
X16686253Y-12613274D02*
X16705301Y-12603750D01*
X16705301Y-12603750D02*
X16743396Y-12603750D01*
X16743396Y-12603750D02*
X16762443Y-12613274D01*
X16762443Y-12613274D02*
X16771967Y-12622798D01*
X16771967Y-12622798D02*
X16781491Y-12641846D01*
X16781491Y-12641846D02*
X16781491Y-12698988D01*
X16781491Y-12698988D02*
X16771967Y-12718036D01*
X16771967Y-12718036D02*
X16762443Y-12727560D01*
X16762443Y-12727560D02*
X16743396Y-12737084D01*
X16743396Y-12737084D02*
X16705301Y-12737084D01*
X16705301Y-12737084D02*
X16686253Y-12727560D01*
X16867205Y-12718036D02*
X16876729Y-12727560D01*
X16876729Y-12727560D02*
X16867205Y-12737084D01*
X16867205Y-12737084D02*
X16857682Y-12727560D01*
X16857682Y-12727560D02*
X16867205Y-12718036D01*
X16867205Y-12718036D02*
X16867205Y-12737084D01*
X16867205Y-12613274D02*
X16876729Y-12622798D01*
X16876729Y-12622798D02*
X16867205Y-12632322D01*
X16867205Y-12632322D02*
X16857682Y-12622798D01*
X16857682Y-12622798D02*
X16867205Y-12613274D01*
X16867205Y-12613274D02*
X16867205Y-12632322D01*
M02*
