%TF.GenerationSoftware,KiCad,Pcbnew,7.0.5-7.0.5~ubuntu22.04.1*%
%TF.CreationDate,2023-08-20T16:34:42-07:00*%
%TF.ProjectId,terminal_strip_adaptor,7465726d-696e-4616-9c5f-73747269705f,rev?*%
%TF.SameCoordinates,Original*%
%TF.FileFunction,Legend,Top*%
%TF.FilePolarity,Positive*%
%FSLAX46Y46*%
G04 Gerber Fmt 4.6, Leading zero omitted, Abs format (unit mm)*
G04 Created by KiCad (PCBNEW 7.0.5-7.0.5~ubuntu22.04.1) date 2023-08-20 16:34:42*
%MOMM*%
%LPD*%
G01*
G04 APERTURE LIST*
%ADD10C,0.150000*%
%ADD11C,0.120000*%
%ADD12R,2.100000X2.100000*%
%ADD13C,2.100000*%
%ADD14C,1.600000*%
%ADD15R,1.700000X1.700000*%
%ADD16O,1.700000X1.700000*%
G04 APERTURE END LIST*
D10*
X188214000Y-115570000D02*
X188214000Y-117983000D01*
X190754000Y-120523000D02*
X190754000Y-117983000D01*
X198374000Y-115570000D02*
X185674000Y-115570000D01*
X185674000Y-112903000D02*
X198374000Y-112903000D01*
X185674000Y-123063000D02*
X185674000Y-115570000D01*
X185674000Y-110363000D02*
X198374000Y-110363000D01*
X195834000Y-117983000D02*
X195834000Y-120523000D01*
X158559500Y-110617000D02*
X185039000Y-110617000D01*
X198374000Y-110363000D02*
X198374000Y-112903000D01*
X190754000Y-120523000D02*
X190754000Y-123063000D01*
X188214000Y-120523000D02*
X188214000Y-123063000D01*
X190754000Y-115570000D02*
X190754000Y-117983000D01*
X198374000Y-123063000D02*
X185674000Y-123063000D01*
X198374000Y-112903000D02*
X198374000Y-115570000D01*
X193294000Y-120523000D02*
X193294000Y-123063000D01*
X198374000Y-115570000D02*
X198374000Y-123063000D01*
X195834000Y-115570000D02*
X195834000Y-117983000D01*
X188214000Y-117983000D02*
X188214000Y-120523000D01*
X193294000Y-115570000D02*
X193294000Y-117983000D01*
X185674000Y-115570000D02*
X185674000Y-112903000D01*
X193294000Y-117983000D02*
X193294000Y-120523000D01*
X185674000Y-112903000D02*
X185674000Y-110363000D01*
X195834000Y-120523000D02*
X195834000Y-123063000D01*
X182422969Y-88171153D02*
X181946779Y-88171153D01*
X181946779Y-88171153D02*
X181899160Y-88980677D01*
X181899160Y-88980677D02*
X181946779Y-88899724D01*
X181946779Y-88899724D02*
X182042017Y-88818772D01*
X182042017Y-88818772D02*
X182280112Y-88818772D01*
X182280112Y-88818772D02*
X182375350Y-88899724D01*
X182375350Y-88899724D02*
X182422969Y-88980677D01*
X182422969Y-88980677D02*
X182470588Y-89142581D01*
X182470588Y-89142581D02*
X182470588Y-89547343D01*
X182470588Y-89547343D02*
X182422969Y-89709248D01*
X182422969Y-89709248D02*
X182375350Y-89790201D01*
X182375350Y-89790201D02*
X182280112Y-89871153D01*
X182280112Y-89871153D02*
X182042017Y-89871153D01*
X182042017Y-89871153D02*
X181946779Y-89790201D01*
X181946779Y-89790201D02*
X181899160Y-89709248D01*
X182756303Y-88171153D02*
X183089636Y-89871153D01*
X183089636Y-89871153D02*
X183422969Y-88171153D01*
X181803922Y-90908153D02*
X182137255Y-92608153D01*
X182137255Y-92608153D02*
X182470588Y-90908153D01*
X183375350Y-92608153D02*
X183042017Y-91798629D01*
X182803922Y-92608153D02*
X182803922Y-90908153D01*
X182803922Y-90908153D02*
X183184874Y-90908153D01*
X183184874Y-90908153D02*
X183280112Y-90989105D01*
X183280112Y-90989105D02*
X183327731Y-91070058D01*
X183327731Y-91070058D02*
X183375350Y-91231962D01*
X183375350Y-91231962D02*
X183375350Y-91474820D01*
X183375350Y-91474820D02*
X183327731Y-91636724D01*
X183327731Y-91636724D02*
X183280112Y-91717677D01*
X183280112Y-91717677D02*
X183184874Y-91798629D01*
X183184874Y-91798629D02*
X182803922Y-91798629D01*
X184327731Y-92608153D02*
X183756303Y-92608153D01*
X184042017Y-92608153D02*
X184042017Y-90908153D01*
X184042017Y-90908153D02*
X183946779Y-91151010D01*
X183946779Y-91151010D02*
X183851541Y-91312915D01*
X183851541Y-91312915D02*
X183756303Y-91393867D01*
X184756303Y-91960534D02*
X185518208Y-91960534D01*
X181803922Y-93645153D02*
X182137255Y-95345153D01*
X182137255Y-95345153D02*
X182470588Y-93645153D01*
X183375350Y-95345153D02*
X183042017Y-94535629D01*
X182803922Y-95345153D02*
X182803922Y-93645153D01*
X182803922Y-93645153D02*
X183184874Y-93645153D01*
X183184874Y-93645153D02*
X183280112Y-93726105D01*
X183280112Y-93726105D02*
X183327731Y-93807058D01*
X183327731Y-93807058D02*
X183375350Y-93968962D01*
X183375350Y-93968962D02*
X183375350Y-94211820D01*
X183375350Y-94211820D02*
X183327731Y-94373724D01*
X183327731Y-94373724D02*
X183280112Y-94454677D01*
X183280112Y-94454677D02*
X183184874Y-94535629D01*
X183184874Y-94535629D02*
X182803922Y-94535629D01*
X183756303Y-93807058D02*
X183803922Y-93726105D01*
X183803922Y-93726105D02*
X183899160Y-93645153D01*
X183899160Y-93645153D02*
X184137255Y-93645153D01*
X184137255Y-93645153D02*
X184232493Y-93726105D01*
X184232493Y-93726105D02*
X184280112Y-93807058D01*
X184280112Y-93807058D02*
X184327731Y-93968962D01*
X184327731Y-93968962D02*
X184327731Y-94130867D01*
X184327731Y-94130867D02*
X184280112Y-94373724D01*
X184280112Y-94373724D02*
X183708684Y-95345153D01*
X183708684Y-95345153D02*
X184327731Y-95345153D01*
X184756303Y-94697534D02*
X185518208Y-94697534D01*
X182518207Y-97920248D02*
X182470588Y-98001201D01*
X182470588Y-98001201D02*
X182327731Y-98082153D01*
X182327731Y-98082153D02*
X182232493Y-98082153D01*
X182232493Y-98082153D02*
X182089636Y-98001201D01*
X182089636Y-98001201D02*
X181994398Y-97839296D01*
X181994398Y-97839296D02*
X181946779Y-97677391D01*
X181946779Y-97677391D02*
X181899160Y-97353581D01*
X181899160Y-97353581D02*
X181899160Y-97110724D01*
X181899160Y-97110724D02*
X181946779Y-96786915D01*
X181946779Y-96786915D02*
X181994398Y-96625010D01*
X181994398Y-96625010D02*
X182089636Y-96463105D01*
X182089636Y-96463105D02*
X182232493Y-96382153D01*
X182232493Y-96382153D02*
X182327731Y-96382153D01*
X182327731Y-96382153D02*
X182470588Y-96463105D01*
X182470588Y-96463105D02*
X182518207Y-96544058D01*
X183518207Y-98082153D02*
X183184874Y-97272629D01*
X182946779Y-98082153D02*
X182946779Y-96382153D01*
X182946779Y-96382153D02*
X183327731Y-96382153D01*
X183327731Y-96382153D02*
X183422969Y-96463105D01*
X183422969Y-96463105D02*
X183470588Y-96544058D01*
X183470588Y-96544058D02*
X183518207Y-96705962D01*
X183518207Y-96705962D02*
X183518207Y-96948820D01*
X183518207Y-96948820D02*
X183470588Y-97110724D01*
X183470588Y-97110724D02*
X183422969Y-97191677D01*
X183422969Y-97191677D02*
X183327731Y-97272629D01*
X183327731Y-97272629D02*
X182946779Y-97272629D01*
X183946779Y-98082153D02*
X183946779Y-96382153D01*
X183946779Y-96382153D02*
X184518207Y-98082153D01*
X184518207Y-98082153D02*
X184518207Y-96382153D01*
X184994398Y-98082153D02*
X184994398Y-96382153D01*
X185565826Y-98082153D02*
X185137255Y-97110724D01*
X185565826Y-96382153D02*
X184994398Y-97353581D01*
X186708683Y-96301201D02*
X185851541Y-98486915D01*
X186899160Y-96382153D02*
X187232493Y-98082153D01*
X187232493Y-98082153D02*
X187565826Y-96382153D01*
X188470588Y-98082153D02*
X188137255Y-97272629D01*
X187899160Y-98082153D02*
X187899160Y-96382153D01*
X187899160Y-96382153D02*
X188280112Y-96382153D01*
X188280112Y-96382153D02*
X188375350Y-96463105D01*
X188375350Y-96463105D02*
X188422969Y-96544058D01*
X188422969Y-96544058D02*
X188470588Y-96705962D01*
X188470588Y-96705962D02*
X188470588Y-96948820D01*
X188470588Y-96948820D02*
X188422969Y-97110724D01*
X188422969Y-97110724D02*
X188375350Y-97191677D01*
X188375350Y-97191677D02*
X188280112Y-97272629D01*
X188280112Y-97272629D02*
X187899160Y-97272629D01*
X189422969Y-98082153D02*
X188851541Y-98082153D01*
X189137255Y-98082153D02*
X189137255Y-96382153D01*
X189137255Y-96382153D02*
X189042017Y-96625010D01*
X189042017Y-96625010D02*
X188946779Y-96786915D01*
X188946779Y-96786915D02*
X188851541Y-96867867D01*
X189851541Y-97434534D02*
X190613446Y-97434534D01*
X190232493Y-98082153D02*
X190232493Y-96786915D01*
X189741350Y-49577820D02*
X189741350Y-50711153D01*
X189503255Y-48930201D02*
X189265160Y-50144486D01*
X189265160Y-50144486D02*
X189884207Y-50144486D01*
X190455636Y-49011153D02*
X190550874Y-49011153D01*
X190550874Y-49011153D02*
X190646112Y-49092105D01*
X190646112Y-49092105D02*
X190693731Y-49173058D01*
X190693731Y-49173058D02*
X190741350Y-49334962D01*
X190741350Y-49334962D02*
X190788969Y-49658772D01*
X190788969Y-49658772D02*
X190788969Y-50063534D01*
X190788969Y-50063534D02*
X190741350Y-50387343D01*
X190741350Y-50387343D02*
X190693731Y-50549248D01*
X190693731Y-50549248D02*
X190646112Y-50630201D01*
X190646112Y-50630201D02*
X190550874Y-50711153D01*
X190550874Y-50711153D02*
X190455636Y-50711153D01*
X190455636Y-50711153D02*
X190360398Y-50630201D01*
X190360398Y-50630201D02*
X190312779Y-50549248D01*
X190312779Y-50549248D02*
X190265160Y-50387343D01*
X190265160Y-50387343D02*
X190217541Y-50063534D01*
X190217541Y-50063534D02*
X190217541Y-49658772D01*
X190217541Y-49658772D02*
X190265160Y-49334962D01*
X190265160Y-49334962D02*
X190312779Y-49173058D01*
X190312779Y-49173058D02*
X190360398Y-49092105D01*
X190360398Y-49092105D02*
X190455636Y-49011153D01*
X156286125Y-49138153D02*
X156381363Y-49138153D01*
X156381363Y-49138153D02*
X156476601Y-49219105D01*
X156476601Y-49219105D02*
X156524220Y-49300058D01*
X156524220Y-49300058D02*
X156571839Y-49461962D01*
X156571839Y-49461962D02*
X156619458Y-49785772D01*
X156619458Y-49785772D02*
X156619458Y-50190534D01*
X156619458Y-50190534D02*
X156571839Y-50514343D01*
X156571839Y-50514343D02*
X156524220Y-50676248D01*
X156524220Y-50676248D02*
X156476601Y-50757201D01*
X156476601Y-50757201D02*
X156381363Y-50838153D01*
X156381363Y-50838153D02*
X156286125Y-50838153D01*
X156286125Y-50838153D02*
X156190887Y-50757201D01*
X156190887Y-50757201D02*
X156143268Y-50676248D01*
X156143268Y-50676248D02*
X156095649Y-50514343D01*
X156095649Y-50514343D02*
X156048030Y-50190534D01*
X156048030Y-50190534D02*
X156048030Y-49785772D01*
X156048030Y-49785772D02*
X156095649Y-49461962D01*
X156095649Y-49461962D02*
X156143268Y-49300058D01*
X156143268Y-49300058D02*
X156190887Y-49219105D01*
X156190887Y-49219105D02*
X156286125Y-49138153D01*
X157571839Y-50838153D02*
X157000411Y-50838153D01*
X157286125Y-50838153D02*
X157286125Y-49138153D01*
X157286125Y-49138153D02*
X157190887Y-49381010D01*
X157190887Y-49381010D02*
X157095649Y-49542915D01*
X157095649Y-49542915D02*
X157000411Y-49623867D01*
X162615601Y-76568105D02*
X162520363Y-76487153D01*
X162520363Y-76487153D02*
X162377506Y-76487153D01*
X162377506Y-76487153D02*
X162234649Y-76568105D01*
X162234649Y-76568105D02*
X162139411Y-76730010D01*
X162139411Y-76730010D02*
X162091792Y-76891915D01*
X162091792Y-76891915D02*
X162044173Y-77215724D01*
X162044173Y-77215724D02*
X162044173Y-77458581D01*
X162044173Y-77458581D02*
X162091792Y-77782391D01*
X162091792Y-77782391D02*
X162139411Y-77944296D01*
X162139411Y-77944296D02*
X162234649Y-78106201D01*
X162234649Y-78106201D02*
X162377506Y-78187153D01*
X162377506Y-78187153D02*
X162472744Y-78187153D01*
X162472744Y-78187153D02*
X162615601Y-78106201D01*
X162615601Y-78106201D02*
X162663220Y-78025248D01*
X162663220Y-78025248D02*
X162663220Y-77458581D01*
X162663220Y-77458581D02*
X162472744Y-77458581D01*
X163091792Y-78187153D02*
X163091792Y-76487153D01*
X163091792Y-76487153D02*
X163663220Y-78187153D01*
X163663220Y-78187153D02*
X163663220Y-76487153D01*
X164139411Y-78187153D02*
X164139411Y-76487153D01*
X164139411Y-76487153D02*
X164377506Y-76487153D01*
X164377506Y-76487153D02*
X164520363Y-76568105D01*
X164520363Y-76568105D02*
X164615601Y-76730010D01*
X164615601Y-76730010D02*
X164663220Y-76891915D01*
X164663220Y-76891915D02*
X164710839Y-77215724D01*
X164710839Y-77215724D02*
X164710839Y-77458581D01*
X164710839Y-77458581D02*
X164663220Y-77782391D01*
X164663220Y-77782391D02*
X164615601Y-77944296D01*
X164615601Y-77944296D02*
X164520363Y-78106201D01*
X164520363Y-78106201D02*
X164377506Y-78187153D01*
X164377506Y-78187153D02*
X164139411Y-78187153D01*
X162615601Y-79305105D02*
X162520363Y-79224153D01*
X162520363Y-79224153D02*
X162377506Y-79224153D01*
X162377506Y-79224153D02*
X162234649Y-79305105D01*
X162234649Y-79305105D02*
X162139411Y-79467010D01*
X162139411Y-79467010D02*
X162091792Y-79628915D01*
X162091792Y-79628915D02*
X162044173Y-79952724D01*
X162044173Y-79952724D02*
X162044173Y-80195581D01*
X162044173Y-80195581D02*
X162091792Y-80519391D01*
X162091792Y-80519391D02*
X162139411Y-80681296D01*
X162139411Y-80681296D02*
X162234649Y-80843201D01*
X162234649Y-80843201D02*
X162377506Y-80924153D01*
X162377506Y-80924153D02*
X162472744Y-80924153D01*
X162472744Y-80924153D02*
X162615601Y-80843201D01*
X162615601Y-80843201D02*
X162663220Y-80762248D01*
X162663220Y-80762248D02*
X162663220Y-80195581D01*
X162663220Y-80195581D02*
X162472744Y-80195581D01*
X163091792Y-80924153D02*
X163091792Y-79224153D01*
X163091792Y-79224153D02*
X163663220Y-80924153D01*
X163663220Y-80924153D02*
X163663220Y-79224153D01*
X164139411Y-80924153D02*
X164139411Y-79224153D01*
X164139411Y-79224153D02*
X164377506Y-79224153D01*
X164377506Y-79224153D02*
X164520363Y-79305105D01*
X164520363Y-79305105D02*
X164615601Y-79467010D01*
X164615601Y-79467010D02*
X164663220Y-79628915D01*
X164663220Y-79628915D02*
X164710839Y-79952724D01*
X164710839Y-79952724D02*
X164710839Y-80195581D01*
X164710839Y-80195581D02*
X164663220Y-80519391D01*
X164663220Y-80519391D02*
X164615601Y-80681296D01*
X164615601Y-80681296D02*
X164520363Y-80843201D01*
X164520363Y-80843201D02*
X164377506Y-80924153D01*
X164377506Y-80924153D02*
X164139411Y-80924153D01*
X157377506Y-83661153D02*
X157377506Y-81961153D01*
X157377506Y-81961153D02*
X157710839Y-83175439D01*
X157710839Y-83175439D02*
X158044172Y-81961153D01*
X158044172Y-81961153D02*
X158044172Y-83661153D01*
X158472744Y-83175439D02*
X158948934Y-83175439D01*
X158377506Y-83661153D02*
X158710839Y-81961153D01*
X158710839Y-81961153D02*
X159044172Y-83661153D01*
X159377506Y-83661153D02*
X159377506Y-81961153D01*
X159377506Y-81961153D02*
X159758458Y-81961153D01*
X159758458Y-81961153D02*
X159853696Y-82042105D01*
X159853696Y-82042105D02*
X159901315Y-82123058D01*
X159901315Y-82123058D02*
X159948934Y-82284962D01*
X159948934Y-82284962D02*
X159948934Y-82527820D01*
X159948934Y-82527820D02*
X159901315Y-82689724D01*
X159901315Y-82689724D02*
X159853696Y-82770677D01*
X159853696Y-82770677D02*
X159758458Y-82851629D01*
X159758458Y-82851629D02*
X159377506Y-82851629D01*
X161329887Y-81961153D02*
X161425125Y-81961153D01*
X161425125Y-81961153D02*
X161520363Y-82042105D01*
X161520363Y-82042105D02*
X161567982Y-82123058D01*
X161567982Y-82123058D02*
X161615601Y-82284962D01*
X161615601Y-82284962D02*
X161663220Y-82608772D01*
X161663220Y-82608772D02*
X161663220Y-83013534D01*
X161663220Y-83013534D02*
X161615601Y-83337343D01*
X161615601Y-83337343D02*
X161567982Y-83499248D01*
X161567982Y-83499248D02*
X161520363Y-83580201D01*
X161520363Y-83580201D02*
X161425125Y-83661153D01*
X161425125Y-83661153D02*
X161329887Y-83661153D01*
X161329887Y-83661153D02*
X161234649Y-83580201D01*
X161234649Y-83580201D02*
X161187030Y-83499248D01*
X161187030Y-83499248D02*
X161139411Y-83337343D01*
X161139411Y-83337343D02*
X161091792Y-83013534D01*
X161091792Y-83013534D02*
X161091792Y-82608772D01*
X161091792Y-82608772D02*
X161139411Y-82284962D01*
X161139411Y-82284962D02*
X161187030Y-82123058D01*
X161187030Y-82123058D02*
X161234649Y-82042105D01*
X161234649Y-82042105D02*
X161329887Y-81961153D01*
X162091792Y-83013534D02*
X162853697Y-83013534D01*
X163806077Y-81961153D02*
X163329887Y-81961153D01*
X163329887Y-81961153D02*
X163282268Y-82770677D01*
X163282268Y-82770677D02*
X163329887Y-82689724D01*
X163329887Y-82689724D02*
X163425125Y-82608772D01*
X163425125Y-82608772D02*
X163663220Y-82608772D01*
X163663220Y-82608772D02*
X163758458Y-82689724D01*
X163758458Y-82689724D02*
X163806077Y-82770677D01*
X163806077Y-82770677D02*
X163853696Y-82932581D01*
X163853696Y-82932581D02*
X163853696Y-83337343D01*
X163853696Y-83337343D02*
X163806077Y-83499248D01*
X163806077Y-83499248D02*
X163758458Y-83580201D01*
X163758458Y-83580201D02*
X163663220Y-83661153D01*
X163663220Y-83661153D02*
X163425125Y-83661153D01*
X163425125Y-83661153D02*
X163329887Y-83580201D01*
X163329887Y-83580201D02*
X163282268Y-83499248D01*
X164139411Y-81961153D02*
X164472744Y-83661153D01*
X164472744Y-83661153D02*
X164806077Y-81961153D01*
X162615601Y-84779105D02*
X162520363Y-84698153D01*
X162520363Y-84698153D02*
X162377506Y-84698153D01*
X162377506Y-84698153D02*
X162234649Y-84779105D01*
X162234649Y-84779105D02*
X162139411Y-84941010D01*
X162139411Y-84941010D02*
X162091792Y-85102915D01*
X162091792Y-85102915D02*
X162044173Y-85426724D01*
X162044173Y-85426724D02*
X162044173Y-85669581D01*
X162044173Y-85669581D02*
X162091792Y-85993391D01*
X162091792Y-85993391D02*
X162139411Y-86155296D01*
X162139411Y-86155296D02*
X162234649Y-86317201D01*
X162234649Y-86317201D02*
X162377506Y-86398153D01*
X162377506Y-86398153D02*
X162472744Y-86398153D01*
X162472744Y-86398153D02*
X162615601Y-86317201D01*
X162615601Y-86317201D02*
X162663220Y-86236248D01*
X162663220Y-86236248D02*
X162663220Y-85669581D01*
X162663220Y-85669581D02*
X162472744Y-85669581D01*
X163091792Y-86398153D02*
X163091792Y-84698153D01*
X163091792Y-84698153D02*
X163663220Y-86398153D01*
X163663220Y-86398153D02*
X163663220Y-84698153D01*
X164139411Y-86398153D02*
X164139411Y-84698153D01*
X164139411Y-84698153D02*
X164377506Y-84698153D01*
X164377506Y-84698153D02*
X164520363Y-84779105D01*
X164520363Y-84779105D02*
X164615601Y-84941010D01*
X164615601Y-84941010D02*
X164663220Y-85102915D01*
X164663220Y-85102915D02*
X164710839Y-85426724D01*
X164710839Y-85426724D02*
X164710839Y-85669581D01*
X164710839Y-85669581D02*
X164663220Y-85993391D01*
X164663220Y-85993391D02*
X164615601Y-86155296D01*
X164615601Y-86155296D02*
X164520363Y-86317201D01*
X164520363Y-86317201D02*
X164377506Y-86398153D01*
X164377506Y-86398153D02*
X164139411Y-86398153D01*
X185058255Y-113804819D02*
X185153493Y-113804819D01*
X185153493Y-113804819D02*
X185248731Y-113852438D01*
X185248731Y-113852438D02*
X185296350Y-113900057D01*
X185296350Y-113900057D02*
X185343969Y-113995295D01*
X185343969Y-113995295D02*
X185391588Y-114185771D01*
X185391588Y-114185771D02*
X185391588Y-114423866D01*
X185391588Y-114423866D02*
X185343969Y-114614342D01*
X185343969Y-114614342D02*
X185296350Y-114709580D01*
X185296350Y-114709580D02*
X185248731Y-114757200D01*
X185248731Y-114757200D02*
X185153493Y-114804819D01*
X185153493Y-114804819D02*
X185058255Y-114804819D01*
X185058255Y-114804819D02*
X184963017Y-114757200D01*
X184963017Y-114757200D02*
X184915398Y-114709580D01*
X184915398Y-114709580D02*
X184867779Y-114614342D01*
X184867779Y-114614342D02*
X184820160Y-114423866D01*
X184820160Y-114423866D02*
X184820160Y-114185771D01*
X184820160Y-114185771D02*
X184867779Y-113995295D01*
X184867779Y-113995295D02*
X184915398Y-113900057D01*
X184915398Y-113900057D02*
X184963017Y-113852438D01*
X184963017Y-113852438D02*
X185058255Y-113804819D01*
X197942200Y-68290839D02*
X197989819Y-68147982D01*
X197989819Y-68147982D02*
X197989819Y-67909887D01*
X197989819Y-67909887D02*
X197942200Y-67814649D01*
X197942200Y-67814649D02*
X197894580Y-67767030D01*
X197894580Y-67767030D02*
X197799342Y-67719411D01*
X197799342Y-67719411D02*
X197704104Y-67719411D01*
X197704104Y-67719411D02*
X197608866Y-67767030D01*
X197608866Y-67767030D02*
X197561247Y-67814649D01*
X197561247Y-67814649D02*
X197513628Y-67909887D01*
X197513628Y-67909887D02*
X197466009Y-68100363D01*
X197466009Y-68100363D02*
X197418390Y-68195601D01*
X197418390Y-68195601D02*
X197370771Y-68243220D01*
X197370771Y-68243220D02*
X197275533Y-68290839D01*
X197275533Y-68290839D02*
X197180295Y-68290839D01*
X197180295Y-68290839D02*
X197085057Y-68243220D01*
X197085057Y-68243220D02*
X197037438Y-68195601D01*
X197037438Y-68195601D02*
X196989819Y-68100363D01*
X196989819Y-68100363D02*
X196989819Y-67862268D01*
X196989819Y-67862268D02*
X197037438Y-67719411D01*
X197989819Y-67290839D02*
X196989819Y-67290839D01*
X196989819Y-67290839D02*
X196989819Y-66909887D01*
X196989819Y-66909887D02*
X197037438Y-66814649D01*
X197037438Y-66814649D02*
X197085057Y-66767030D01*
X197085057Y-66767030D02*
X197180295Y-66719411D01*
X197180295Y-66719411D02*
X197323152Y-66719411D01*
X197323152Y-66719411D02*
X197418390Y-66767030D01*
X197418390Y-66767030D02*
X197466009Y-66814649D01*
X197466009Y-66814649D02*
X197513628Y-66909887D01*
X197513628Y-66909887D02*
X197513628Y-67290839D01*
X197466009Y-66290839D02*
X197466009Y-65957506D01*
X197989819Y-65814649D02*
X197989819Y-66290839D01*
X197989819Y-66290839D02*
X196989819Y-66290839D01*
X196989819Y-66290839D02*
X196989819Y-65814649D01*
X197466009Y-65386077D02*
X197466009Y-65052744D01*
X197989819Y-64909887D02*
X197989819Y-65386077D01*
X197989819Y-65386077D02*
X196989819Y-65386077D01*
X196989819Y-65386077D02*
X196989819Y-64909887D01*
X197989819Y-64481315D02*
X196989819Y-64481315D01*
X196989819Y-64481315D02*
X196989819Y-64243220D01*
X196989819Y-64243220D02*
X197037438Y-64100363D01*
X197037438Y-64100363D02*
X197132676Y-64005125D01*
X197132676Y-64005125D02*
X197227914Y-63957506D01*
X197227914Y-63957506D02*
X197418390Y-63909887D01*
X197418390Y-63909887D02*
X197561247Y-63909887D01*
X197561247Y-63909887D02*
X197751723Y-63957506D01*
X197751723Y-63957506D02*
X197846961Y-64005125D01*
X197846961Y-64005125D02*
X197942200Y-64100363D01*
X197942200Y-64100363D02*
X197989819Y-64243220D01*
X197989819Y-64243220D02*
X197989819Y-64481315D01*
X196989819Y-63481315D02*
X197799342Y-63481315D01*
X197799342Y-63481315D02*
X197894580Y-63433696D01*
X197894580Y-63433696D02*
X197942200Y-63386077D01*
X197942200Y-63386077D02*
X197989819Y-63290839D01*
X197989819Y-63290839D02*
X197989819Y-63100363D01*
X197989819Y-63100363D02*
X197942200Y-63005125D01*
X197942200Y-63005125D02*
X197894580Y-62957506D01*
X197894580Y-62957506D02*
X197799342Y-62909887D01*
X197799342Y-62909887D02*
X196989819Y-62909887D01*
X197989819Y-62433696D02*
X196989819Y-62433696D01*
X197989819Y-61957506D02*
X196989819Y-61957506D01*
X196989819Y-61957506D02*
X197989819Y-61386078D01*
X197989819Y-61386078D02*
X196989819Y-61386078D01*
X196989819Y-60719411D02*
X196989819Y-60528935D01*
X196989819Y-60528935D02*
X197037438Y-60433697D01*
X197037438Y-60433697D02*
X197132676Y-60338459D01*
X197132676Y-60338459D02*
X197323152Y-60290840D01*
X197323152Y-60290840D02*
X197656485Y-60290840D01*
X197656485Y-60290840D02*
X197846961Y-60338459D01*
X197846961Y-60338459D02*
X197942200Y-60433697D01*
X197942200Y-60433697D02*
X197989819Y-60528935D01*
X197989819Y-60528935D02*
X197989819Y-60719411D01*
X197989819Y-60719411D02*
X197942200Y-60814649D01*
X197942200Y-60814649D02*
X197846961Y-60909887D01*
X197846961Y-60909887D02*
X197656485Y-60957506D01*
X197656485Y-60957506D02*
X197323152Y-60957506D01*
X197323152Y-60957506D02*
X197132676Y-60909887D01*
X197132676Y-60909887D02*
X197037438Y-60814649D01*
X197037438Y-60814649D02*
X196989819Y-60719411D01*
X198370771Y-58814649D02*
X198323152Y-58862268D01*
X198323152Y-58862268D02*
X198180295Y-58957506D01*
X198180295Y-58957506D02*
X198085057Y-59005125D01*
X198085057Y-59005125D02*
X197942200Y-59052744D01*
X197942200Y-59052744D02*
X197704104Y-59100363D01*
X197704104Y-59100363D02*
X197513628Y-59100363D01*
X197513628Y-59100363D02*
X197275533Y-59052744D01*
X197275533Y-59052744D02*
X197132676Y-59005125D01*
X197132676Y-59005125D02*
X197037438Y-58957506D01*
X197037438Y-58957506D02*
X196894580Y-58862268D01*
X196894580Y-58862268D02*
X196846961Y-58814649D01*
X196989819Y-58243220D02*
X196989819Y-58147982D01*
X196989819Y-58147982D02*
X197037438Y-58052744D01*
X197037438Y-58052744D02*
X197085057Y-58005125D01*
X197085057Y-58005125D02*
X197180295Y-57957506D01*
X197180295Y-57957506D02*
X197370771Y-57909887D01*
X197370771Y-57909887D02*
X197608866Y-57909887D01*
X197608866Y-57909887D02*
X197799342Y-57957506D01*
X197799342Y-57957506D02*
X197894580Y-58005125D01*
X197894580Y-58005125D02*
X197942200Y-58052744D01*
X197942200Y-58052744D02*
X197989819Y-58147982D01*
X197989819Y-58147982D02*
X197989819Y-58243220D01*
X197989819Y-58243220D02*
X197942200Y-58338458D01*
X197942200Y-58338458D02*
X197894580Y-58386077D01*
X197894580Y-58386077D02*
X197799342Y-58433696D01*
X197799342Y-58433696D02*
X197608866Y-58481315D01*
X197608866Y-58481315D02*
X197370771Y-58481315D01*
X197370771Y-58481315D02*
X197180295Y-58433696D01*
X197180295Y-58433696D02*
X197085057Y-58386077D01*
X197085057Y-58386077D02*
X197037438Y-58338458D01*
X197037438Y-58338458D02*
X196989819Y-58243220D01*
X197894580Y-57481315D02*
X197942200Y-57433696D01*
X197942200Y-57433696D02*
X197989819Y-57481315D01*
X197989819Y-57481315D02*
X197942200Y-57528934D01*
X197942200Y-57528934D02*
X197894580Y-57481315D01*
X197894580Y-57481315D02*
X197989819Y-57481315D01*
X197323152Y-56576554D02*
X197989819Y-56576554D01*
X196942200Y-56814649D02*
X197656485Y-57052744D01*
X197656485Y-57052744D02*
X197656485Y-56433697D01*
X198370771Y-56147982D02*
X198323152Y-56100363D01*
X198323152Y-56100363D02*
X198180295Y-56005125D01*
X198180295Y-56005125D02*
X198085057Y-55957506D01*
X198085057Y-55957506D02*
X197942200Y-55909887D01*
X197942200Y-55909887D02*
X197704104Y-55862268D01*
X197704104Y-55862268D02*
X197513628Y-55862268D01*
X197513628Y-55862268D02*
X197275533Y-55909887D01*
X197275533Y-55909887D02*
X197132676Y-55957506D01*
X197132676Y-55957506D02*
X197037438Y-56005125D01*
X197037438Y-56005125D02*
X196894580Y-56100363D01*
X196894580Y-56100363D02*
X196846961Y-56147982D01*
X162615601Y-111620105D02*
X162520363Y-111539153D01*
X162520363Y-111539153D02*
X162377506Y-111539153D01*
X162377506Y-111539153D02*
X162234649Y-111620105D01*
X162234649Y-111620105D02*
X162139411Y-111782010D01*
X162139411Y-111782010D02*
X162091792Y-111943915D01*
X162091792Y-111943915D02*
X162044173Y-112267724D01*
X162044173Y-112267724D02*
X162044173Y-112510581D01*
X162044173Y-112510581D02*
X162091792Y-112834391D01*
X162091792Y-112834391D02*
X162139411Y-112996296D01*
X162139411Y-112996296D02*
X162234649Y-113158201D01*
X162234649Y-113158201D02*
X162377506Y-113239153D01*
X162377506Y-113239153D02*
X162472744Y-113239153D01*
X162472744Y-113239153D02*
X162615601Y-113158201D01*
X162615601Y-113158201D02*
X162663220Y-113077248D01*
X162663220Y-113077248D02*
X162663220Y-112510581D01*
X162663220Y-112510581D02*
X162472744Y-112510581D01*
X163091792Y-113239153D02*
X163091792Y-111539153D01*
X163091792Y-111539153D02*
X163663220Y-113239153D01*
X163663220Y-113239153D02*
X163663220Y-111539153D01*
X164139411Y-113239153D02*
X164139411Y-111539153D01*
X164139411Y-111539153D02*
X164377506Y-111539153D01*
X164377506Y-111539153D02*
X164520363Y-111620105D01*
X164520363Y-111620105D02*
X164615601Y-111782010D01*
X164615601Y-111782010D02*
X164663220Y-111943915D01*
X164663220Y-111943915D02*
X164710839Y-112267724D01*
X164710839Y-112267724D02*
X164710839Y-112510581D01*
X164710839Y-112510581D02*
X164663220Y-112834391D01*
X164663220Y-112834391D02*
X164615601Y-112996296D01*
X164615601Y-112996296D02*
X164520363Y-113158201D01*
X164520363Y-113158201D02*
X164377506Y-113239153D01*
X164377506Y-113239153D02*
X164139411Y-113239153D01*
X162615601Y-114357105D02*
X162520363Y-114276153D01*
X162520363Y-114276153D02*
X162377506Y-114276153D01*
X162377506Y-114276153D02*
X162234649Y-114357105D01*
X162234649Y-114357105D02*
X162139411Y-114519010D01*
X162139411Y-114519010D02*
X162091792Y-114680915D01*
X162091792Y-114680915D02*
X162044173Y-115004724D01*
X162044173Y-115004724D02*
X162044173Y-115247581D01*
X162044173Y-115247581D02*
X162091792Y-115571391D01*
X162091792Y-115571391D02*
X162139411Y-115733296D01*
X162139411Y-115733296D02*
X162234649Y-115895201D01*
X162234649Y-115895201D02*
X162377506Y-115976153D01*
X162377506Y-115976153D02*
X162472744Y-115976153D01*
X162472744Y-115976153D02*
X162615601Y-115895201D01*
X162615601Y-115895201D02*
X162663220Y-115814248D01*
X162663220Y-115814248D02*
X162663220Y-115247581D01*
X162663220Y-115247581D02*
X162472744Y-115247581D01*
X163091792Y-115976153D02*
X163091792Y-114276153D01*
X163091792Y-114276153D02*
X163663220Y-115976153D01*
X163663220Y-115976153D02*
X163663220Y-114276153D01*
X164139411Y-115976153D02*
X164139411Y-114276153D01*
X164139411Y-114276153D02*
X164377506Y-114276153D01*
X164377506Y-114276153D02*
X164520363Y-114357105D01*
X164520363Y-114357105D02*
X164615601Y-114519010D01*
X164615601Y-114519010D02*
X164663220Y-114680915D01*
X164663220Y-114680915D02*
X164710839Y-115004724D01*
X164710839Y-115004724D02*
X164710839Y-115247581D01*
X164710839Y-115247581D02*
X164663220Y-115571391D01*
X164663220Y-115571391D02*
X164615601Y-115733296D01*
X164615601Y-115733296D02*
X164520363Y-115895201D01*
X164520363Y-115895201D02*
X164377506Y-115976153D01*
X164377506Y-115976153D02*
X164139411Y-115976153D01*
X162615601Y-117094105D02*
X162520363Y-117013153D01*
X162520363Y-117013153D02*
X162377506Y-117013153D01*
X162377506Y-117013153D02*
X162234649Y-117094105D01*
X162234649Y-117094105D02*
X162139411Y-117256010D01*
X162139411Y-117256010D02*
X162091792Y-117417915D01*
X162091792Y-117417915D02*
X162044173Y-117741724D01*
X162044173Y-117741724D02*
X162044173Y-117984581D01*
X162044173Y-117984581D02*
X162091792Y-118308391D01*
X162091792Y-118308391D02*
X162139411Y-118470296D01*
X162139411Y-118470296D02*
X162234649Y-118632201D01*
X162234649Y-118632201D02*
X162377506Y-118713153D01*
X162377506Y-118713153D02*
X162472744Y-118713153D01*
X162472744Y-118713153D02*
X162615601Y-118632201D01*
X162615601Y-118632201D02*
X162663220Y-118551248D01*
X162663220Y-118551248D02*
X162663220Y-117984581D01*
X162663220Y-117984581D02*
X162472744Y-117984581D01*
X163091792Y-118713153D02*
X163091792Y-117013153D01*
X163091792Y-117013153D02*
X163663220Y-118713153D01*
X163663220Y-118713153D02*
X163663220Y-117013153D01*
X164139411Y-118713153D02*
X164139411Y-117013153D01*
X164139411Y-117013153D02*
X164377506Y-117013153D01*
X164377506Y-117013153D02*
X164520363Y-117094105D01*
X164520363Y-117094105D02*
X164615601Y-117256010D01*
X164615601Y-117256010D02*
X164663220Y-117417915D01*
X164663220Y-117417915D02*
X164710839Y-117741724D01*
X164710839Y-117741724D02*
X164710839Y-117984581D01*
X164710839Y-117984581D02*
X164663220Y-118308391D01*
X164663220Y-118308391D02*
X164615601Y-118470296D01*
X164615601Y-118470296D02*
X164520363Y-118632201D01*
X164520363Y-118632201D02*
X164377506Y-118713153D01*
X164377506Y-118713153D02*
X164139411Y-118713153D01*
X162615601Y-119831105D02*
X162520363Y-119750153D01*
X162520363Y-119750153D02*
X162377506Y-119750153D01*
X162377506Y-119750153D02*
X162234649Y-119831105D01*
X162234649Y-119831105D02*
X162139411Y-119993010D01*
X162139411Y-119993010D02*
X162091792Y-120154915D01*
X162091792Y-120154915D02*
X162044173Y-120478724D01*
X162044173Y-120478724D02*
X162044173Y-120721581D01*
X162044173Y-120721581D02*
X162091792Y-121045391D01*
X162091792Y-121045391D02*
X162139411Y-121207296D01*
X162139411Y-121207296D02*
X162234649Y-121369201D01*
X162234649Y-121369201D02*
X162377506Y-121450153D01*
X162377506Y-121450153D02*
X162472744Y-121450153D01*
X162472744Y-121450153D02*
X162615601Y-121369201D01*
X162615601Y-121369201D02*
X162663220Y-121288248D01*
X162663220Y-121288248D02*
X162663220Y-120721581D01*
X162663220Y-120721581D02*
X162472744Y-120721581D01*
X163091792Y-121450153D02*
X163091792Y-119750153D01*
X163091792Y-119750153D02*
X163663220Y-121450153D01*
X163663220Y-121450153D02*
X163663220Y-119750153D01*
X164139411Y-121450153D02*
X164139411Y-119750153D01*
X164139411Y-119750153D02*
X164377506Y-119750153D01*
X164377506Y-119750153D02*
X164520363Y-119831105D01*
X164520363Y-119831105D02*
X164615601Y-119993010D01*
X164615601Y-119993010D02*
X164663220Y-120154915D01*
X164663220Y-120154915D02*
X164710839Y-120478724D01*
X164710839Y-120478724D02*
X164710839Y-120721581D01*
X164710839Y-120721581D02*
X164663220Y-121045391D01*
X164663220Y-121045391D02*
X164615601Y-121207296D01*
X164615601Y-121207296D02*
X164520363Y-121369201D01*
X164520363Y-121369201D02*
X164377506Y-121450153D01*
X164377506Y-121450153D02*
X164139411Y-121450153D01*
X181946779Y-78187153D02*
X181946779Y-76487153D01*
X182422969Y-78187153D02*
X182422969Y-76487153D01*
X182422969Y-76487153D02*
X182661064Y-76487153D01*
X182661064Y-76487153D02*
X182803921Y-76568105D01*
X182803921Y-76568105D02*
X182899159Y-76730010D01*
X182899159Y-76730010D02*
X182946778Y-76891915D01*
X182946778Y-76891915D02*
X182994397Y-77215724D01*
X182994397Y-77215724D02*
X182994397Y-77458581D01*
X182994397Y-77458581D02*
X182946778Y-77782391D01*
X182946778Y-77782391D02*
X182899159Y-77944296D01*
X182899159Y-77944296D02*
X182803921Y-78106201D01*
X182803921Y-78106201D02*
X182661064Y-78187153D01*
X182661064Y-78187153D02*
X182422969Y-78187153D01*
X183899159Y-78187153D02*
X183422969Y-78187153D01*
X183422969Y-78187153D02*
X183422969Y-76487153D01*
X184232493Y-77296677D02*
X184565826Y-77296677D01*
X184708683Y-78187153D02*
X184232493Y-78187153D01*
X184232493Y-78187153D02*
X184232493Y-76487153D01*
X184232493Y-76487153D02*
X184708683Y-76487153D01*
X186422969Y-78187153D02*
X185851541Y-78187153D01*
X186137255Y-78187153D02*
X186137255Y-76487153D01*
X186137255Y-76487153D02*
X186042017Y-76730010D01*
X186042017Y-76730010D02*
X185946779Y-76891915D01*
X185946779Y-76891915D02*
X185851541Y-76972867D01*
X187184874Y-77296677D02*
X187327731Y-77377629D01*
X187327731Y-77377629D02*
X187375350Y-77458581D01*
X187375350Y-77458581D02*
X187422969Y-77620486D01*
X187422969Y-77620486D02*
X187422969Y-77863343D01*
X187422969Y-77863343D02*
X187375350Y-78025248D01*
X187375350Y-78025248D02*
X187327731Y-78106201D01*
X187327731Y-78106201D02*
X187232493Y-78187153D01*
X187232493Y-78187153D02*
X186851541Y-78187153D01*
X186851541Y-78187153D02*
X186851541Y-76487153D01*
X186851541Y-76487153D02*
X187184874Y-76487153D01*
X187184874Y-76487153D02*
X187280112Y-76568105D01*
X187280112Y-76568105D02*
X187327731Y-76649058D01*
X187327731Y-76649058D02*
X187375350Y-76810962D01*
X187375350Y-76810962D02*
X187375350Y-76972867D01*
X187375350Y-76972867D02*
X187327731Y-77134772D01*
X187327731Y-77134772D02*
X187280112Y-77215724D01*
X187280112Y-77215724D02*
X187184874Y-77296677D01*
X187184874Y-77296677D02*
X186851541Y-77296677D01*
X181946779Y-80924153D02*
X181946779Y-79224153D01*
X182422969Y-80924153D02*
X182422969Y-79224153D01*
X182422969Y-79224153D02*
X182661064Y-79224153D01*
X182661064Y-79224153D02*
X182803921Y-79305105D01*
X182803921Y-79305105D02*
X182899159Y-79467010D01*
X182899159Y-79467010D02*
X182946778Y-79628915D01*
X182946778Y-79628915D02*
X182994397Y-79952724D01*
X182994397Y-79952724D02*
X182994397Y-80195581D01*
X182994397Y-80195581D02*
X182946778Y-80519391D01*
X182946778Y-80519391D02*
X182899159Y-80681296D01*
X182899159Y-80681296D02*
X182803921Y-80843201D01*
X182803921Y-80843201D02*
X182661064Y-80924153D01*
X182661064Y-80924153D02*
X182422969Y-80924153D01*
X183899159Y-80924153D02*
X183422969Y-80924153D01*
X183422969Y-80924153D02*
X183422969Y-79224153D01*
X184232493Y-80033677D02*
X184565826Y-80033677D01*
X184708683Y-80924153D02*
X184232493Y-80924153D01*
X184232493Y-80924153D02*
X184232493Y-79224153D01*
X184232493Y-79224153D02*
X184708683Y-79224153D01*
X186422969Y-80924153D02*
X185851541Y-80924153D01*
X186137255Y-80924153D02*
X186137255Y-79224153D01*
X186137255Y-79224153D02*
X186042017Y-79467010D01*
X186042017Y-79467010D02*
X185946779Y-79628915D01*
X185946779Y-79628915D02*
X185851541Y-79709867D01*
X186803922Y-80438439D02*
X187280112Y-80438439D01*
X186708684Y-80924153D02*
X187042017Y-79224153D01*
X187042017Y-79224153D02*
X187375350Y-80924153D01*
X181946779Y-83661153D02*
X181946779Y-81961153D01*
X182422969Y-83661153D02*
X182422969Y-81961153D01*
X182422969Y-81961153D02*
X182661064Y-81961153D01*
X182661064Y-81961153D02*
X182803921Y-82042105D01*
X182803921Y-82042105D02*
X182899159Y-82204010D01*
X182899159Y-82204010D02*
X182946778Y-82365915D01*
X182946778Y-82365915D02*
X182994397Y-82689724D01*
X182994397Y-82689724D02*
X182994397Y-82932581D01*
X182994397Y-82932581D02*
X182946778Y-83256391D01*
X182946778Y-83256391D02*
X182899159Y-83418296D01*
X182899159Y-83418296D02*
X182803921Y-83580201D01*
X182803921Y-83580201D02*
X182661064Y-83661153D01*
X182661064Y-83661153D02*
X182422969Y-83661153D01*
X183899159Y-83661153D02*
X183422969Y-83661153D01*
X183422969Y-83661153D02*
X183422969Y-81961153D01*
X184232493Y-82770677D02*
X184565826Y-82770677D01*
X184708683Y-83661153D02*
X184232493Y-83661153D01*
X184232493Y-83661153D02*
X184232493Y-81961153D01*
X184232493Y-81961153D02*
X184708683Y-81961153D01*
X185851541Y-82123058D02*
X185899160Y-82042105D01*
X185899160Y-82042105D02*
X185994398Y-81961153D01*
X185994398Y-81961153D02*
X186232493Y-81961153D01*
X186232493Y-81961153D02*
X186327731Y-82042105D01*
X186327731Y-82042105D02*
X186375350Y-82123058D01*
X186375350Y-82123058D02*
X186422969Y-82284962D01*
X186422969Y-82284962D02*
X186422969Y-82446867D01*
X186422969Y-82446867D02*
X186375350Y-82689724D01*
X186375350Y-82689724D02*
X185803922Y-83661153D01*
X185803922Y-83661153D02*
X186422969Y-83661153D01*
X186803922Y-83175439D02*
X187280112Y-83175439D01*
X186708684Y-83661153D02*
X187042017Y-81961153D01*
X187042017Y-81961153D02*
X187375350Y-83661153D01*
X181946779Y-86398153D02*
X181946779Y-84698153D01*
X182422969Y-86398153D02*
X182422969Y-84698153D01*
X182422969Y-84698153D02*
X182661064Y-84698153D01*
X182661064Y-84698153D02*
X182803921Y-84779105D01*
X182803921Y-84779105D02*
X182899159Y-84941010D01*
X182899159Y-84941010D02*
X182946778Y-85102915D01*
X182946778Y-85102915D02*
X182994397Y-85426724D01*
X182994397Y-85426724D02*
X182994397Y-85669581D01*
X182994397Y-85669581D02*
X182946778Y-85993391D01*
X182946778Y-85993391D02*
X182899159Y-86155296D01*
X182899159Y-86155296D02*
X182803921Y-86317201D01*
X182803921Y-86317201D02*
X182661064Y-86398153D01*
X182661064Y-86398153D02*
X182422969Y-86398153D01*
X183899159Y-86398153D02*
X183422969Y-86398153D01*
X183422969Y-86398153D02*
X183422969Y-84698153D01*
X184232493Y-85507677D02*
X184565826Y-85507677D01*
X184708683Y-86398153D02*
X184232493Y-86398153D01*
X184232493Y-86398153D02*
X184232493Y-84698153D01*
X184232493Y-84698153D02*
X184708683Y-84698153D01*
X185851541Y-84860058D02*
X185899160Y-84779105D01*
X185899160Y-84779105D02*
X185994398Y-84698153D01*
X185994398Y-84698153D02*
X186232493Y-84698153D01*
X186232493Y-84698153D02*
X186327731Y-84779105D01*
X186327731Y-84779105D02*
X186375350Y-84860058D01*
X186375350Y-84860058D02*
X186422969Y-85021962D01*
X186422969Y-85021962D02*
X186422969Y-85183867D01*
X186422969Y-85183867D02*
X186375350Y-85426724D01*
X186375350Y-85426724D02*
X185803922Y-86398153D01*
X185803922Y-86398153D02*
X186422969Y-86398153D01*
X187184874Y-85507677D02*
X187327731Y-85588629D01*
X187327731Y-85588629D02*
X187375350Y-85669581D01*
X187375350Y-85669581D02*
X187422969Y-85831486D01*
X187422969Y-85831486D02*
X187422969Y-86074343D01*
X187422969Y-86074343D02*
X187375350Y-86236248D01*
X187375350Y-86236248D02*
X187327731Y-86317201D01*
X187327731Y-86317201D02*
X187232493Y-86398153D01*
X187232493Y-86398153D02*
X186851541Y-86398153D01*
X186851541Y-86398153D02*
X186851541Y-84698153D01*
X186851541Y-84698153D02*
X187184874Y-84698153D01*
X187184874Y-84698153D02*
X187280112Y-84779105D01*
X187280112Y-84779105D02*
X187327731Y-84860058D01*
X187327731Y-84860058D02*
X187375350Y-85021962D01*
X187375350Y-85021962D02*
X187375350Y-85183867D01*
X187375350Y-85183867D02*
X187327731Y-85345772D01*
X187327731Y-85345772D02*
X187280112Y-85426724D01*
X187280112Y-85426724D02*
X187184874Y-85507677D01*
X187184874Y-85507677D02*
X186851541Y-85507677D01*
X158425125Y-54819153D02*
X158425125Y-53119153D01*
X158901315Y-54819153D02*
X158901315Y-53119153D01*
X158901315Y-53119153D02*
X159472743Y-54819153D01*
X159472743Y-54819153D02*
X159472743Y-53119153D01*
X160234648Y-53119153D02*
X160234648Y-54333439D01*
X160234648Y-54333439D02*
X160187029Y-54576296D01*
X160187029Y-54576296D02*
X160091791Y-54738201D01*
X160091791Y-54738201D02*
X159948934Y-54819153D01*
X159948934Y-54819153D02*
X159853696Y-54819153D01*
X161996553Y-54819153D02*
X161425125Y-54819153D01*
X161710839Y-54819153D02*
X161710839Y-53119153D01*
X161710839Y-53119153D02*
X161615601Y-53362010D01*
X161615601Y-53362010D02*
X161520363Y-53523915D01*
X161520363Y-53523915D02*
X161425125Y-53604867D01*
X163187030Y-54819153D02*
X163187030Y-53119153D01*
X163187030Y-53119153D02*
X163567982Y-53119153D01*
X163567982Y-53119153D02*
X163663220Y-53200105D01*
X163663220Y-53200105D02*
X163710839Y-53281058D01*
X163710839Y-53281058D02*
X163758458Y-53442962D01*
X163758458Y-53442962D02*
X163758458Y-53685820D01*
X163758458Y-53685820D02*
X163710839Y-53847724D01*
X163710839Y-53847724D02*
X163663220Y-53928677D01*
X163663220Y-53928677D02*
X163567982Y-54009629D01*
X163567982Y-54009629D02*
X163187030Y-54009629D01*
X164710839Y-54819153D02*
X164139411Y-54819153D01*
X164425125Y-54819153D02*
X164425125Y-53119153D01*
X164425125Y-53119153D02*
X164329887Y-53362010D01*
X164329887Y-53362010D02*
X164234649Y-53523915D01*
X164234649Y-53523915D02*
X164139411Y-53604867D01*
X158425125Y-57556153D02*
X158425125Y-55856153D01*
X158901315Y-57556153D02*
X158901315Y-55856153D01*
X158901315Y-55856153D02*
X159472743Y-57556153D01*
X159472743Y-57556153D02*
X159472743Y-55856153D01*
X160234648Y-55856153D02*
X160234648Y-57070439D01*
X160234648Y-57070439D02*
X160187029Y-57313296D01*
X160187029Y-57313296D02*
X160091791Y-57475201D01*
X160091791Y-57475201D02*
X159948934Y-57556153D01*
X159948934Y-57556153D02*
X159853696Y-57556153D01*
X161425125Y-56018058D02*
X161472744Y-55937105D01*
X161472744Y-55937105D02*
X161567982Y-55856153D01*
X161567982Y-55856153D02*
X161806077Y-55856153D01*
X161806077Y-55856153D02*
X161901315Y-55937105D01*
X161901315Y-55937105D02*
X161948934Y-56018058D01*
X161948934Y-56018058D02*
X161996553Y-56179962D01*
X161996553Y-56179962D02*
X161996553Y-56341867D01*
X161996553Y-56341867D02*
X161948934Y-56584724D01*
X161948934Y-56584724D02*
X161377506Y-57556153D01*
X161377506Y-57556153D02*
X161996553Y-57556153D01*
X163187030Y-57556153D02*
X163187030Y-55856153D01*
X163187030Y-55856153D02*
X163567982Y-55856153D01*
X163567982Y-55856153D02*
X163663220Y-55937105D01*
X163663220Y-55937105D02*
X163710839Y-56018058D01*
X163710839Y-56018058D02*
X163758458Y-56179962D01*
X163758458Y-56179962D02*
X163758458Y-56422820D01*
X163758458Y-56422820D02*
X163710839Y-56584724D01*
X163710839Y-56584724D02*
X163663220Y-56665677D01*
X163663220Y-56665677D02*
X163567982Y-56746629D01*
X163567982Y-56746629D02*
X163187030Y-56746629D01*
X164710839Y-57556153D02*
X164139411Y-57556153D01*
X164425125Y-57556153D02*
X164425125Y-55856153D01*
X164425125Y-55856153D02*
X164329887Y-56099010D01*
X164329887Y-56099010D02*
X164234649Y-56260915D01*
X164234649Y-56260915D02*
X164139411Y-56341867D01*
X158425125Y-60293153D02*
X158425125Y-58593153D01*
X158901315Y-60293153D02*
X158901315Y-58593153D01*
X158901315Y-58593153D02*
X159472743Y-60293153D01*
X159472743Y-60293153D02*
X159472743Y-58593153D01*
X160234648Y-58593153D02*
X160234648Y-59807439D01*
X160234648Y-59807439D02*
X160187029Y-60050296D01*
X160187029Y-60050296D02*
X160091791Y-60212201D01*
X160091791Y-60212201D02*
X159948934Y-60293153D01*
X159948934Y-60293153D02*
X159853696Y-60293153D01*
X161377506Y-58593153D02*
X161996553Y-58593153D01*
X161996553Y-58593153D02*
X161663220Y-59240772D01*
X161663220Y-59240772D02*
X161806077Y-59240772D01*
X161806077Y-59240772D02*
X161901315Y-59321724D01*
X161901315Y-59321724D02*
X161948934Y-59402677D01*
X161948934Y-59402677D02*
X161996553Y-59564581D01*
X161996553Y-59564581D02*
X161996553Y-59969343D01*
X161996553Y-59969343D02*
X161948934Y-60131248D01*
X161948934Y-60131248D02*
X161901315Y-60212201D01*
X161901315Y-60212201D02*
X161806077Y-60293153D01*
X161806077Y-60293153D02*
X161520363Y-60293153D01*
X161520363Y-60293153D02*
X161425125Y-60212201D01*
X161425125Y-60212201D02*
X161377506Y-60131248D01*
X163187030Y-60293153D02*
X163187030Y-58593153D01*
X163187030Y-58593153D02*
X163567982Y-58593153D01*
X163567982Y-58593153D02*
X163663220Y-58674105D01*
X163663220Y-58674105D02*
X163710839Y-58755058D01*
X163710839Y-58755058D02*
X163758458Y-58916962D01*
X163758458Y-58916962D02*
X163758458Y-59159820D01*
X163758458Y-59159820D02*
X163710839Y-59321724D01*
X163710839Y-59321724D02*
X163663220Y-59402677D01*
X163663220Y-59402677D02*
X163567982Y-59483629D01*
X163567982Y-59483629D02*
X163187030Y-59483629D01*
X164710839Y-60293153D02*
X164139411Y-60293153D01*
X164425125Y-60293153D02*
X164425125Y-58593153D01*
X164425125Y-58593153D02*
X164329887Y-58836010D01*
X164329887Y-58836010D02*
X164234649Y-58997915D01*
X164234649Y-58997915D02*
X164139411Y-59078867D01*
X158425125Y-63030153D02*
X158425125Y-61330153D01*
X158901315Y-63030153D02*
X158901315Y-61330153D01*
X158901315Y-61330153D02*
X159472743Y-63030153D01*
X159472743Y-63030153D02*
X159472743Y-61330153D01*
X160234648Y-61330153D02*
X160234648Y-62544439D01*
X160234648Y-62544439D02*
X160187029Y-62787296D01*
X160187029Y-62787296D02*
X160091791Y-62949201D01*
X160091791Y-62949201D02*
X159948934Y-63030153D01*
X159948934Y-63030153D02*
X159853696Y-63030153D01*
X161377506Y-61330153D02*
X161996553Y-61330153D01*
X161996553Y-61330153D02*
X161663220Y-61977772D01*
X161663220Y-61977772D02*
X161806077Y-61977772D01*
X161806077Y-61977772D02*
X161901315Y-62058724D01*
X161901315Y-62058724D02*
X161948934Y-62139677D01*
X161948934Y-62139677D02*
X161996553Y-62301581D01*
X161996553Y-62301581D02*
X161996553Y-62706343D01*
X161996553Y-62706343D02*
X161948934Y-62868248D01*
X161948934Y-62868248D02*
X161901315Y-62949201D01*
X161901315Y-62949201D02*
X161806077Y-63030153D01*
X161806077Y-63030153D02*
X161520363Y-63030153D01*
X161520363Y-63030153D02*
X161425125Y-62949201D01*
X161425125Y-62949201D02*
X161377506Y-62868248D01*
X163187030Y-63030153D02*
X163187030Y-61330153D01*
X163187030Y-61330153D02*
X163567982Y-61330153D01*
X163567982Y-61330153D02*
X163663220Y-61411105D01*
X163663220Y-61411105D02*
X163710839Y-61492058D01*
X163710839Y-61492058D02*
X163758458Y-61653962D01*
X163758458Y-61653962D02*
X163758458Y-61896820D01*
X163758458Y-61896820D02*
X163710839Y-62058724D01*
X163710839Y-62058724D02*
X163663220Y-62139677D01*
X163663220Y-62139677D02*
X163567982Y-62220629D01*
X163567982Y-62220629D02*
X163187030Y-62220629D01*
X164139411Y-61492058D02*
X164187030Y-61411105D01*
X164187030Y-61411105D02*
X164282268Y-61330153D01*
X164282268Y-61330153D02*
X164520363Y-61330153D01*
X164520363Y-61330153D02*
X164615601Y-61411105D01*
X164615601Y-61411105D02*
X164663220Y-61492058D01*
X164663220Y-61492058D02*
X164710839Y-61653962D01*
X164710839Y-61653962D02*
X164710839Y-61815867D01*
X164710839Y-61815867D02*
X164663220Y-62058724D01*
X164663220Y-62058724D02*
X164091792Y-63030153D01*
X164091792Y-63030153D02*
X164710839Y-63030153D01*
X181946779Y-54819153D02*
X181946779Y-53119153D01*
X182422969Y-54819153D02*
X182422969Y-53119153D01*
X182422969Y-53119153D02*
X182994397Y-54819153D01*
X182994397Y-54819153D02*
X182994397Y-53119153D01*
X183756302Y-53119153D02*
X183756302Y-54333439D01*
X183756302Y-54333439D02*
X183708683Y-54576296D01*
X183708683Y-54576296D02*
X183613445Y-54738201D01*
X183613445Y-54738201D02*
X183470588Y-54819153D01*
X183470588Y-54819153D02*
X183375350Y-54819153D01*
X185518207Y-54819153D02*
X184946779Y-54819153D01*
X185232493Y-54819153D02*
X185232493Y-53119153D01*
X185232493Y-53119153D02*
X185137255Y-53362010D01*
X185137255Y-53362010D02*
X185042017Y-53523915D01*
X185042017Y-53523915D02*
X184946779Y-53604867D01*
X186708684Y-54819153D02*
X186708684Y-53119153D01*
X186708684Y-53119153D02*
X187089636Y-53119153D01*
X187089636Y-53119153D02*
X187184874Y-53200105D01*
X187184874Y-53200105D02*
X187232493Y-53281058D01*
X187232493Y-53281058D02*
X187280112Y-53442962D01*
X187280112Y-53442962D02*
X187280112Y-53685820D01*
X187280112Y-53685820D02*
X187232493Y-53847724D01*
X187232493Y-53847724D02*
X187184874Y-53928677D01*
X187184874Y-53928677D02*
X187089636Y-54009629D01*
X187089636Y-54009629D02*
X186708684Y-54009629D01*
X187661065Y-53281058D02*
X187708684Y-53200105D01*
X187708684Y-53200105D02*
X187803922Y-53119153D01*
X187803922Y-53119153D02*
X188042017Y-53119153D01*
X188042017Y-53119153D02*
X188137255Y-53200105D01*
X188137255Y-53200105D02*
X188184874Y-53281058D01*
X188184874Y-53281058D02*
X188232493Y-53442962D01*
X188232493Y-53442962D02*
X188232493Y-53604867D01*
X188232493Y-53604867D02*
X188184874Y-53847724D01*
X188184874Y-53847724D02*
X187613446Y-54819153D01*
X187613446Y-54819153D02*
X188232493Y-54819153D01*
X181946779Y-57556153D02*
X181946779Y-55856153D01*
X182422969Y-57556153D02*
X182422969Y-55856153D01*
X182422969Y-55856153D02*
X182994397Y-57556153D01*
X182994397Y-57556153D02*
X182994397Y-55856153D01*
X183756302Y-55856153D02*
X183756302Y-57070439D01*
X183756302Y-57070439D02*
X183708683Y-57313296D01*
X183708683Y-57313296D02*
X183613445Y-57475201D01*
X183613445Y-57475201D02*
X183470588Y-57556153D01*
X183470588Y-57556153D02*
X183375350Y-57556153D01*
X184946779Y-56018058D02*
X184994398Y-55937105D01*
X184994398Y-55937105D02*
X185089636Y-55856153D01*
X185089636Y-55856153D02*
X185327731Y-55856153D01*
X185327731Y-55856153D02*
X185422969Y-55937105D01*
X185422969Y-55937105D02*
X185470588Y-56018058D01*
X185470588Y-56018058D02*
X185518207Y-56179962D01*
X185518207Y-56179962D02*
X185518207Y-56341867D01*
X185518207Y-56341867D02*
X185470588Y-56584724D01*
X185470588Y-56584724D02*
X184899160Y-57556153D01*
X184899160Y-57556153D02*
X185518207Y-57556153D01*
X186708684Y-57556153D02*
X186708684Y-55856153D01*
X186708684Y-55856153D02*
X187089636Y-55856153D01*
X187089636Y-55856153D02*
X187184874Y-55937105D01*
X187184874Y-55937105D02*
X187232493Y-56018058D01*
X187232493Y-56018058D02*
X187280112Y-56179962D01*
X187280112Y-56179962D02*
X187280112Y-56422820D01*
X187280112Y-56422820D02*
X187232493Y-56584724D01*
X187232493Y-56584724D02*
X187184874Y-56665677D01*
X187184874Y-56665677D02*
X187089636Y-56746629D01*
X187089636Y-56746629D02*
X186708684Y-56746629D01*
X187661065Y-56018058D02*
X187708684Y-55937105D01*
X187708684Y-55937105D02*
X187803922Y-55856153D01*
X187803922Y-55856153D02*
X188042017Y-55856153D01*
X188042017Y-55856153D02*
X188137255Y-55937105D01*
X188137255Y-55937105D02*
X188184874Y-56018058D01*
X188184874Y-56018058D02*
X188232493Y-56179962D01*
X188232493Y-56179962D02*
X188232493Y-56341867D01*
X188232493Y-56341867D02*
X188184874Y-56584724D01*
X188184874Y-56584724D02*
X187613446Y-57556153D01*
X187613446Y-57556153D02*
X188232493Y-57556153D01*
X181803922Y-58593153D02*
X182137255Y-60293153D01*
X182137255Y-60293153D02*
X182470588Y-58593153D01*
X182661065Y-58593153D02*
X182994398Y-60293153D01*
X182994398Y-60293153D02*
X183327731Y-58593153D01*
X183518208Y-58593153D02*
X184089636Y-58593153D01*
X183803922Y-60293153D02*
X183803922Y-58593153D01*
X181946779Y-63030153D02*
X181946779Y-61330153D01*
X181946779Y-61330153D02*
X182327731Y-61330153D01*
X182327731Y-61330153D02*
X182422969Y-61411105D01*
X182422969Y-61411105D02*
X182470588Y-61492058D01*
X182470588Y-61492058D02*
X182518207Y-61653962D01*
X182518207Y-61653962D02*
X182518207Y-61896820D01*
X182518207Y-61896820D02*
X182470588Y-62058724D01*
X182470588Y-62058724D02*
X182422969Y-62139677D01*
X182422969Y-62139677D02*
X182327731Y-62220629D01*
X182327731Y-62220629D02*
X181946779Y-62220629D01*
X182851541Y-61330153D02*
X183089636Y-63030153D01*
X183089636Y-63030153D02*
X183280112Y-61815867D01*
X183280112Y-61815867D02*
X183470588Y-63030153D01*
X183470588Y-63030153D02*
X183708684Y-61330153D01*
X184089636Y-63030153D02*
X184089636Y-61330153D01*
X184089636Y-61330153D02*
X184422969Y-62544439D01*
X184422969Y-62544439D02*
X184756302Y-61330153D01*
X184756302Y-61330153D02*
X184756302Y-63030153D01*
X185994398Y-63030153D02*
X185994398Y-61330153D01*
X186470588Y-63030153D02*
X186470588Y-61330153D01*
X186470588Y-61330153D02*
X186708683Y-61330153D01*
X186708683Y-61330153D02*
X186851540Y-61411105D01*
X186851540Y-61411105D02*
X186946778Y-61573010D01*
X186946778Y-61573010D02*
X186994397Y-61734915D01*
X186994397Y-61734915D02*
X187042016Y-62058724D01*
X187042016Y-62058724D02*
X187042016Y-62301581D01*
X187042016Y-62301581D02*
X186994397Y-62625391D01*
X186994397Y-62625391D02*
X186946778Y-62787296D01*
X186946778Y-62787296D02*
X186851540Y-62949201D01*
X186851540Y-62949201D02*
X186708683Y-63030153D01*
X186708683Y-63030153D02*
X186470588Y-63030153D01*
X187946778Y-63030153D02*
X187470588Y-63030153D01*
X187470588Y-63030153D02*
X187470588Y-61330153D01*
X188280112Y-62139677D02*
X188613445Y-62139677D01*
X188756302Y-63030153D02*
X188280112Y-63030153D01*
X188280112Y-63030153D02*
X188280112Y-61330153D01*
X188280112Y-61330153D02*
X188756302Y-61330153D01*
X182422969Y-111539153D02*
X181946779Y-111539153D01*
X181946779Y-111539153D02*
X181899160Y-112348677D01*
X181899160Y-112348677D02*
X181946779Y-112267724D01*
X181946779Y-112267724D02*
X182042017Y-112186772D01*
X182042017Y-112186772D02*
X182280112Y-112186772D01*
X182280112Y-112186772D02*
X182375350Y-112267724D01*
X182375350Y-112267724D02*
X182422969Y-112348677D01*
X182422969Y-112348677D02*
X182470588Y-112510581D01*
X182470588Y-112510581D02*
X182470588Y-112915343D01*
X182470588Y-112915343D02*
X182422969Y-113077248D01*
X182422969Y-113077248D02*
X182375350Y-113158201D01*
X182375350Y-113158201D02*
X182280112Y-113239153D01*
X182280112Y-113239153D02*
X182042017Y-113239153D01*
X182042017Y-113239153D02*
X181946779Y-113158201D01*
X181946779Y-113158201D02*
X181899160Y-113077248D01*
X182756303Y-111539153D02*
X183089636Y-113239153D01*
X183089636Y-113239153D02*
X183422969Y-111539153D01*
X182422969Y-114276153D02*
X181946779Y-114276153D01*
X181946779Y-114276153D02*
X181899160Y-115085677D01*
X181899160Y-115085677D02*
X181946779Y-115004724D01*
X181946779Y-115004724D02*
X182042017Y-114923772D01*
X182042017Y-114923772D02*
X182280112Y-114923772D01*
X182280112Y-114923772D02*
X182375350Y-115004724D01*
X182375350Y-115004724D02*
X182422969Y-115085677D01*
X182422969Y-115085677D02*
X182470588Y-115247581D01*
X182470588Y-115247581D02*
X182470588Y-115652343D01*
X182470588Y-115652343D02*
X182422969Y-115814248D01*
X182422969Y-115814248D02*
X182375350Y-115895201D01*
X182375350Y-115895201D02*
X182280112Y-115976153D01*
X182280112Y-115976153D02*
X182042017Y-115976153D01*
X182042017Y-115976153D02*
X181946779Y-115895201D01*
X181946779Y-115895201D02*
X181899160Y-115814248D01*
X182756303Y-114276153D02*
X183089636Y-115976153D01*
X183089636Y-115976153D02*
X183422969Y-114276153D01*
X182422969Y-117013153D02*
X181946779Y-117013153D01*
X181946779Y-117013153D02*
X181899160Y-117822677D01*
X181899160Y-117822677D02*
X181946779Y-117741724D01*
X181946779Y-117741724D02*
X182042017Y-117660772D01*
X182042017Y-117660772D02*
X182280112Y-117660772D01*
X182280112Y-117660772D02*
X182375350Y-117741724D01*
X182375350Y-117741724D02*
X182422969Y-117822677D01*
X182422969Y-117822677D02*
X182470588Y-117984581D01*
X182470588Y-117984581D02*
X182470588Y-118389343D01*
X182470588Y-118389343D02*
X182422969Y-118551248D01*
X182422969Y-118551248D02*
X182375350Y-118632201D01*
X182375350Y-118632201D02*
X182280112Y-118713153D01*
X182280112Y-118713153D02*
X182042017Y-118713153D01*
X182042017Y-118713153D02*
X181946779Y-118632201D01*
X181946779Y-118632201D02*
X181899160Y-118551248D01*
X182756303Y-117013153D02*
X183089636Y-118713153D01*
X183089636Y-118713153D02*
X183422969Y-117013153D01*
X182422969Y-119750153D02*
X181946779Y-119750153D01*
X181946779Y-119750153D02*
X181899160Y-120559677D01*
X181899160Y-120559677D02*
X181946779Y-120478724D01*
X181946779Y-120478724D02*
X182042017Y-120397772D01*
X182042017Y-120397772D02*
X182280112Y-120397772D01*
X182280112Y-120397772D02*
X182375350Y-120478724D01*
X182375350Y-120478724D02*
X182422969Y-120559677D01*
X182422969Y-120559677D02*
X182470588Y-120721581D01*
X182470588Y-120721581D02*
X182470588Y-121126343D01*
X182470588Y-121126343D02*
X182422969Y-121288248D01*
X182422969Y-121288248D02*
X182375350Y-121369201D01*
X182375350Y-121369201D02*
X182280112Y-121450153D01*
X182280112Y-121450153D02*
X182042017Y-121450153D01*
X182042017Y-121450153D02*
X181946779Y-121369201D01*
X181946779Y-121369201D02*
X181899160Y-121288248D01*
X182756303Y-119750153D02*
X183089636Y-121450153D01*
X183089636Y-121450153D02*
X183422969Y-119750153D01*
X158425125Y-66503153D02*
X158425125Y-64803153D01*
X158901315Y-66503153D02*
X158901315Y-64803153D01*
X158901315Y-64803153D02*
X159472743Y-66503153D01*
X159472743Y-66503153D02*
X159472743Y-64803153D01*
X160234648Y-64803153D02*
X160234648Y-66017439D01*
X160234648Y-66017439D02*
X160187029Y-66260296D01*
X160187029Y-66260296D02*
X160091791Y-66422201D01*
X160091791Y-66422201D02*
X159948934Y-66503153D01*
X159948934Y-66503153D02*
X159853696Y-66503153D01*
X161901315Y-65369820D02*
X161901315Y-66503153D01*
X161663220Y-64722201D02*
X161425125Y-65936486D01*
X161425125Y-65936486D02*
X162044172Y-65936486D01*
X163187030Y-66503153D02*
X163187030Y-64803153D01*
X163187030Y-64803153D02*
X163567982Y-64803153D01*
X163567982Y-64803153D02*
X163663220Y-64884105D01*
X163663220Y-64884105D02*
X163710839Y-64965058D01*
X163710839Y-64965058D02*
X163758458Y-65126962D01*
X163758458Y-65126962D02*
X163758458Y-65369820D01*
X163758458Y-65369820D02*
X163710839Y-65531724D01*
X163710839Y-65531724D02*
X163663220Y-65612677D01*
X163663220Y-65612677D02*
X163567982Y-65693629D01*
X163567982Y-65693629D02*
X163187030Y-65693629D01*
X164710839Y-66503153D02*
X164139411Y-66503153D01*
X164425125Y-66503153D02*
X164425125Y-64803153D01*
X164425125Y-64803153D02*
X164329887Y-65046010D01*
X164329887Y-65046010D02*
X164234649Y-65207915D01*
X164234649Y-65207915D02*
X164139411Y-65288867D01*
X158425125Y-69240153D02*
X158425125Y-67540153D01*
X158901315Y-69240153D02*
X158901315Y-67540153D01*
X158901315Y-67540153D02*
X159472743Y-69240153D01*
X159472743Y-69240153D02*
X159472743Y-67540153D01*
X160234648Y-67540153D02*
X160234648Y-68754439D01*
X160234648Y-68754439D02*
X160187029Y-68997296D01*
X160187029Y-68997296D02*
X160091791Y-69159201D01*
X160091791Y-69159201D02*
X159948934Y-69240153D01*
X159948934Y-69240153D02*
X159853696Y-69240153D01*
X161901315Y-68106820D02*
X161901315Y-69240153D01*
X161663220Y-67459201D02*
X161425125Y-68673486D01*
X161425125Y-68673486D02*
X162044172Y-68673486D01*
X163187030Y-69240153D02*
X163187030Y-67540153D01*
X163187030Y-67540153D02*
X163567982Y-67540153D01*
X163567982Y-67540153D02*
X163663220Y-67621105D01*
X163663220Y-67621105D02*
X163710839Y-67702058D01*
X163710839Y-67702058D02*
X163758458Y-67863962D01*
X163758458Y-67863962D02*
X163758458Y-68106820D01*
X163758458Y-68106820D02*
X163710839Y-68268724D01*
X163710839Y-68268724D02*
X163663220Y-68349677D01*
X163663220Y-68349677D02*
X163567982Y-68430629D01*
X163567982Y-68430629D02*
X163187030Y-68430629D01*
X164139411Y-67702058D02*
X164187030Y-67621105D01*
X164187030Y-67621105D02*
X164282268Y-67540153D01*
X164282268Y-67540153D02*
X164520363Y-67540153D01*
X164520363Y-67540153D02*
X164615601Y-67621105D01*
X164615601Y-67621105D02*
X164663220Y-67702058D01*
X164663220Y-67702058D02*
X164710839Y-67863962D01*
X164710839Y-67863962D02*
X164710839Y-68025867D01*
X164710839Y-68025867D02*
X164663220Y-68268724D01*
X164663220Y-68268724D02*
X164091792Y-69240153D01*
X164091792Y-69240153D02*
X164710839Y-69240153D01*
X160901316Y-71977153D02*
X160901316Y-70277153D01*
X161901315Y-70358105D02*
X161806077Y-70277153D01*
X161806077Y-70277153D02*
X161663220Y-70277153D01*
X161663220Y-70277153D02*
X161520363Y-70358105D01*
X161520363Y-70358105D02*
X161425125Y-70520010D01*
X161425125Y-70520010D02*
X161377506Y-70681915D01*
X161377506Y-70681915D02*
X161329887Y-71005724D01*
X161329887Y-71005724D02*
X161329887Y-71248581D01*
X161329887Y-71248581D02*
X161377506Y-71572391D01*
X161377506Y-71572391D02*
X161425125Y-71734296D01*
X161425125Y-71734296D02*
X161520363Y-71896201D01*
X161520363Y-71896201D02*
X161663220Y-71977153D01*
X161663220Y-71977153D02*
X161758458Y-71977153D01*
X161758458Y-71977153D02*
X161901315Y-71896201D01*
X161901315Y-71896201D02*
X161948934Y-71815248D01*
X161948934Y-71815248D02*
X161948934Y-71248581D01*
X161948934Y-71248581D02*
X161758458Y-71248581D01*
X162377506Y-71977153D02*
X162377506Y-70277153D01*
X162377506Y-70277153D02*
X162948934Y-71977153D01*
X162948934Y-71977153D02*
X162948934Y-70277153D01*
X164710839Y-71977153D02*
X164139411Y-71977153D01*
X164425125Y-71977153D02*
X164425125Y-70277153D01*
X164425125Y-70277153D02*
X164329887Y-70520010D01*
X164329887Y-70520010D02*
X164234649Y-70681915D01*
X164234649Y-70681915D02*
X164139411Y-70762867D01*
X160901316Y-74714153D02*
X160901316Y-73014153D01*
X161901315Y-73095105D02*
X161806077Y-73014153D01*
X161806077Y-73014153D02*
X161663220Y-73014153D01*
X161663220Y-73014153D02*
X161520363Y-73095105D01*
X161520363Y-73095105D02*
X161425125Y-73257010D01*
X161425125Y-73257010D02*
X161377506Y-73418915D01*
X161377506Y-73418915D02*
X161329887Y-73742724D01*
X161329887Y-73742724D02*
X161329887Y-73985581D01*
X161329887Y-73985581D02*
X161377506Y-74309391D01*
X161377506Y-74309391D02*
X161425125Y-74471296D01*
X161425125Y-74471296D02*
X161520363Y-74633201D01*
X161520363Y-74633201D02*
X161663220Y-74714153D01*
X161663220Y-74714153D02*
X161758458Y-74714153D01*
X161758458Y-74714153D02*
X161901315Y-74633201D01*
X161901315Y-74633201D02*
X161948934Y-74552248D01*
X161948934Y-74552248D02*
X161948934Y-73985581D01*
X161948934Y-73985581D02*
X161758458Y-73985581D01*
X162377506Y-74714153D02*
X162377506Y-73014153D01*
X162377506Y-73014153D02*
X162948934Y-74714153D01*
X162948934Y-74714153D02*
X162948934Y-73014153D01*
X164615601Y-73580820D02*
X164615601Y-74714153D01*
X164377506Y-72933201D02*
X164139411Y-74147486D01*
X164139411Y-74147486D02*
X164758458Y-74147486D01*
X154615601Y-101555153D02*
X154615601Y-99855153D01*
X154615601Y-99855153D02*
X154996553Y-99855153D01*
X154996553Y-99855153D02*
X155091791Y-99936105D01*
X155091791Y-99936105D02*
X155139410Y-100017058D01*
X155139410Y-100017058D02*
X155187029Y-100178962D01*
X155187029Y-100178962D02*
X155187029Y-100421820D01*
X155187029Y-100421820D02*
X155139410Y-100583724D01*
X155139410Y-100583724D02*
X155091791Y-100664677D01*
X155091791Y-100664677D02*
X154996553Y-100745629D01*
X154996553Y-100745629D02*
X154615601Y-100745629D01*
X156187029Y-101555153D02*
X155853696Y-100745629D01*
X155615601Y-101555153D02*
X155615601Y-99855153D01*
X155615601Y-99855153D02*
X155996553Y-99855153D01*
X155996553Y-99855153D02*
X156091791Y-99936105D01*
X156091791Y-99936105D02*
X156139410Y-100017058D01*
X156139410Y-100017058D02*
X156187029Y-100178962D01*
X156187029Y-100178962D02*
X156187029Y-100421820D01*
X156187029Y-100421820D02*
X156139410Y-100583724D01*
X156139410Y-100583724D02*
X156091791Y-100664677D01*
X156091791Y-100664677D02*
X155996553Y-100745629D01*
X155996553Y-100745629D02*
X155615601Y-100745629D01*
X156806077Y-99855153D02*
X156996553Y-99855153D01*
X156996553Y-99855153D02*
X157091791Y-99936105D01*
X157091791Y-99936105D02*
X157187029Y-100098010D01*
X157187029Y-100098010D02*
X157234648Y-100421820D01*
X157234648Y-100421820D02*
X157234648Y-100988486D01*
X157234648Y-100988486D02*
X157187029Y-101312296D01*
X157187029Y-101312296D02*
X157091791Y-101474201D01*
X157091791Y-101474201D02*
X156996553Y-101555153D01*
X156996553Y-101555153D02*
X156806077Y-101555153D01*
X156806077Y-101555153D02*
X156710839Y-101474201D01*
X156710839Y-101474201D02*
X156615601Y-101312296D01*
X156615601Y-101312296D02*
X156567982Y-100988486D01*
X156567982Y-100988486D02*
X156567982Y-100421820D01*
X156567982Y-100421820D02*
X156615601Y-100098010D01*
X156615601Y-100098010D02*
X156710839Y-99936105D01*
X156710839Y-99936105D02*
X156806077Y-99855153D01*
X158853696Y-100421820D02*
X158853696Y-101555153D01*
X158615601Y-99774201D02*
X158377506Y-100988486D01*
X158377506Y-100988486D02*
X158996553Y-100988486D01*
X160091791Y-99774201D02*
X159234649Y-101959915D01*
X160282268Y-99855153D02*
X160853696Y-99855153D01*
X160567982Y-101555153D02*
X160567982Y-99855153D01*
X161139411Y-101069439D02*
X161615601Y-101069439D01*
X161044173Y-101555153D02*
X161377506Y-99855153D01*
X161377506Y-99855153D02*
X161710839Y-101555153D01*
X162615601Y-101393248D02*
X162567982Y-101474201D01*
X162567982Y-101474201D02*
X162425125Y-101555153D01*
X162425125Y-101555153D02*
X162329887Y-101555153D01*
X162329887Y-101555153D02*
X162187030Y-101474201D01*
X162187030Y-101474201D02*
X162091792Y-101312296D01*
X162091792Y-101312296D02*
X162044173Y-101150391D01*
X162044173Y-101150391D02*
X161996554Y-100826581D01*
X161996554Y-100826581D02*
X161996554Y-100583724D01*
X161996554Y-100583724D02*
X162044173Y-100259915D01*
X162044173Y-100259915D02*
X162091792Y-100098010D01*
X162091792Y-100098010D02*
X162187030Y-99936105D01*
X162187030Y-99936105D02*
X162329887Y-99855153D01*
X162329887Y-99855153D02*
X162425125Y-99855153D01*
X162425125Y-99855153D02*
X162567982Y-99936105D01*
X162567982Y-99936105D02*
X162615601Y-100017058D01*
X163044173Y-101555153D02*
X163044173Y-99855153D01*
X163044173Y-100664677D02*
X163615601Y-100664677D01*
X163615601Y-101555153D02*
X163615601Y-99855153D01*
X164282268Y-99855153D02*
X164472744Y-99855153D01*
X164472744Y-99855153D02*
X164567982Y-99936105D01*
X164567982Y-99936105D02*
X164663220Y-100098010D01*
X164663220Y-100098010D02*
X164710839Y-100421820D01*
X164710839Y-100421820D02*
X164710839Y-100988486D01*
X164710839Y-100988486D02*
X164663220Y-101312296D01*
X164663220Y-101312296D02*
X164567982Y-101474201D01*
X164567982Y-101474201D02*
X164472744Y-101555153D01*
X164472744Y-101555153D02*
X164282268Y-101555153D01*
X164282268Y-101555153D02*
X164187030Y-101474201D01*
X164187030Y-101474201D02*
X164091792Y-101312296D01*
X164091792Y-101312296D02*
X164044173Y-100988486D01*
X164044173Y-100988486D02*
X164044173Y-100421820D01*
X164044173Y-100421820D02*
X164091792Y-100098010D01*
X164091792Y-100098010D02*
X164187030Y-99936105D01*
X164187030Y-99936105D02*
X164282268Y-99855153D01*
X153663220Y-104292153D02*
X153663220Y-102592153D01*
X153663220Y-102592153D02*
X154044172Y-102592153D01*
X154044172Y-102592153D02*
X154139410Y-102673105D01*
X154139410Y-102673105D02*
X154187029Y-102754058D01*
X154187029Y-102754058D02*
X154234648Y-102915962D01*
X154234648Y-102915962D02*
X154234648Y-103158820D01*
X154234648Y-103158820D02*
X154187029Y-103320724D01*
X154187029Y-103320724D02*
X154139410Y-103401677D01*
X154139410Y-103401677D02*
X154044172Y-103482629D01*
X154044172Y-103482629D02*
X153663220Y-103482629D01*
X155234648Y-104292153D02*
X154901315Y-103482629D01*
X154663220Y-104292153D02*
X154663220Y-102592153D01*
X154663220Y-102592153D02*
X155044172Y-102592153D01*
X155044172Y-102592153D02*
X155139410Y-102673105D01*
X155139410Y-102673105D02*
X155187029Y-102754058D01*
X155187029Y-102754058D02*
X155234648Y-102915962D01*
X155234648Y-102915962D02*
X155234648Y-103158820D01*
X155234648Y-103158820D02*
X155187029Y-103320724D01*
X155187029Y-103320724D02*
X155139410Y-103401677D01*
X155139410Y-103401677D02*
X155044172Y-103482629D01*
X155044172Y-103482629D02*
X154663220Y-103482629D01*
X155853696Y-102592153D02*
X156044172Y-102592153D01*
X156044172Y-102592153D02*
X156139410Y-102673105D01*
X156139410Y-102673105D02*
X156234648Y-102835010D01*
X156234648Y-102835010D02*
X156282267Y-103158820D01*
X156282267Y-103158820D02*
X156282267Y-103725486D01*
X156282267Y-103725486D02*
X156234648Y-104049296D01*
X156234648Y-104049296D02*
X156139410Y-104211201D01*
X156139410Y-104211201D02*
X156044172Y-104292153D01*
X156044172Y-104292153D02*
X155853696Y-104292153D01*
X155853696Y-104292153D02*
X155758458Y-104211201D01*
X155758458Y-104211201D02*
X155663220Y-104049296D01*
X155663220Y-104049296D02*
X155615601Y-103725486D01*
X155615601Y-103725486D02*
X155615601Y-103158820D01*
X155615601Y-103158820D02*
X155663220Y-102835010D01*
X155663220Y-102835010D02*
X155758458Y-102673105D01*
X155758458Y-102673105D02*
X155853696Y-102592153D01*
X157948934Y-102592153D02*
X157472744Y-102592153D01*
X157472744Y-102592153D02*
X157425125Y-103401677D01*
X157425125Y-103401677D02*
X157472744Y-103320724D01*
X157472744Y-103320724D02*
X157567982Y-103239772D01*
X157567982Y-103239772D02*
X157806077Y-103239772D01*
X157806077Y-103239772D02*
X157901315Y-103320724D01*
X157901315Y-103320724D02*
X157948934Y-103401677D01*
X157948934Y-103401677D02*
X157996553Y-103563581D01*
X157996553Y-103563581D02*
X157996553Y-103968343D01*
X157996553Y-103968343D02*
X157948934Y-104130248D01*
X157948934Y-104130248D02*
X157901315Y-104211201D01*
X157901315Y-104211201D02*
X157806077Y-104292153D01*
X157806077Y-104292153D02*
X157567982Y-104292153D01*
X157567982Y-104292153D02*
X157472744Y-104211201D01*
X157472744Y-104211201D02*
X157425125Y-104130248D01*
X159139410Y-102511201D02*
X158282268Y-104696915D01*
X160044172Y-104130248D02*
X159996553Y-104211201D01*
X159996553Y-104211201D02*
X159853696Y-104292153D01*
X159853696Y-104292153D02*
X159758458Y-104292153D01*
X159758458Y-104292153D02*
X159615601Y-104211201D01*
X159615601Y-104211201D02*
X159520363Y-104049296D01*
X159520363Y-104049296D02*
X159472744Y-103887391D01*
X159472744Y-103887391D02*
X159425125Y-103563581D01*
X159425125Y-103563581D02*
X159425125Y-103320724D01*
X159425125Y-103320724D02*
X159472744Y-102996915D01*
X159472744Y-102996915D02*
X159520363Y-102835010D01*
X159520363Y-102835010D02*
X159615601Y-102673105D01*
X159615601Y-102673105D02*
X159758458Y-102592153D01*
X159758458Y-102592153D02*
X159853696Y-102592153D01*
X159853696Y-102592153D02*
X159996553Y-102673105D01*
X159996553Y-102673105D02*
X160044172Y-102754058D01*
X160948934Y-104292153D02*
X160472744Y-104292153D01*
X160472744Y-104292153D02*
X160472744Y-102592153D01*
X161282268Y-102592153D02*
X161282268Y-103968343D01*
X161282268Y-103968343D02*
X161329887Y-104130248D01*
X161329887Y-104130248D02*
X161377506Y-104211201D01*
X161377506Y-104211201D02*
X161472744Y-104292153D01*
X161472744Y-104292153D02*
X161663220Y-104292153D01*
X161663220Y-104292153D02*
X161758458Y-104211201D01*
X161758458Y-104211201D02*
X161806077Y-104130248D01*
X161806077Y-104130248D02*
X161853696Y-103968343D01*
X161853696Y-103968343D02*
X161853696Y-102592153D01*
X162187030Y-102592153D02*
X162758458Y-102592153D01*
X162472744Y-104292153D02*
X162472744Y-102592153D01*
X163663220Y-104130248D02*
X163615601Y-104211201D01*
X163615601Y-104211201D02*
X163472744Y-104292153D01*
X163472744Y-104292153D02*
X163377506Y-104292153D01*
X163377506Y-104292153D02*
X163234649Y-104211201D01*
X163234649Y-104211201D02*
X163139411Y-104049296D01*
X163139411Y-104049296D02*
X163091792Y-103887391D01*
X163091792Y-103887391D02*
X163044173Y-103563581D01*
X163044173Y-103563581D02*
X163044173Y-103320724D01*
X163044173Y-103320724D02*
X163091792Y-102996915D01*
X163091792Y-102996915D02*
X163139411Y-102835010D01*
X163139411Y-102835010D02*
X163234649Y-102673105D01*
X163234649Y-102673105D02*
X163377506Y-102592153D01*
X163377506Y-102592153D02*
X163472744Y-102592153D01*
X163472744Y-102592153D02*
X163615601Y-102673105D01*
X163615601Y-102673105D02*
X163663220Y-102754058D01*
X164091792Y-104292153D02*
X164091792Y-102592153D01*
X164091792Y-103401677D02*
X164663220Y-103401677D01*
X164663220Y-104292153D02*
X164663220Y-102592153D01*
X159139410Y-106867248D02*
X159091791Y-106948201D01*
X159091791Y-106948201D02*
X158948934Y-107029153D01*
X158948934Y-107029153D02*
X158853696Y-107029153D01*
X158853696Y-107029153D02*
X158710839Y-106948201D01*
X158710839Y-106948201D02*
X158615601Y-106786296D01*
X158615601Y-106786296D02*
X158567982Y-106624391D01*
X158567982Y-106624391D02*
X158520363Y-106300581D01*
X158520363Y-106300581D02*
X158520363Y-106057724D01*
X158520363Y-106057724D02*
X158567982Y-105733915D01*
X158567982Y-105733915D02*
X158615601Y-105572010D01*
X158615601Y-105572010D02*
X158710839Y-105410105D01*
X158710839Y-105410105D02*
X158853696Y-105329153D01*
X158853696Y-105329153D02*
X158948934Y-105329153D01*
X158948934Y-105329153D02*
X159091791Y-105410105D01*
X159091791Y-105410105D02*
X159139410Y-105491058D01*
X159758458Y-105329153D02*
X159948934Y-105329153D01*
X159948934Y-105329153D02*
X160044172Y-105410105D01*
X160044172Y-105410105D02*
X160139410Y-105572010D01*
X160139410Y-105572010D02*
X160187029Y-105895820D01*
X160187029Y-105895820D02*
X160187029Y-106462486D01*
X160187029Y-106462486D02*
X160139410Y-106786296D01*
X160139410Y-106786296D02*
X160044172Y-106948201D01*
X160044172Y-106948201D02*
X159948934Y-107029153D01*
X159948934Y-107029153D02*
X159758458Y-107029153D01*
X159758458Y-107029153D02*
X159663220Y-106948201D01*
X159663220Y-106948201D02*
X159567982Y-106786296D01*
X159567982Y-106786296D02*
X159520363Y-106462486D01*
X159520363Y-106462486D02*
X159520363Y-105895820D01*
X159520363Y-105895820D02*
X159567982Y-105572010D01*
X159567982Y-105572010D02*
X159663220Y-105410105D01*
X159663220Y-105410105D02*
X159758458Y-105329153D01*
X160806077Y-105329153D02*
X160996553Y-105329153D01*
X160996553Y-105329153D02*
X161091791Y-105410105D01*
X161091791Y-105410105D02*
X161187029Y-105572010D01*
X161187029Y-105572010D02*
X161234648Y-105895820D01*
X161234648Y-105895820D02*
X161234648Y-106462486D01*
X161234648Y-106462486D02*
X161187029Y-106786296D01*
X161187029Y-106786296D02*
X161091791Y-106948201D01*
X161091791Y-106948201D02*
X160996553Y-107029153D01*
X160996553Y-107029153D02*
X160806077Y-107029153D01*
X160806077Y-107029153D02*
X160710839Y-106948201D01*
X160710839Y-106948201D02*
X160615601Y-106786296D01*
X160615601Y-106786296D02*
X160567982Y-106462486D01*
X160567982Y-106462486D02*
X160567982Y-105895820D01*
X160567982Y-105895820D02*
X160615601Y-105572010D01*
X160615601Y-105572010D02*
X160710839Y-105410105D01*
X160710839Y-105410105D02*
X160806077Y-105329153D01*
X162139410Y-107029153D02*
X161663220Y-107029153D01*
X161663220Y-107029153D02*
X161663220Y-105329153D01*
X162425125Y-106543439D02*
X162901315Y-106543439D01*
X162329887Y-107029153D02*
X162663220Y-105329153D01*
X162663220Y-105329153D02*
X162996553Y-107029153D01*
X163329887Y-107029153D02*
X163329887Y-105329153D01*
X163329887Y-105329153D02*
X163901315Y-107029153D01*
X163901315Y-107029153D02*
X163901315Y-105329153D01*
X164234649Y-105329153D02*
X164806077Y-105329153D01*
X164520363Y-107029153D02*
X164520363Y-105329153D01*
X163044173Y-109766153D02*
X163044173Y-108066153D01*
X163472744Y-109280439D02*
X163948934Y-109280439D01*
X163377506Y-109766153D02*
X163710839Y-108066153D01*
X163710839Y-108066153D02*
X164044172Y-109766153D01*
X164234649Y-108066153D02*
X164806077Y-108066153D01*
X164520363Y-109766153D02*
X164520363Y-108066153D01*
X186471160Y-108482058D02*
X186518779Y-108401105D01*
X186518779Y-108401105D02*
X186614017Y-108320153D01*
X186614017Y-108320153D02*
X186852112Y-108320153D01*
X186852112Y-108320153D02*
X186947350Y-108401105D01*
X186947350Y-108401105D02*
X186994969Y-108482058D01*
X186994969Y-108482058D02*
X187042588Y-108643962D01*
X187042588Y-108643962D02*
X187042588Y-108805867D01*
X187042588Y-108805867D02*
X186994969Y-109048724D01*
X186994969Y-109048724D02*
X186423541Y-110020153D01*
X186423541Y-110020153D02*
X187042588Y-110020153D01*
X187994969Y-110020153D02*
X187423541Y-110020153D01*
X187709255Y-110020153D02*
X187709255Y-108320153D01*
X187709255Y-108320153D02*
X187614017Y-108563010D01*
X187614017Y-108563010D02*
X187518779Y-108724915D01*
X187518779Y-108724915D02*
X187423541Y-108805867D01*
X181946779Y-66503153D02*
X181946779Y-64803153D01*
X182422969Y-66503153D02*
X182422969Y-64803153D01*
X182422969Y-64803153D02*
X182661064Y-64803153D01*
X182661064Y-64803153D02*
X182803921Y-64884105D01*
X182803921Y-64884105D02*
X182899159Y-65046010D01*
X182899159Y-65046010D02*
X182946778Y-65207915D01*
X182946778Y-65207915D02*
X182994397Y-65531724D01*
X182994397Y-65531724D02*
X182994397Y-65774581D01*
X182994397Y-65774581D02*
X182946778Y-66098391D01*
X182946778Y-66098391D02*
X182899159Y-66260296D01*
X182899159Y-66260296D02*
X182803921Y-66422201D01*
X182803921Y-66422201D02*
X182661064Y-66503153D01*
X182661064Y-66503153D02*
X182422969Y-66503153D01*
X183899159Y-66503153D02*
X183422969Y-66503153D01*
X183422969Y-66503153D02*
X183422969Y-64803153D01*
X184232493Y-65612677D02*
X184565826Y-65612677D01*
X184708683Y-66503153D02*
X184232493Y-66503153D01*
X184232493Y-66503153D02*
X184232493Y-64803153D01*
X184232493Y-64803153D02*
X184708683Y-64803153D01*
X185851541Y-64965058D02*
X185899160Y-64884105D01*
X185899160Y-64884105D02*
X185994398Y-64803153D01*
X185994398Y-64803153D02*
X186232493Y-64803153D01*
X186232493Y-64803153D02*
X186327731Y-64884105D01*
X186327731Y-64884105D02*
X186375350Y-64965058D01*
X186375350Y-64965058D02*
X186422969Y-65126962D01*
X186422969Y-65126962D02*
X186422969Y-65288867D01*
X186422969Y-65288867D02*
X186375350Y-65531724D01*
X186375350Y-65531724D02*
X185803922Y-66503153D01*
X185803922Y-66503153D02*
X186422969Y-66503153D01*
X182280112Y-68349677D02*
X182422969Y-68430629D01*
X182422969Y-68430629D02*
X182470588Y-68511581D01*
X182470588Y-68511581D02*
X182518207Y-68673486D01*
X182518207Y-68673486D02*
X182518207Y-68916343D01*
X182518207Y-68916343D02*
X182470588Y-69078248D01*
X182470588Y-69078248D02*
X182422969Y-69159201D01*
X182422969Y-69159201D02*
X182327731Y-69240153D01*
X182327731Y-69240153D02*
X181946779Y-69240153D01*
X181946779Y-69240153D02*
X181946779Y-67540153D01*
X181946779Y-67540153D02*
X182280112Y-67540153D01*
X182280112Y-67540153D02*
X182375350Y-67621105D01*
X182375350Y-67621105D02*
X182422969Y-67702058D01*
X182422969Y-67702058D02*
X182470588Y-67863962D01*
X182470588Y-67863962D02*
X182470588Y-68025867D01*
X182470588Y-68025867D02*
X182422969Y-68187772D01*
X182422969Y-68187772D02*
X182375350Y-68268724D01*
X182375350Y-68268724D02*
X182280112Y-68349677D01*
X182280112Y-68349677D02*
X181946779Y-68349677D01*
X183137255Y-67540153D02*
X183327731Y-67540153D01*
X183327731Y-67540153D02*
X183422969Y-67621105D01*
X183422969Y-67621105D02*
X183518207Y-67783010D01*
X183518207Y-67783010D02*
X183565826Y-68106820D01*
X183565826Y-68106820D02*
X183565826Y-68673486D01*
X183565826Y-68673486D02*
X183518207Y-68997296D01*
X183518207Y-68997296D02*
X183422969Y-69159201D01*
X183422969Y-69159201D02*
X183327731Y-69240153D01*
X183327731Y-69240153D02*
X183137255Y-69240153D01*
X183137255Y-69240153D02*
X183042017Y-69159201D01*
X183042017Y-69159201D02*
X182946779Y-68997296D01*
X182946779Y-68997296D02*
X182899160Y-68673486D01*
X182899160Y-68673486D02*
X182899160Y-68106820D01*
X182899160Y-68106820D02*
X182946779Y-67783010D01*
X182946779Y-67783010D02*
X183042017Y-67621105D01*
X183042017Y-67621105D02*
X183137255Y-67540153D01*
X184184874Y-67540153D02*
X184375350Y-67540153D01*
X184375350Y-67540153D02*
X184470588Y-67621105D01*
X184470588Y-67621105D02*
X184565826Y-67783010D01*
X184565826Y-67783010D02*
X184613445Y-68106820D01*
X184613445Y-68106820D02*
X184613445Y-68673486D01*
X184613445Y-68673486D02*
X184565826Y-68997296D01*
X184565826Y-68997296D02*
X184470588Y-69159201D01*
X184470588Y-69159201D02*
X184375350Y-69240153D01*
X184375350Y-69240153D02*
X184184874Y-69240153D01*
X184184874Y-69240153D02*
X184089636Y-69159201D01*
X184089636Y-69159201D02*
X183994398Y-68997296D01*
X183994398Y-68997296D02*
X183946779Y-68673486D01*
X183946779Y-68673486D02*
X183946779Y-68106820D01*
X183946779Y-68106820D02*
X183994398Y-67783010D01*
X183994398Y-67783010D02*
X184089636Y-67621105D01*
X184089636Y-67621105D02*
X184184874Y-67540153D01*
X184994398Y-69159201D02*
X185137255Y-69240153D01*
X185137255Y-69240153D02*
X185375350Y-69240153D01*
X185375350Y-69240153D02*
X185470588Y-69159201D01*
X185470588Y-69159201D02*
X185518207Y-69078248D01*
X185518207Y-69078248D02*
X185565826Y-68916343D01*
X185565826Y-68916343D02*
X185565826Y-68754439D01*
X185565826Y-68754439D02*
X185518207Y-68592534D01*
X185518207Y-68592534D02*
X185470588Y-68511581D01*
X185470588Y-68511581D02*
X185375350Y-68430629D01*
X185375350Y-68430629D02*
X185184874Y-68349677D01*
X185184874Y-68349677D02*
X185089636Y-68268724D01*
X185089636Y-68268724D02*
X185042017Y-68187772D01*
X185042017Y-68187772D02*
X184994398Y-68025867D01*
X184994398Y-68025867D02*
X184994398Y-67863962D01*
X184994398Y-67863962D02*
X185042017Y-67702058D01*
X185042017Y-67702058D02*
X185089636Y-67621105D01*
X185089636Y-67621105D02*
X185184874Y-67540153D01*
X185184874Y-67540153D02*
X185422969Y-67540153D01*
X185422969Y-67540153D02*
X185565826Y-67621105D01*
X185851541Y-67540153D02*
X186422969Y-67540153D01*
X186137255Y-69240153D02*
X186137255Y-67540153D01*
X181946779Y-71977153D02*
X181946779Y-70277153D01*
X182946778Y-70358105D02*
X182851540Y-70277153D01*
X182851540Y-70277153D02*
X182708683Y-70277153D01*
X182708683Y-70277153D02*
X182565826Y-70358105D01*
X182565826Y-70358105D02*
X182470588Y-70520010D01*
X182470588Y-70520010D02*
X182422969Y-70681915D01*
X182422969Y-70681915D02*
X182375350Y-71005724D01*
X182375350Y-71005724D02*
X182375350Y-71248581D01*
X182375350Y-71248581D02*
X182422969Y-71572391D01*
X182422969Y-71572391D02*
X182470588Y-71734296D01*
X182470588Y-71734296D02*
X182565826Y-71896201D01*
X182565826Y-71896201D02*
X182708683Y-71977153D01*
X182708683Y-71977153D02*
X182803921Y-71977153D01*
X182803921Y-71977153D02*
X182946778Y-71896201D01*
X182946778Y-71896201D02*
X182994397Y-71815248D01*
X182994397Y-71815248D02*
X182994397Y-71248581D01*
X182994397Y-71248581D02*
X182803921Y-71248581D01*
X183422969Y-71977153D02*
X183422969Y-70277153D01*
X183422969Y-70277153D02*
X183994397Y-71977153D01*
X183994397Y-71977153D02*
X183994397Y-70277153D01*
X185184874Y-70439058D02*
X185232493Y-70358105D01*
X185232493Y-70358105D02*
X185327731Y-70277153D01*
X185327731Y-70277153D02*
X185565826Y-70277153D01*
X185565826Y-70277153D02*
X185661064Y-70358105D01*
X185661064Y-70358105D02*
X185708683Y-70439058D01*
X185708683Y-70439058D02*
X185756302Y-70600962D01*
X185756302Y-70600962D02*
X185756302Y-70762867D01*
X185756302Y-70762867D02*
X185708683Y-71005724D01*
X185708683Y-71005724D02*
X185137255Y-71977153D01*
X185137255Y-71977153D02*
X185756302Y-71977153D01*
X181946779Y-74714153D02*
X181946779Y-73014153D01*
X182946778Y-73095105D02*
X182851540Y-73014153D01*
X182851540Y-73014153D02*
X182708683Y-73014153D01*
X182708683Y-73014153D02*
X182565826Y-73095105D01*
X182565826Y-73095105D02*
X182470588Y-73257010D01*
X182470588Y-73257010D02*
X182422969Y-73418915D01*
X182422969Y-73418915D02*
X182375350Y-73742724D01*
X182375350Y-73742724D02*
X182375350Y-73985581D01*
X182375350Y-73985581D02*
X182422969Y-74309391D01*
X182422969Y-74309391D02*
X182470588Y-74471296D01*
X182470588Y-74471296D02*
X182565826Y-74633201D01*
X182565826Y-74633201D02*
X182708683Y-74714153D01*
X182708683Y-74714153D02*
X182803921Y-74714153D01*
X182803921Y-74714153D02*
X182946778Y-74633201D01*
X182946778Y-74633201D02*
X182994397Y-74552248D01*
X182994397Y-74552248D02*
X182994397Y-73985581D01*
X182994397Y-73985581D02*
X182803921Y-73985581D01*
X183422969Y-74714153D02*
X183422969Y-73014153D01*
X183422969Y-73014153D02*
X183994397Y-74714153D01*
X183994397Y-74714153D02*
X183994397Y-73014153D01*
X185137255Y-73014153D02*
X185756302Y-73014153D01*
X185756302Y-73014153D02*
X185422969Y-73661772D01*
X185422969Y-73661772D02*
X185565826Y-73661772D01*
X185565826Y-73661772D02*
X185661064Y-73742724D01*
X185661064Y-73742724D02*
X185708683Y-73823677D01*
X185708683Y-73823677D02*
X185756302Y-73985581D01*
X185756302Y-73985581D02*
X185756302Y-74390343D01*
X185756302Y-74390343D02*
X185708683Y-74552248D01*
X185708683Y-74552248D02*
X185661064Y-74633201D01*
X185661064Y-74633201D02*
X185565826Y-74714153D01*
X185565826Y-74714153D02*
X185280112Y-74714153D01*
X185280112Y-74714153D02*
X185184874Y-74633201D01*
X185184874Y-74633201D02*
X185137255Y-74552248D01*
X163806077Y-88171153D02*
X163329887Y-88171153D01*
X163329887Y-88171153D02*
X163282268Y-88980677D01*
X163282268Y-88980677D02*
X163329887Y-88899724D01*
X163329887Y-88899724D02*
X163425125Y-88818772D01*
X163425125Y-88818772D02*
X163663220Y-88818772D01*
X163663220Y-88818772D02*
X163758458Y-88899724D01*
X163758458Y-88899724D02*
X163806077Y-88980677D01*
X163806077Y-88980677D02*
X163853696Y-89142581D01*
X163853696Y-89142581D02*
X163853696Y-89547343D01*
X163853696Y-89547343D02*
X163806077Y-89709248D01*
X163806077Y-89709248D02*
X163758458Y-89790201D01*
X163758458Y-89790201D02*
X163663220Y-89871153D01*
X163663220Y-89871153D02*
X163425125Y-89871153D01*
X163425125Y-89871153D02*
X163329887Y-89790201D01*
X163329887Y-89790201D02*
X163282268Y-89709248D01*
X164139411Y-88171153D02*
X164472744Y-89871153D01*
X164472744Y-89871153D02*
X164806077Y-88171153D01*
X155806077Y-92608153D02*
X155806077Y-90908153D01*
X155806077Y-90908153D02*
X156187029Y-90908153D01*
X156187029Y-90908153D02*
X156282267Y-90989105D01*
X156282267Y-90989105D02*
X156329886Y-91070058D01*
X156329886Y-91070058D02*
X156377505Y-91231962D01*
X156377505Y-91231962D02*
X156377505Y-91474820D01*
X156377505Y-91474820D02*
X156329886Y-91636724D01*
X156329886Y-91636724D02*
X156282267Y-91717677D01*
X156282267Y-91717677D02*
X156187029Y-91798629D01*
X156187029Y-91798629D02*
X155806077Y-91798629D01*
X157377505Y-92608153D02*
X157044172Y-91798629D01*
X156806077Y-92608153D02*
X156806077Y-90908153D01*
X156806077Y-90908153D02*
X157187029Y-90908153D01*
X157187029Y-90908153D02*
X157282267Y-90989105D01*
X157282267Y-90989105D02*
X157329886Y-91070058D01*
X157329886Y-91070058D02*
X157377505Y-91231962D01*
X157377505Y-91231962D02*
X157377505Y-91474820D01*
X157377505Y-91474820D02*
X157329886Y-91636724D01*
X157329886Y-91636724D02*
X157282267Y-91717677D01*
X157282267Y-91717677D02*
X157187029Y-91798629D01*
X157187029Y-91798629D02*
X156806077Y-91798629D01*
X157996553Y-90908153D02*
X158187029Y-90908153D01*
X158187029Y-90908153D02*
X158282267Y-90989105D01*
X158282267Y-90989105D02*
X158377505Y-91151010D01*
X158377505Y-91151010D02*
X158425124Y-91474820D01*
X158425124Y-91474820D02*
X158425124Y-92041486D01*
X158425124Y-92041486D02*
X158377505Y-92365296D01*
X158377505Y-92365296D02*
X158282267Y-92527201D01*
X158282267Y-92527201D02*
X158187029Y-92608153D01*
X158187029Y-92608153D02*
X157996553Y-92608153D01*
X157996553Y-92608153D02*
X157901315Y-92527201D01*
X157901315Y-92527201D02*
X157806077Y-92365296D01*
X157806077Y-92365296D02*
X157758458Y-92041486D01*
X157758458Y-92041486D02*
X157758458Y-91474820D01*
X157758458Y-91474820D02*
X157806077Y-91151010D01*
X157806077Y-91151010D02*
X157901315Y-90989105D01*
X157901315Y-90989105D02*
X157996553Y-90908153D01*
X160139410Y-92608153D02*
X159567982Y-92608153D01*
X159853696Y-92608153D02*
X159853696Y-90908153D01*
X159853696Y-90908153D02*
X159758458Y-91151010D01*
X159758458Y-91151010D02*
X159663220Y-91312915D01*
X159663220Y-91312915D02*
X159567982Y-91393867D01*
X161282267Y-90827201D02*
X160425125Y-93012915D01*
X161948934Y-91717677D02*
X161615601Y-91717677D01*
X161615601Y-92608153D02*
X161615601Y-90908153D01*
X161615601Y-90908153D02*
X162091791Y-90908153D01*
X162948934Y-92608153D02*
X162472744Y-92608153D01*
X162472744Y-92608153D02*
X162472744Y-90908153D01*
X163282268Y-91717677D02*
X163615601Y-91717677D01*
X163758458Y-92608153D02*
X163282268Y-92608153D01*
X163282268Y-92608153D02*
X163282268Y-90908153D01*
X163282268Y-90908153D02*
X163758458Y-90908153D01*
X164091792Y-90908153D02*
X164758458Y-92608153D01*
X164758458Y-90908153D02*
X164091792Y-92608153D01*
X156567982Y-95345153D02*
X156567982Y-93645153D01*
X156567982Y-93645153D02*
X156948934Y-93645153D01*
X156948934Y-93645153D02*
X157044172Y-93726105D01*
X157044172Y-93726105D02*
X157091791Y-93807058D01*
X157091791Y-93807058D02*
X157139410Y-93968962D01*
X157139410Y-93968962D02*
X157139410Y-94211820D01*
X157139410Y-94211820D02*
X157091791Y-94373724D01*
X157091791Y-94373724D02*
X157044172Y-94454677D01*
X157044172Y-94454677D02*
X156948934Y-94535629D01*
X156948934Y-94535629D02*
X156567982Y-94535629D01*
X158139410Y-95345153D02*
X157806077Y-94535629D01*
X157567982Y-95345153D02*
X157567982Y-93645153D01*
X157567982Y-93645153D02*
X157948934Y-93645153D01*
X157948934Y-93645153D02*
X158044172Y-93726105D01*
X158044172Y-93726105D02*
X158091791Y-93807058D01*
X158091791Y-93807058D02*
X158139410Y-93968962D01*
X158139410Y-93968962D02*
X158139410Y-94211820D01*
X158139410Y-94211820D02*
X158091791Y-94373724D01*
X158091791Y-94373724D02*
X158044172Y-94454677D01*
X158044172Y-94454677D02*
X157948934Y-94535629D01*
X157948934Y-94535629D02*
X157567982Y-94535629D01*
X158758458Y-93645153D02*
X158948934Y-93645153D01*
X158948934Y-93645153D02*
X159044172Y-93726105D01*
X159044172Y-93726105D02*
X159139410Y-93888010D01*
X159139410Y-93888010D02*
X159187029Y-94211820D01*
X159187029Y-94211820D02*
X159187029Y-94778486D01*
X159187029Y-94778486D02*
X159139410Y-95102296D01*
X159139410Y-95102296D02*
X159044172Y-95264201D01*
X159044172Y-95264201D02*
X158948934Y-95345153D01*
X158948934Y-95345153D02*
X158758458Y-95345153D01*
X158758458Y-95345153D02*
X158663220Y-95264201D01*
X158663220Y-95264201D02*
X158567982Y-95102296D01*
X158567982Y-95102296D02*
X158520363Y-94778486D01*
X158520363Y-94778486D02*
X158520363Y-94211820D01*
X158520363Y-94211820D02*
X158567982Y-93888010D01*
X158567982Y-93888010D02*
X158663220Y-93726105D01*
X158663220Y-93726105D02*
X158758458Y-93645153D01*
X160329887Y-93807058D02*
X160377506Y-93726105D01*
X160377506Y-93726105D02*
X160472744Y-93645153D01*
X160472744Y-93645153D02*
X160710839Y-93645153D01*
X160710839Y-93645153D02*
X160806077Y-93726105D01*
X160806077Y-93726105D02*
X160853696Y-93807058D01*
X160853696Y-93807058D02*
X160901315Y-93968962D01*
X160901315Y-93968962D02*
X160901315Y-94130867D01*
X160901315Y-94130867D02*
X160853696Y-94373724D01*
X160853696Y-94373724D02*
X160282268Y-95345153D01*
X160282268Y-95345153D02*
X160901315Y-95345153D01*
X162044172Y-93564201D02*
X161187030Y-95749915D01*
X162710839Y-94454677D02*
X162377506Y-94454677D01*
X162377506Y-95345153D02*
X162377506Y-93645153D01*
X162377506Y-93645153D02*
X162853696Y-93645153D01*
X163187030Y-94859439D02*
X163663220Y-94859439D01*
X163091792Y-95345153D02*
X163425125Y-93645153D01*
X163425125Y-93645153D02*
X163758458Y-95345153D01*
X164091792Y-95345153D02*
X164091792Y-93645153D01*
X164091792Y-93645153D02*
X164663220Y-95345153D01*
X164663220Y-95345153D02*
X164663220Y-93645153D01*
X153948934Y-98082153D02*
X153948934Y-96382153D01*
X153948934Y-96382153D02*
X154329886Y-96382153D01*
X154329886Y-96382153D02*
X154425124Y-96463105D01*
X154425124Y-96463105D02*
X154472743Y-96544058D01*
X154472743Y-96544058D02*
X154520362Y-96705962D01*
X154520362Y-96705962D02*
X154520362Y-96948820D01*
X154520362Y-96948820D02*
X154472743Y-97110724D01*
X154472743Y-97110724D02*
X154425124Y-97191677D01*
X154425124Y-97191677D02*
X154329886Y-97272629D01*
X154329886Y-97272629D02*
X153948934Y-97272629D01*
X155520362Y-98082153D02*
X155187029Y-97272629D01*
X154948934Y-98082153D02*
X154948934Y-96382153D01*
X154948934Y-96382153D02*
X155329886Y-96382153D01*
X155329886Y-96382153D02*
X155425124Y-96463105D01*
X155425124Y-96463105D02*
X155472743Y-96544058D01*
X155472743Y-96544058D02*
X155520362Y-96705962D01*
X155520362Y-96705962D02*
X155520362Y-96948820D01*
X155520362Y-96948820D02*
X155472743Y-97110724D01*
X155472743Y-97110724D02*
X155425124Y-97191677D01*
X155425124Y-97191677D02*
X155329886Y-97272629D01*
X155329886Y-97272629D02*
X154948934Y-97272629D01*
X156139410Y-96382153D02*
X156329886Y-96382153D01*
X156329886Y-96382153D02*
X156425124Y-96463105D01*
X156425124Y-96463105D02*
X156520362Y-96625010D01*
X156520362Y-96625010D02*
X156567981Y-96948820D01*
X156567981Y-96948820D02*
X156567981Y-97515486D01*
X156567981Y-97515486D02*
X156520362Y-97839296D01*
X156520362Y-97839296D02*
X156425124Y-98001201D01*
X156425124Y-98001201D02*
X156329886Y-98082153D01*
X156329886Y-98082153D02*
X156139410Y-98082153D01*
X156139410Y-98082153D02*
X156044172Y-98001201D01*
X156044172Y-98001201D02*
X155948934Y-97839296D01*
X155948934Y-97839296D02*
X155901315Y-97515486D01*
X155901315Y-97515486D02*
X155901315Y-96948820D01*
X155901315Y-96948820D02*
X155948934Y-96625010D01*
X155948934Y-96625010D02*
X156044172Y-96463105D01*
X156044172Y-96463105D02*
X156139410Y-96382153D01*
X157663220Y-96382153D02*
X158282267Y-96382153D01*
X158282267Y-96382153D02*
X157948934Y-97029772D01*
X157948934Y-97029772D02*
X158091791Y-97029772D01*
X158091791Y-97029772D02*
X158187029Y-97110724D01*
X158187029Y-97110724D02*
X158234648Y-97191677D01*
X158234648Y-97191677D02*
X158282267Y-97353581D01*
X158282267Y-97353581D02*
X158282267Y-97758343D01*
X158282267Y-97758343D02*
X158234648Y-97920248D01*
X158234648Y-97920248D02*
X158187029Y-98001201D01*
X158187029Y-98001201D02*
X158091791Y-98082153D01*
X158091791Y-98082153D02*
X157806077Y-98082153D01*
X157806077Y-98082153D02*
X157710839Y-98001201D01*
X157710839Y-98001201D02*
X157663220Y-97920248D01*
X159425124Y-96301201D02*
X158567982Y-98486915D01*
X160091791Y-97191677D02*
X159758458Y-97191677D01*
X159758458Y-98082153D02*
X159758458Y-96382153D01*
X159758458Y-96382153D02*
X160234648Y-96382153D01*
X160615601Y-96382153D02*
X160615601Y-97758343D01*
X160615601Y-97758343D02*
X160663220Y-97920248D01*
X160663220Y-97920248D02*
X160710839Y-98001201D01*
X160710839Y-98001201D02*
X160806077Y-98082153D01*
X160806077Y-98082153D02*
X160996553Y-98082153D01*
X160996553Y-98082153D02*
X161091791Y-98001201D01*
X161091791Y-98001201D02*
X161139410Y-97920248D01*
X161139410Y-97920248D02*
X161187029Y-97758343D01*
X161187029Y-97758343D02*
X161187029Y-96382153D01*
X161663220Y-97191677D02*
X161996553Y-97191677D01*
X162139410Y-98082153D02*
X161663220Y-98082153D01*
X161663220Y-98082153D02*
X161663220Y-96382153D01*
X161663220Y-96382153D02*
X162139410Y-96382153D01*
X163044172Y-98082153D02*
X162567982Y-98082153D01*
X162567982Y-98082153D02*
X162567982Y-96382153D01*
X164139411Y-98082153D02*
X164139411Y-96382153D01*
X164139411Y-96382153D02*
X164520363Y-96382153D01*
X164520363Y-96382153D02*
X164615601Y-96463105D01*
X164615601Y-96463105D02*
X164663220Y-96544058D01*
X164663220Y-96544058D02*
X164710839Y-96705962D01*
X164710839Y-96705962D02*
X164710839Y-96948820D01*
X164710839Y-96948820D02*
X164663220Y-97110724D01*
X164663220Y-97110724D02*
X164615601Y-97191677D01*
X164615601Y-97191677D02*
X164520363Y-97272629D01*
X164520363Y-97272629D02*
X164139411Y-97272629D01*
X182518207Y-101393248D02*
X182470588Y-101474201D01*
X182470588Y-101474201D02*
X182327731Y-101555153D01*
X182327731Y-101555153D02*
X182232493Y-101555153D01*
X182232493Y-101555153D02*
X182089636Y-101474201D01*
X182089636Y-101474201D02*
X181994398Y-101312296D01*
X181994398Y-101312296D02*
X181946779Y-101150391D01*
X181946779Y-101150391D02*
X181899160Y-100826581D01*
X181899160Y-100826581D02*
X181899160Y-100583724D01*
X181899160Y-100583724D02*
X181946779Y-100259915D01*
X181946779Y-100259915D02*
X181994398Y-100098010D01*
X181994398Y-100098010D02*
X182089636Y-99936105D01*
X182089636Y-99936105D02*
X182232493Y-99855153D01*
X182232493Y-99855153D02*
X182327731Y-99855153D01*
X182327731Y-99855153D02*
X182470588Y-99936105D01*
X182470588Y-99936105D02*
X182518207Y-100017058D01*
X182899160Y-101069439D02*
X183375350Y-101069439D01*
X182803922Y-101555153D02*
X183137255Y-99855153D01*
X183137255Y-99855153D02*
X183470588Y-101555153D01*
X183803922Y-101555153D02*
X183803922Y-99855153D01*
X183803922Y-99855153D02*
X184137255Y-101069439D01*
X184137255Y-101069439D02*
X184470588Y-99855153D01*
X184470588Y-99855153D02*
X184470588Y-101555153D01*
X185661064Y-99774201D02*
X184803922Y-101959915D01*
X185851541Y-99855153D02*
X186184874Y-101555153D01*
X186184874Y-101555153D02*
X186518207Y-99855153D01*
X187422969Y-101555153D02*
X187089636Y-100745629D01*
X186851541Y-101555153D02*
X186851541Y-99855153D01*
X186851541Y-99855153D02*
X187232493Y-99855153D01*
X187232493Y-99855153D02*
X187327731Y-99936105D01*
X187327731Y-99936105D02*
X187375350Y-100017058D01*
X187375350Y-100017058D02*
X187422969Y-100178962D01*
X187422969Y-100178962D02*
X187422969Y-100421820D01*
X187422969Y-100421820D02*
X187375350Y-100583724D01*
X187375350Y-100583724D02*
X187327731Y-100664677D01*
X187327731Y-100664677D02*
X187232493Y-100745629D01*
X187232493Y-100745629D02*
X186851541Y-100745629D01*
X187803922Y-100017058D02*
X187851541Y-99936105D01*
X187851541Y-99936105D02*
X187946779Y-99855153D01*
X187946779Y-99855153D02*
X188184874Y-99855153D01*
X188184874Y-99855153D02*
X188280112Y-99936105D01*
X188280112Y-99936105D02*
X188327731Y-100017058D01*
X188327731Y-100017058D02*
X188375350Y-100178962D01*
X188375350Y-100178962D02*
X188375350Y-100340867D01*
X188375350Y-100340867D02*
X188327731Y-100583724D01*
X188327731Y-100583724D02*
X187756303Y-101555153D01*
X187756303Y-101555153D02*
X188375350Y-101555153D01*
X188803922Y-100907534D02*
X189565827Y-100907534D01*
X189184874Y-101555153D02*
X189184874Y-100259915D01*
X182470588Y-102673105D02*
X182375350Y-102592153D01*
X182375350Y-102592153D02*
X182232493Y-102592153D01*
X182232493Y-102592153D02*
X182089636Y-102673105D01*
X182089636Y-102673105D02*
X181994398Y-102835010D01*
X181994398Y-102835010D02*
X181946779Y-102996915D01*
X181946779Y-102996915D02*
X181899160Y-103320724D01*
X181899160Y-103320724D02*
X181899160Y-103563581D01*
X181899160Y-103563581D02*
X181946779Y-103887391D01*
X181946779Y-103887391D02*
X181994398Y-104049296D01*
X181994398Y-104049296D02*
X182089636Y-104211201D01*
X182089636Y-104211201D02*
X182232493Y-104292153D01*
X182232493Y-104292153D02*
X182327731Y-104292153D01*
X182327731Y-104292153D02*
X182470588Y-104211201D01*
X182470588Y-104211201D02*
X182518207Y-104130248D01*
X182518207Y-104130248D02*
X182518207Y-103563581D01*
X182518207Y-103563581D02*
X182327731Y-103563581D01*
X182946779Y-104292153D02*
X182946779Y-102592153D01*
X182946779Y-102592153D02*
X183518207Y-104292153D01*
X183518207Y-104292153D02*
X183518207Y-102592153D01*
X183994398Y-104292153D02*
X183994398Y-102592153D01*
X183994398Y-102592153D02*
X184232493Y-102592153D01*
X184232493Y-102592153D02*
X184375350Y-102673105D01*
X184375350Y-102673105D02*
X184470588Y-102835010D01*
X184470588Y-102835010D02*
X184518207Y-102996915D01*
X184518207Y-102996915D02*
X184565826Y-103320724D01*
X184565826Y-103320724D02*
X184565826Y-103563581D01*
X184565826Y-103563581D02*
X184518207Y-103887391D01*
X184518207Y-103887391D02*
X184470588Y-104049296D01*
X184470588Y-104049296D02*
X184375350Y-104211201D01*
X184375350Y-104211201D02*
X184232493Y-104292153D01*
X184232493Y-104292153D02*
X183994398Y-104292153D01*
X181803922Y-105329153D02*
X182375350Y-105329153D01*
X182089636Y-107029153D02*
X182089636Y-105329153D01*
X182708684Y-107029153D02*
X182708684Y-105329153D01*
X182708684Y-105329153D02*
X183089636Y-105329153D01*
X183089636Y-105329153D02*
X183184874Y-105410105D01*
X183184874Y-105410105D02*
X183232493Y-105491058D01*
X183232493Y-105491058D02*
X183280112Y-105652962D01*
X183280112Y-105652962D02*
X183280112Y-105895820D01*
X183280112Y-105895820D02*
X183232493Y-106057724D01*
X183232493Y-106057724D02*
X183184874Y-106138677D01*
X183184874Y-106138677D02*
X183089636Y-106219629D01*
X183089636Y-106219629D02*
X182708684Y-106219629D01*
X183661065Y-106948201D02*
X183803922Y-107029153D01*
X183803922Y-107029153D02*
X184042017Y-107029153D01*
X184042017Y-107029153D02*
X184137255Y-106948201D01*
X184137255Y-106948201D02*
X184184874Y-106867248D01*
X184184874Y-106867248D02*
X184232493Y-106705343D01*
X184232493Y-106705343D02*
X184232493Y-106543439D01*
X184232493Y-106543439D02*
X184184874Y-106381534D01*
X184184874Y-106381534D02*
X184137255Y-106300581D01*
X184137255Y-106300581D02*
X184042017Y-106219629D01*
X184042017Y-106219629D02*
X183851541Y-106138677D01*
X183851541Y-106138677D02*
X183756303Y-106057724D01*
X183756303Y-106057724D02*
X183708684Y-105976772D01*
X183708684Y-105976772D02*
X183661065Y-105814867D01*
X183661065Y-105814867D02*
X183661065Y-105652962D01*
X183661065Y-105652962D02*
X183708684Y-105491058D01*
X183708684Y-105491058D02*
X183756303Y-105410105D01*
X183756303Y-105410105D02*
X183851541Y-105329153D01*
X183851541Y-105329153D02*
X184089636Y-105329153D01*
X184089636Y-105329153D02*
X184232493Y-105410105D01*
X182137255Y-108066153D02*
X182327731Y-108066153D01*
X182327731Y-108066153D02*
X182422969Y-108147105D01*
X182422969Y-108147105D02*
X182518207Y-108309010D01*
X182518207Y-108309010D02*
X182565826Y-108632820D01*
X182565826Y-108632820D02*
X182565826Y-109199486D01*
X182565826Y-109199486D02*
X182518207Y-109523296D01*
X182518207Y-109523296D02*
X182422969Y-109685201D01*
X182422969Y-109685201D02*
X182327731Y-109766153D01*
X182327731Y-109766153D02*
X182137255Y-109766153D01*
X182137255Y-109766153D02*
X182042017Y-109685201D01*
X182042017Y-109685201D02*
X181946779Y-109523296D01*
X181946779Y-109523296D02*
X181899160Y-109199486D01*
X181899160Y-109199486D02*
X181899160Y-108632820D01*
X181899160Y-108632820D02*
X181946779Y-108309010D01*
X181946779Y-108309010D02*
X182042017Y-108147105D01*
X182042017Y-108147105D02*
X182137255Y-108066153D01*
X182946779Y-108228058D02*
X182994398Y-108147105D01*
X182994398Y-108147105D02*
X183089636Y-108066153D01*
X183089636Y-108066153D02*
X183327731Y-108066153D01*
X183327731Y-108066153D02*
X183422969Y-108147105D01*
X183422969Y-108147105D02*
X183470588Y-108228058D01*
X183470588Y-108228058D02*
X183518207Y-108389962D01*
X183518207Y-108389962D02*
X183518207Y-108551867D01*
X183518207Y-108551867D02*
X183470588Y-108794724D01*
X183470588Y-108794724D02*
X182899160Y-109766153D01*
X182899160Y-109766153D02*
X183518207Y-109766153D01*
X156048030Y-109371058D02*
X156095649Y-109290105D01*
X156095649Y-109290105D02*
X156190887Y-109209153D01*
X156190887Y-109209153D02*
X156428982Y-109209153D01*
X156428982Y-109209153D02*
X156524220Y-109290105D01*
X156524220Y-109290105D02*
X156571839Y-109371058D01*
X156571839Y-109371058D02*
X156619458Y-109532962D01*
X156619458Y-109532962D02*
X156619458Y-109694867D01*
X156619458Y-109694867D02*
X156571839Y-109937724D01*
X156571839Y-109937724D02*
X156000411Y-110909153D01*
X156000411Y-110909153D02*
X156619458Y-110909153D01*
X157238506Y-109209153D02*
X157333744Y-109209153D01*
X157333744Y-109209153D02*
X157428982Y-109290105D01*
X157428982Y-109290105D02*
X157476601Y-109371058D01*
X157476601Y-109371058D02*
X157524220Y-109532962D01*
X157524220Y-109532962D02*
X157571839Y-109856772D01*
X157571839Y-109856772D02*
X157571839Y-110261534D01*
X157571839Y-110261534D02*
X157524220Y-110585343D01*
X157524220Y-110585343D02*
X157476601Y-110747248D01*
X157476601Y-110747248D02*
X157428982Y-110828201D01*
X157428982Y-110828201D02*
X157333744Y-110909153D01*
X157333744Y-110909153D02*
X157238506Y-110909153D01*
X157238506Y-110909153D02*
X157143268Y-110828201D01*
X157143268Y-110828201D02*
X157095649Y-110747248D01*
X157095649Y-110747248D02*
X157048030Y-110585343D01*
X157048030Y-110585343D02*
X157000411Y-110261534D01*
X157000411Y-110261534D02*
X157000411Y-109856772D01*
X157000411Y-109856772D02*
X157048030Y-109532962D01*
X157048030Y-109532962D02*
X157095649Y-109371058D01*
X157095649Y-109371058D02*
X157143268Y-109290105D01*
X157143268Y-109290105D02*
X157238506Y-109209153D01*
X185343969Y-111264819D02*
X184867779Y-111264819D01*
X184867779Y-111264819D02*
X184820160Y-111741009D01*
X184820160Y-111741009D02*
X184867779Y-111693390D01*
X184867779Y-111693390D02*
X184963017Y-111645771D01*
X184963017Y-111645771D02*
X185201112Y-111645771D01*
X185201112Y-111645771D02*
X185296350Y-111693390D01*
X185296350Y-111693390D02*
X185343969Y-111741009D01*
X185343969Y-111741009D02*
X185391588Y-111836247D01*
X185391588Y-111836247D02*
X185391588Y-112074342D01*
X185391588Y-112074342D02*
X185343969Y-112169580D01*
X185343969Y-112169580D02*
X185296350Y-112217200D01*
X185296350Y-112217200D02*
X185201112Y-112264819D01*
X185201112Y-112264819D02*
X184963017Y-112264819D01*
X184963017Y-112264819D02*
X184867779Y-112217200D01*
X184867779Y-112217200D02*
X184820160Y-112169580D01*
X166366969Y-49885295D02*
X166595541Y-49961485D01*
X166595541Y-49961485D02*
X166671731Y-50037676D01*
X166671731Y-50037676D02*
X166747922Y-50190057D01*
X166747922Y-50190057D02*
X166747922Y-50418628D01*
X166747922Y-50418628D02*
X166671731Y-50571009D01*
X166671731Y-50571009D02*
X166595541Y-50647200D01*
X166595541Y-50647200D02*
X166443160Y-50723390D01*
X166443160Y-50723390D02*
X165833636Y-50723390D01*
X165833636Y-50723390D02*
X165833636Y-49123390D01*
X165833636Y-49123390D02*
X166366969Y-49123390D01*
X166366969Y-49123390D02*
X166519350Y-49199580D01*
X166519350Y-49199580D02*
X166595541Y-49275771D01*
X166595541Y-49275771D02*
X166671731Y-49428152D01*
X166671731Y-49428152D02*
X166671731Y-49580533D01*
X166671731Y-49580533D02*
X166595541Y-49732914D01*
X166595541Y-49732914D02*
X166519350Y-49809104D01*
X166519350Y-49809104D02*
X166366969Y-49885295D01*
X166366969Y-49885295D02*
X165833636Y-49885295D01*
X167357445Y-50647200D02*
X167586017Y-50723390D01*
X167586017Y-50723390D02*
X167966969Y-50723390D01*
X167966969Y-50723390D02*
X168119350Y-50647200D01*
X168119350Y-50647200D02*
X168195541Y-50571009D01*
X168195541Y-50571009D02*
X168271731Y-50418628D01*
X168271731Y-50418628D02*
X168271731Y-50266247D01*
X168271731Y-50266247D02*
X168195541Y-50113866D01*
X168195541Y-50113866D02*
X168119350Y-50037676D01*
X168119350Y-50037676D02*
X167966969Y-49961485D01*
X167966969Y-49961485D02*
X167662207Y-49885295D01*
X167662207Y-49885295D02*
X167509826Y-49809104D01*
X167509826Y-49809104D02*
X167433636Y-49732914D01*
X167433636Y-49732914D02*
X167357445Y-49580533D01*
X167357445Y-49580533D02*
X167357445Y-49428152D01*
X167357445Y-49428152D02*
X167433636Y-49275771D01*
X167433636Y-49275771D02*
X167509826Y-49199580D01*
X167509826Y-49199580D02*
X167662207Y-49123390D01*
X167662207Y-49123390D02*
X168043160Y-49123390D01*
X168043160Y-49123390D02*
X168271731Y-49199580D01*
X169262208Y-49123390D02*
X169566970Y-49123390D01*
X169566970Y-49123390D02*
X169719351Y-49199580D01*
X169719351Y-49199580D02*
X169871732Y-49351961D01*
X169871732Y-49351961D02*
X169947922Y-49656723D01*
X169947922Y-49656723D02*
X169947922Y-50190057D01*
X169947922Y-50190057D02*
X169871732Y-50494819D01*
X169871732Y-50494819D02*
X169719351Y-50647200D01*
X169719351Y-50647200D02*
X169566970Y-50723390D01*
X169566970Y-50723390D02*
X169262208Y-50723390D01*
X169262208Y-50723390D02*
X169109827Y-50647200D01*
X169109827Y-50647200D02*
X168957446Y-50494819D01*
X168957446Y-50494819D02*
X168881255Y-50190057D01*
X168881255Y-50190057D02*
X168881255Y-49656723D01*
X168881255Y-49656723D02*
X168957446Y-49351961D01*
X168957446Y-49351961D02*
X169109827Y-49199580D01*
X169109827Y-49199580D02*
X169262208Y-49123390D01*
X170633636Y-50723390D02*
X170633636Y-49123390D01*
X170633636Y-49123390D02*
X171014588Y-49123390D01*
X171014588Y-49123390D02*
X171243160Y-49199580D01*
X171243160Y-49199580D02*
X171395541Y-49351961D01*
X171395541Y-49351961D02*
X171471731Y-49504342D01*
X171471731Y-49504342D02*
X171547922Y-49809104D01*
X171547922Y-49809104D02*
X171547922Y-50037676D01*
X171547922Y-50037676D02*
X171471731Y-50342438D01*
X171471731Y-50342438D02*
X171395541Y-50494819D01*
X171395541Y-50494819D02*
X171243160Y-50647200D01*
X171243160Y-50647200D02*
X171014588Y-50723390D01*
X171014588Y-50723390D02*
X170633636Y-50723390D01*
X174366970Y-50723390D02*
X173833636Y-49961485D01*
X173452684Y-50723390D02*
X173452684Y-49123390D01*
X173452684Y-49123390D02*
X174062208Y-49123390D01*
X174062208Y-49123390D02*
X174214589Y-49199580D01*
X174214589Y-49199580D02*
X174290779Y-49275771D01*
X174290779Y-49275771D02*
X174366970Y-49428152D01*
X174366970Y-49428152D02*
X174366970Y-49656723D01*
X174366970Y-49656723D02*
X174290779Y-49809104D01*
X174290779Y-49809104D02*
X174214589Y-49885295D01*
X174214589Y-49885295D02*
X174062208Y-49961485D01*
X174062208Y-49961485D02*
X173452684Y-49961485D01*
X174976493Y-50266247D02*
X175738398Y-50266247D01*
X174824112Y-50723390D02*
X175357446Y-49123390D01*
X175357446Y-49123390D02*
X175890779Y-50723390D01*
X177338399Y-50571009D02*
X177262208Y-50647200D01*
X177262208Y-50647200D02*
X177033637Y-50723390D01*
X177033637Y-50723390D02*
X176881256Y-50723390D01*
X176881256Y-50723390D02*
X176652684Y-50647200D01*
X176652684Y-50647200D02*
X176500303Y-50494819D01*
X176500303Y-50494819D02*
X176424113Y-50342438D01*
X176424113Y-50342438D02*
X176347922Y-50037676D01*
X176347922Y-50037676D02*
X176347922Y-49809104D01*
X176347922Y-49809104D02*
X176424113Y-49504342D01*
X176424113Y-49504342D02*
X176500303Y-49351961D01*
X176500303Y-49351961D02*
X176652684Y-49199580D01*
X176652684Y-49199580D02*
X176881256Y-49123390D01*
X176881256Y-49123390D02*
X177033637Y-49123390D01*
X177033637Y-49123390D02*
X177262208Y-49199580D01*
X177262208Y-49199580D02*
X177338399Y-49275771D01*
X178024113Y-50723390D02*
X178024113Y-49123390D01*
X178786018Y-50723390D02*
X178786018Y-49123390D01*
X178786018Y-49123390D02*
X179700304Y-50723390D01*
X179700304Y-50723390D02*
X179700304Y-49123390D01*
X181300303Y-49199580D02*
X181147922Y-49123390D01*
X181147922Y-49123390D02*
X180919351Y-49123390D01*
X180919351Y-49123390D02*
X180690779Y-49199580D01*
X180690779Y-49199580D02*
X180538398Y-49351961D01*
X180538398Y-49351961D02*
X180462208Y-49504342D01*
X180462208Y-49504342D02*
X180386017Y-49809104D01*
X180386017Y-49809104D02*
X180386017Y-50037676D01*
X180386017Y-50037676D02*
X180462208Y-50342438D01*
X180462208Y-50342438D02*
X180538398Y-50494819D01*
X180538398Y-50494819D02*
X180690779Y-50647200D01*
X180690779Y-50647200D02*
X180919351Y-50723390D01*
X180919351Y-50723390D02*
X181071732Y-50723390D01*
X181071732Y-50723390D02*
X181300303Y-50647200D01*
X181300303Y-50647200D02*
X181376494Y-50571009D01*
X181376494Y-50571009D02*
X181376494Y-50037676D01*
X181376494Y-50037676D02*
X181071732Y-50037676D01*
D11*
%TO.C,J10*%
X180470000Y-75299600D02*
X181110000Y-75299600D01*
X181110000Y-75299600D02*
X181110000Y-74899600D01*
X174130000Y-75059600D02*
X180870000Y-75059600D01*
X174130000Y-75059600D02*
X174130000Y-64198600D01*
X175250000Y-75059600D02*
X175250000Y-64198600D01*
X180350000Y-75059600D02*
X180350000Y-64198600D01*
X180870000Y-75059600D02*
X180870000Y-64198600D01*
X174130000Y-64198600D02*
X180870000Y-64198600D01*
%TO.C,J8*%
X180470000Y-98650800D02*
X181110000Y-98650800D01*
X181110000Y-98650800D02*
X181110000Y-98250800D01*
X174130000Y-98410800D02*
X180870000Y-98410800D01*
X174130000Y-98410800D02*
X174130000Y-87549800D01*
X175250000Y-98410800D02*
X175250000Y-87549800D01*
X180350000Y-98410800D02*
X180350000Y-87549800D01*
X180870000Y-98410800D02*
X180870000Y-87549800D01*
X174130000Y-87549800D02*
X180870000Y-87549800D01*
%TO.C,J11*%
X180470000Y-63624000D02*
X181110000Y-63624000D01*
X181110000Y-63624000D02*
X181110000Y-63224000D01*
X174130000Y-63384000D02*
X180870000Y-63384000D01*
X174130000Y-63384000D02*
X174130000Y-52523000D01*
X175250000Y-63384000D02*
X175250000Y-52523000D01*
X180350000Y-63384000D02*
X180350000Y-52523000D01*
X180870000Y-63384000D02*
X180870000Y-52523000D01*
X174130000Y-52523000D02*
X180870000Y-52523000D01*
%TO.C,J13*%
X180470000Y-122002000D02*
X181110000Y-122002000D01*
X181110000Y-122002000D02*
X181110000Y-121602000D01*
X174130000Y-121762000D02*
X180870000Y-121762000D01*
X174130000Y-121762000D02*
X174130000Y-110901000D01*
X175250000Y-121762000D02*
X175250000Y-110901000D01*
X180350000Y-121762000D02*
X180350000Y-110901000D01*
X180870000Y-121762000D02*
X180870000Y-110901000D01*
X174130000Y-110901000D02*
X180870000Y-110901000D01*
%TO.C,J9*%
X180470000Y-86975200D02*
X181110000Y-86975200D01*
X181110000Y-86975200D02*
X181110000Y-86575200D01*
X174130000Y-86735200D02*
X180870000Y-86735200D01*
X174130000Y-86735200D02*
X174130000Y-75874200D01*
X175250000Y-86735200D02*
X175250000Y-75874200D01*
X180350000Y-86735200D02*
X180350000Y-75874200D01*
X180870000Y-86735200D02*
X180870000Y-75874200D01*
X174130000Y-75874200D02*
X180870000Y-75874200D01*
%TO.C,J6*%
X166148000Y-98978400D02*
X165508000Y-98978400D01*
X165508000Y-98978400D02*
X165508000Y-99378400D01*
X172488000Y-99218400D02*
X165748000Y-99218400D01*
X172488000Y-99218400D02*
X172488000Y-110079400D01*
X171368000Y-99218400D02*
X171368000Y-110079400D01*
X166268000Y-99218400D02*
X166268000Y-110079400D01*
X165748000Y-99218400D02*
X165748000Y-110079400D01*
X172488000Y-110079400D02*
X165748000Y-110079400D01*
%TO.C,J12*%
X172088000Y-122002000D02*
X172728000Y-122002000D01*
X172728000Y-122002000D02*
X172728000Y-121602000D01*
X165748000Y-121762000D02*
X172488000Y-121762000D01*
X165748000Y-121762000D02*
X165748000Y-110901000D01*
X166868000Y-121762000D02*
X166868000Y-110901000D01*
X171968000Y-121762000D02*
X171968000Y-110901000D01*
X172488000Y-121762000D02*
X172488000Y-110901000D01*
X165748000Y-110901000D02*
X172488000Y-110901000D01*
%TO.C,J5*%
X166148000Y-87304800D02*
X165508000Y-87304800D01*
X165508000Y-87304800D02*
X165508000Y-87704800D01*
X172488000Y-87544800D02*
X165748000Y-87544800D01*
X172488000Y-87544800D02*
X172488000Y-98405800D01*
X171368000Y-87544800D02*
X171368000Y-98405800D01*
X166268000Y-87544800D02*
X166268000Y-98405800D01*
X165748000Y-87544800D02*
X165748000Y-98405800D01*
X172488000Y-98405800D02*
X165748000Y-98405800D01*
%TO.C,J4*%
X166148000Y-75631200D02*
X165508000Y-75631200D01*
X165508000Y-75631200D02*
X165508000Y-76031200D01*
X172488000Y-75871200D02*
X165748000Y-75871200D01*
X172488000Y-75871200D02*
X172488000Y-86732200D01*
X171368000Y-75871200D02*
X171368000Y-86732200D01*
X166268000Y-75871200D02*
X166268000Y-86732200D01*
X165748000Y-75871200D02*
X165748000Y-86732200D01*
X172488000Y-86732200D02*
X165748000Y-86732200D01*
%TO.C,J7*%
X180470000Y-110326400D02*
X181110000Y-110326400D01*
X181110000Y-110326400D02*
X181110000Y-109926400D01*
X174130000Y-110086400D02*
X180870000Y-110086400D01*
X174130000Y-110086400D02*
X174130000Y-99225400D01*
X175250000Y-110086400D02*
X175250000Y-99225400D01*
X180350000Y-110086400D02*
X180350000Y-99225400D01*
X180870000Y-110086400D02*
X180870000Y-99225400D01*
X174130000Y-99225400D02*
X180870000Y-99225400D01*
%TO.C,J3*%
X166148000Y-63957600D02*
X165508000Y-63957600D01*
X165508000Y-63957600D02*
X165508000Y-64357600D01*
X172488000Y-64197600D02*
X165748000Y-64197600D01*
X172488000Y-64197600D02*
X172488000Y-75058600D01*
X171368000Y-64197600D02*
X171368000Y-75058600D01*
X166268000Y-64197600D02*
X166268000Y-75058600D01*
X165748000Y-64197600D02*
X165748000Y-75058600D01*
X172488000Y-75058600D02*
X165748000Y-75058600D01*
%TO.C,J2*%
X166148000Y-52284000D02*
X165508000Y-52284000D01*
X165508000Y-52284000D02*
X165508000Y-52684000D01*
X172488000Y-52524000D02*
X165748000Y-52524000D01*
X172488000Y-52524000D02*
X172488000Y-63385000D01*
X171368000Y-52524000D02*
X171368000Y-63385000D01*
X166268000Y-52524000D02*
X166268000Y-63385000D01*
X165748000Y-52524000D02*
X165748000Y-63385000D01*
X172488000Y-63385000D02*
X165748000Y-63385000D01*
%TD*%
%LPC*%
D12*
%TO.C,J10*%
X177500000Y-73439600D03*
D13*
X177500000Y-70899600D03*
X177500000Y-68359600D03*
X177500000Y-65819600D03*
%TD*%
D12*
%TO.C,J8*%
X177500000Y-96790800D03*
D13*
X177500000Y-94250800D03*
X177500000Y-91710800D03*
X177500000Y-89170800D03*
%TD*%
D12*
%TO.C,J11*%
X177500000Y-61764000D03*
D13*
X177500000Y-59224000D03*
X177500000Y-56684000D03*
X177500000Y-54144000D03*
%TD*%
D12*
%TO.C,J13*%
X177500000Y-120142000D03*
D13*
X177500000Y-117602000D03*
X177500000Y-115062000D03*
X177500000Y-112522000D03*
%TD*%
D12*
%TO.C,J9*%
X177500000Y-85115200D03*
D13*
X177500000Y-82575200D03*
X177500000Y-80035200D03*
X177500000Y-77495200D03*
%TD*%
D12*
%TO.C,J6*%
X169118000Y-100838400D03*
D13*
X169118000Y-103378400D03*
X169118000Y-105918400D03*
X169118000Y-108458400D03*
%TD*%
D12*
%TO.C,J12*%
X169118000Y-120142000D03*
D13*
X169118000Y-117602000D03*
X169118000Y-115062000D03*
X169118000Y-112522000D03*
%TD*%
D14*
%TO.C,J14*%
X186944000Y-111633000D03*
X186944000Y-114173000D03*
X186944000Y-116713000D03*
X186944000Y-119253000D03*
X186944000Y-121793000D03*
X189484000Y-111633000D03*
X189484000Y-114173000D03*
X189484000Y-116713000D03*
X189484000Y-119253000D03*
X189484000Y-121793000D03*
X192024000Y-111633000D03*
X192024000Y-114173000D03*
X192024000Y-116713000D03*
X192024000Y-119253000D03*
X192024000Y-121793000D03*
X194564000Y-111633000D03*
X194564000Y-114173000D03*
X194564000Y-116713000D03*
X194564000Y-119253000D03*
X194564000Y-121793000D03*
X197104000Y-111633000D03*
X197104000Y-114173000D03*
X197104000Y-116713000D03*
X197104000Y-119253000D03*
X197104000Y-121793000D03*
%TD*%
D12*
%TO.C,J5*%
X169118000Y-89164800D03*
D13*
X169118000Y-91704800D03*
X169118000Y-94244800D03*
X169118000Y-96784800D03*
%TD*%
D12*
%TO.C,J4*%
X169118000Y-77491200D03*
D13*
X169118000Y-80031200D03*
X169118000Y-82571200D03*
X169118000Y-85111200D03*
%TD*%
D12*
%TO.C,J7*%
X177500000Y-108466400D03*
D13*
X177500000Y-105926400D03*
X177500000Y-103386400D03*
X177500000Y-100846400D03*
%TD*%
D12*
%TO.C,J3*%
X169118000Y-65817600D03*
D13*
X169118000Y-68357600D03*
X169118000Y-70897600D03*
X169118000Y-73437600D03*
%TD*%
D12*
%TO.C,J2*%
X169118000Y-54144000D03*
D13*
X169118000Y-56684000D03*
X169118000Y-59224000D03*
X169118000Y-61764000D03*
%TD*%
D15*
%TO.C,J1*%
X192532000Y-56896000D03*
D16*
X192532000Y-59436000D03*
X192532000Y-61976000D03*
X192532000Y-64516000D03*
X192532000Y-67056000D03*
X192532000Y-69596000D03*
X192532000Y-72136000D03*
X192532000Y-74676000D03*
X192532000Y-77216000D03*
X192532000Y-79756000D03*
X192532000Y-82296000D03*
X192532000Y-84836000D03*
X192532000Y-87376000D03*
X192532000Y-89916000D03*
X192532000Y-92456000D03*
X192532000Y-94996000D03*
X192532000Y-97536000D03*
X192532000Y-100076000D03*
X192532000Y-102616000D03*
X192532000Y-105156000D03*
X195072000Y-105156000D03*
X195072000Y-102616000D03*
X195072000Y-100076000D03*
X195072000Y-97536000D03*
X195072000Y-94996000D03*
X195072000Y-92456000D03*
X195072000Y-89916000D03*
X195072000Y-87376000D03*
X195072000Y-84836000D03*
X195072000Y-82296000D03*
X195072000Y-79756000D03*
X195072000Y-77216000D03*
X195072000Y-74676000D03*
X195072000Y-72136000D03*
X195072000Y-69596000D03*
X195072000Y-67056000D03*
X195072000Y-64516000D03*
X195072000Y-61976000D03*
X195072000Y-59436000D03*
X195072000Y-56896000D03*
%TD*%
%LPD*%
M02*
