%TF.GenerationSoftware,KiCad,Pcbnew,7.0.5-7.0.5~ubuntu22.04.1*%
%TF.CreationDate,2023-08-20T16:34:46-07:00*%
%TF.ProjectId,terminal_strip_adaptor,7465726d-696e-4616-9c5f-73747269705f,rev?*%
%TF.SameCoordinates,Original*%
%TF.FileFunction,Drillmap*%
%TF.FilePolarity,Positive*%
%FSLAX45Y45*%
G04 Gerber Fmt 4.5, Leading zero omitted, Abs format (unit mm)*
G04 Created by KiCad (PCBNEW 7.0.5-7.0.5~ubuntu22.04.1) date 2023-08-20 16:34:46*
%MOMM*%
%LPD*%
G01*
G04 APERTURE LIST*
%ADD10C,0.100000*%
%ADD11C,0.200000*%
%ADD12C,0.040000*%
%ADD13C,0.080000*%
%ADD14C,0.110000*%
G04 APERTURE END LIST*
D10*
X15240000Y-4673600D02*
X19964400Y-4673600D01*
X19964400Y-12420600D01*
X15240000Y-12420600D01*
X15240000Y-4673600D01*
D11*
D12*
X17226600Y-11994200D02*
X17266600Y-12034200D01*
X17266600Y-11994200D02*
X17226600Y-12034200D01*
X17328200Y-11867200D02*
X17368200Y-11907200D01*
X17368200Y-11867200D02*
X17328200Y-11907200D01*
X17963200Y-11359200D02*
X18003200Y-11399200D01*
X18003200Y-11359200D02*
X17963200Y-11399200D01*
X18064800Y-11562400D02*
X18104800Y-11602400D01*
X18104800Y-11562400D02*
X18064800Y-11602400D01*
X18268000Y-5009200D02*
X18308000Y-5049200D01*
X18308000Y-5009200D02*
X18268000Y-5049200D01*
X18268000Y-7193600D02*
X18308000Y-7233600D01*
X18308000Y-7193600D02*
X18268000Y-7233600D01*
X18369600Y-10826640D02*
X18409600Y-10866640D01*
X18409600Y-10826640D02*
X18369600Y-10866640D01*
X18420400Y-10368600D02*
X18460400Y-10408600D01*
X18460400Y-10368600D02*
X18420400Y-10408600D01*
X18559000Y-4831400D02*
X18599000Y-4871400D01*
X18599000Y-4831400D02*
X18559000Y-4871400D01*
X18598200Y-8743000D02*
X18638200Y-8783000D01*
X18638200Y-8743000D02*
X18598200Y-8783000D01*
X18674400Y-6406200D02*
X18714400Y-6446200D01*
X18714400Y-6406200D02*
X18674400Y-6446200D01*
X18776000Y-10267000D02*
X18816000Y-10307000D01*
X18816000Y-10267000D02*
X18776000Y-10307000D01*
X18826800Y-8590600D02*
X18866800Y-8630600D01*
X18866800Y-8590600D02*
X18826800Y-8630600D01*
X18852200Y-8260400D02*
X18892200Y-8300400D01*
X18892200Y-8260400D02*
X18852200Y-8300400D01*
X19368850Y-5314000D02*
X19408850Y-5354000D01*
X19408850Y-5314000D02*
X19368850Y-5354000D01*
X19512600Y-5364800D02*
X19552600Y-5404800D01*
X19552600Y-5364800D02*
X19512600Y-5404800D01*
D13*
X18734400Y-11163300D02*
G75*
G03*
X18734400Y-11163300I-40000J0D01*
G01*
X18734400Y-11417300D02*
G75*
G03*
X18734400Y-11417300I-40000J0D01*
G01*
X18734400Y-11671300D02*
G75*
G03*
X18734400Y-11671300I-40000J0D01*
G01*
X18734400Y-11925300D02*
G75*
G03*
X18734400Y-11925300I-40000J0D01*
G01*
X18734400Y-12179300D02*
G75*
G03*
X18734400Y-12179300I-40000J0D01*
G01*
X18988400Y-11163300D02*
G75*
G03*
X18988400Y-11163300I-40000J0D01*
G01*
X18988400Y-11417300D02*
G75*
G03*
X18988400Y-11417300I-40000J0D01*
G01*
X18988400Y-11671300D02*
G75*
G03*
X18988400Y-11671300I-40000J0D01*
G01*
X18988400Y-11925300D02*
G75*
G03*
X18988400Y-11925300I-40000J0D01*
G01*
X18988400Y-12179300D02*
G75*
G03*
X18988400Y-12179300I-40000J0D01*
G01*
X19242400Y-11163300D02*
G75*
G03*
X19242400Y-11163300I-40000J0D01*
G01*
X19242400Y-11417300D02*
G75*
G03*
X19242400Y-11417300I-40000J0D01*
G01*
X19242400Y-11671300D02*
G75*
G03*
X19242400Y-11671300I-40000J0D01*
G01*
X19242400Y-11925300D02*
G75*
G03*
X19242400Y-11925300I-40000J0D01*
G01*
X19242400Y-12179300D02*
G75*
G03*
X19242400Y-12179300I-40000J0D01*
G01*
X19496400Y-11163300D02*
G75*
G03*
X19496400Y-11163300I-40000J0D01*
G01*
X19496400Y-11417300D02*
G75*
G03*
X19496400Y-11417300I-40000J0D01*
G01*
X19496400Y-11671300D02*
G75*
G03*
X19496400Y-11671300I-40000J0D01*
G01*
X19496400Y-11925300D02*
G75*
G03*
X19496400Y-11925300I-40000J0D01*
G01*
X19496400Y-12179300D02*
G75*
G03*
X19496400Y-12179300I-40000J0D01*
G01*
X19750400Y-11163300D02*
G75*
G03*
X19750400Y-11163300I-40000J0D01*
G01*
X19750400Y-11417300D02*
G75*
G03*
X19750400Y-11417300I-40000J0D01*
G01*
X19750400Y-11671300D02*
G75*
G03*
X19750400Y-11671300I-40000J0D01*
G01*
X19750400Y-11925300D02*
G75*
G03*
X19750400Y-11925300I-40000J0D01*
G01*
X19750400Y-12179300D02*
G75*
G03*
X19750400Y-12179300I-40000J0D01*
G01*
D10*
X19253200Y-5639600D02*
X19253200Y-5739600D01*
X19203200Y-5689600D02*
X19303200Y-5689600D01*
X19253200Y-5893600D02*
X19253200Y-5993600D01*
X19203200Y-5943600D02*
X19303200Y-5943600D01*
X19253200Y-6147600D02*
X19253200Y-6247600D01*
X19203200Y-6197600D02*
X19303200Y-6197600D01*
X19253200Y-6401600D02*
X19253200Y-6501600D01*
X19203200Y-6451600D02*
X19303200Y-6451600D01*
X19253200Y-6655600D02*
X19253200Y-6755600D01*
X19203200Y-6705600D02*
X19303200Y-6705600D01*
X19253200Y-6909600D02*
X19253200Y-7009600D01*
X19203200Y-6959600D02*
X19303200Y-6959600D01*
X19253200Y-7163600D02*
X19253200Y-7263600D01*
X19203200Y-7213600D02*
X19303200Y-7213600D01*
X19253200Y-7417600D02*
X19253200Y-7517600D01*
X19203200Y-7467600D02*
X19303200Y-7467600D01*
X19253200Y-7671600D02*
X19253200Y-7771600D01*
X19203200Y-7721600D02*
X19303200Y-7721600D01*
X19253200Y-7925600D02*
X19253200Y-8025600D01*
X19203200Y-7975600D02*
X19303200Y-7975600D01*
X19253200Y-8179600D02*
X19253200Y-8279600D01*
X19203200Y-8229600D02*
X19303200Y-8229600D01*
X19253200Y-8433600D02*
X19253200Y-8533600D01*
X19203200Y-8483600D02*
X19303200Y-8483600D01*
X19253200Y-8687600D02*
X19253200Y-8787600D01*
X19203200Y-8737600D02*
X19303200Y-8737600D01*
X19253200Y-8941600D02*
X19253200Y-9041600D01*
X19203200Y-8991600D02*
X19303200Y-8991600D01*
X19253200Y-9195600D02*
X19253200Y-9295600D01*
X19203200Y-9245600D02*
X19303200Y-9245600D01*
X19253200Y-9449600D02*
X19253200Y-9549600D01*
X19203200Y-9499600D02*
X19303200Y-9499600D01*
X19253200Y-9703600D02*
X19253200Y-9803600D01*
X19203200Y-9753600D02*
X19303200Y-9753600D01*
X19253200Y-9957600D02*
X19253200Y-10057600D01*
X19203200Y-10007600D02*
X19303200Y-10007600D01*
X19253200Y-10211600D02*
X19253200Y-10311600D01*
X19203200Y-10261600D02*
X19303200Y-10261600D01*
X19253200Y-10465600D02*
X19253200Y-10565600D01*
X19203200Y-10515600D02*
X19303200Y-10515600D01*
X19507200Y-5639600D02*
X19507200Y-5739600D01*
X19457200Y-5689600D02*
X19557200Y-5689600D01*
X19507200Y-5893600D02*
X19507200Y-5993600D01*
X19457200Y-5943600D02*
X19557200Y-5943600D01*
X19507200Y-6147600D02*
X19507200Y-6247600D01*
X19457200Y-6197600D02*
X19557200Y-6197600D01*
X19507200Y-6401600D02*
X19507200Y-6501600D01*
X19457200Y-6451600D02*
X19557200Y-6451600D01*
X19507200Y-6655600D02*
X19507200Y-6755600D01*
X19457200Y-6705600D02*
X19557200Y-6705600D01*
X19507200Y-6909600D02*
X19507200Y-7009600D01*
X19457200Y-6959600D02*
X19557200Y-6959600D01*
X19507200Y-7163600D02*
X19507200Y-7263600D01*
X19457200Y-7213600D02*
X19557200Y-7213600D01*
X19507200Y-7417600D02*
X19507200Y-7517600D01*
X19457200Y-7467600D02*
X19557200Y-7467600D01*
X19507200Y-7671600D02*
X19507200Y-7771600D01*
X19457200Y-7721600D02*
X19557200Y-7721600D01*
X19507200Y-7925600D02*
X19507200Y-8025600D01*
X19457200Y-7975600D02*
X19557200Y-7975600D01*
X19507200Y-8179600D02*
X19507200Y-8279600D01*
X19457200Y-8229600D02*
X19557200Y-8229600D01*
X19507200Y-8433600D02*
X19507200Y-8533600D01*
X19457200Y-8483600D02*
X19557200Y-8483600D01*
X19507200Y-8687600D02*
X19507200Y-8787600D01*
X19457200Y-8737600D02*
X19557200Y-8737600D01*
X19507200Y-8941600D02*
X19507200Y-9041600D01*
X19457200Y-8991600D02*
X19557200Y-8991600D01*
X19507200Y-9195600D02*
X19507200Y-9295600D01*
X19457200Y-9245600D02*
X19557200Y-9245600D01*
X19507200Y-9449600D02*
X19507200Y-9549600D01*
X19457200Y-9499600D02*
X19557200Y-9499600D01*
X19507200Y-9703600D02*
X19507200Y-9803600D01*
X19457200Y-9753600D02*
X19557200Y-9753600D01*
X19507200Y-9957600D02*
X19507200Y-10057600D01*
X19457200Y-10007600D02*
X19557200Y-10007600D01*
X19507200Y-10211600D02*
X19507200Y-10311600D01*
X19457200Y-10261600D02*
X19557200Y-10261600D01*
X19507200Y-10465600D02*
X19507200Y-10565600D01*
X19457200Y-10515600D02*
X19557200Y-10515600D01*
D14*
X16950691Y-5453291D02*
X16950691Y-5375509D01*
X16872909Y-5375509D01*
X16872909Y-5453291D01*
X16950691Y-5453291D01*
X16950691Y-5707291D02*
X16950691Y-5629509D01*
X16872909Y-5629509D01*
X16872909Y-5707291D01*
X16950691Y-5707291D01*
X16950691Y-5961291D02*
X16950691Y-5883509D01*
X16872909Y-5883509D01*
X16872909Y-5961291D01*
X16950691Y-5961291D01*
X16950691Y-6215291D02*
X16950691Y-6137509D01*
X16872909Y-6137509D01*
X16872909Y-6215291D01*
X16950691Y-6215291D01*
X16950691Y-6620651D02*
X16950691Y-6542869D01*
X16872909Y-6542869D01*
X16872909Y-6620651D01*
X16950691Y-6620651D01*
X16950691Y-6874651D02*
X16950691Y-6796869D01*
X16872909Y-6796869D01*
X16872909Y-6874651D01*
X16950691Y-6874651D01*
X16950691Y-7128651D02*
X16950691Y-7050869D01*
X16872909Y-7050869D01*
X16872909Y-7128651D01*
X16950691Y-7128651D01*
X16950691Y-7382651D02*
X16950691Y-7304869D01*
X16872909Y-7304869D01*
X16872909Y-7382651D01*
X16950691Y-7382651D01*
X16950691Y-7788011D02*
X16950691Y-7710229D01*
X16872909Y-7710229D01*
X16872909Y-7788011D01*
X16950691Y-7788011D01*
X16950691Y-8042011D02*
X16950691Y-7964229D01*
X16872909Y-7964229D01*
X16872909Y-8042011D01*
X16950691Y-8042011D01*
X16950691Y-8296011D02*
X16950691Y-8218229D01*
X16872909Y-8218229D01*
X16872909Y-8296011D01*
X16950691Y-8296011D01*
X16950691Y-8550011D02*
X16950691Y-8472229D01*
X16872909Y-8472229D01*
X16872909Y-8550011D01*
X16950691Y-8550011D01*
X16950691Y-8955371D02*
X16950691Y-8877589D01*
X16872909Y-8877589D01*
X16872909Y-8955371D01*
X16950691Y-8955371D01*
X16950691Y-9209371D02*
X16950691Y-9131589D01*
X16872909Y-9131589D01*
X16872909Y-9209371D01*
X16950691Y-9209371D01*
X16950691Y-9463371D02*
X16950691Y-9385589D01*
X16872909Y-9385589D01*
X16872909Y-9463371D01*
X16950691Y-9463371D01*
X16950691Y-9717371D02*
X16950691Y-9639589D01*
X16872909Y-9639589D01*
X16872909Y-9717371D01*
X16950691Y-9717371D01*
X16950691Y-10122731D02*
X16950691Y-10044949D01*
X16872909Y-10044949D01*
X16872909Y-10122731D01*
X16950691Y-10122731D01*
X16950691Y-10376731D02*
X16950691Y-10298949D01*
X16872909Y-10298949D01*
X16872909Y-10376731D01*
X16950691Y-10376731D01*
X16950691Y-10630731D02*
X16950691Y-10552949D01*
X16872909Y-10552949D01*
X16872909Y-10630731D01*
X16950691Y-10630731D01*
X16950691Y-10884731D02*
X16950691Y-10806949D01*
X16872909Y-10806949D01*
X16872909Y-10884731D01*
X16950691Y-10884731D01*
X16950691Y-11291091D02*
X16950691Y-11213309D01*
X16872909Y-11213309D01*
X16872909Y-11291091D01*
X16950691Y-11291091D01*
X16950691Y-11545091D02*
X16950691Y-11467309D01*
X16872909Y-11467309D01*
X16872909Y-11545091D01*
X16950691Y-11545091D01*
X16950691Y-11799091D02*
X16950691Y-11721309D01*
X16872909Y-11721309D01*
X16872909Y-11799091D01*
X16950691Y-11799091D01*
X16950691Y-12053091D02*
X16950691Y-11975309D01*
X16872909Y-11975309D01*
X16872909Y-12053091D01*
X16950691Y-12053091D01*
X17788891Y-5453291D02*
X17788891Y-5375509D01*
X17711109Y-5375509D01*
X17711109Y-5453291D01*
X17788891Y-5453291D01*
X17788891Y-5707291D02*
X17788891Y-5629509D01*
X17711109Y-5629509D01*
X17711109Y-5707291D01*
X17788891Y-5707291D01*
X17788891Y-5961291D02*
X17788891Y-5883509D01*
X17711109Y-5883509D01*
X17711109Y-5961291D01*
X17788891Y-5961291D01*
X17788891Y-6215291D02*
X17788891Y-6137509D01*
X17711109Y-6137509D01*
X17711109Y-6215291D01*
X17788891Y-6215291D01*
X17788891Y-6620851D02*
X17788891Y-6543069D01*
X17711109Y-6543069D01*
X17711109Y-6620851D01*
X17788891Y-6620851D01*
X17788891Y-6874851D02*
X17788891Y-6797069D01*
X17711109Y-6797069D01*
X17711109Y-6874851D01*
X17788891Y-6874851D01*
X17788891Y-7128851D02*
X17788891Y-7051069D01*
X17711109Y-7051069D01*
X17711109Y-7128851D01*
X17788891Y-7128851D01*
X17788891Y-7382851D02*
X17788891Y-7305069D01*
X17711109Y-7305069D01*
X17711109Y-7382851D01*
X17788891Y-7382851D01*
X17788891Y-7788411D02*
X17788891Y-7710629D01*
X17711109Y-7710629D01*
X17711109Y-7788411D01*
X17788891Y-7788411D01*
X17788891Y-8042411D02*
X17788891Y-7964629D01*
X17711109Y-7964629D01*
X17711109Y-8042411D01*
X17788891Y-8042411D01*
X17788891Y-8296411D02*
X17788891Y-8218629D01*
X17711109Y-8218629D01*
X17711109Y-8296411D01*
X17788891Y-8296411D01*
X17788891Y-8550411D02*
X17788891Y-8472629D01*
X17711109Y-8472629D01*
X17711109Y-8550411D01*
X17788891Y-8550411D01*
X17788891Y-8955971D02*
X17788891Y-8878189D01*
X17711109Y-8878189D01*
X17711109Y-8955971D01*
X17788891Y-8955971D01*
X17788891Y-9209971D02*
X17788891Y-9132189D01*
X17711109Y-9132189D01*
X17711109Y-9209971D01*
X17788891Y-9209971D01*
X17788891Y-9463971D02*
X17788891Y-9386189D01*
X17711109Y-9386189D01*
X17711109Y-9463971D01*
X17788891Y-9463971D01*
X17788891Y-9717971D02*
X17788891Y-9640189D01*
X17711109Y-9640189D01*
X17711109Y-9717971D01*
X17788891Y-9717971D01*
X17788891Y-10123531D02*
X17788891Y-10045749D01*
X17711109Y-10045749D01*
X17711109Y-10123531D01*
X17788891Y-10123531D01*
X17788891Y-10377531D02*
X17788891Y-10299749D01*
X17711109Y-10299749D01*
X17711109Y-10377531D01*
X17788891Y-10377531D01*
X17788891Y-10631531D02*
X17788891Y-10553749D01*
X17711109Y-10553749D01*
X17711109Y-10631531D01*
X17788891Y-10631531D01*
X17788891Y-10885531D02*
X17788891Y-10807749D01*
X17711109Y-10807749D01*
X17711109Y-10885531D01*
X17788891Y-10885531D01*
X17788891Y-11291091D02*
X17788891Y-11213309D01*
X17711109Y-11213309D01*
X17711109Y-11291091D01*
X17788891Y-11291091D01*
X17788891Y-11545091D02*
X17788891Y-11467309D01*
X17711109Y-11467309D01*
X17711109Y-11545091D01*
X17788891Y-11545091D01*
X17788891Y-11799091D02*
X17788891Y-11721309D01*
X17711109Y-11721309D01*
X17711109Y-11799091D01*
X17788891Y-11799091D01*
X17788891Y-12053091D02*
X17788891Y-11975309D01*
X17711109Y-11975309D01*
X17711109Y-12053091D01*
X17788891Y-12053091D01*
D11*
X15495777Y-12737084D02*
X15495777Y-12537084D01*
X15495777Y-12537084D02*
X15543396Y-12537084D01*
X15543396Y-12537084D02*
X15571967Y-12546608D01*
X15571967Y-12546608D02*
X15591015Y-12565655D01*
X15591015Y-12565655D02*
X15600539Y-12584703D01*
X15600539Y-12584703D02*
X15610062Y-12622798D01*
X15610062Y-12622798D02*
X15610062Y-12651369D01*
X15610062Y-12651369D02*
X15600539Y-12689465D01*
X15600539Y-12689465D02*
X15591015Y-12708512D01*
X15591015Y-12708512D02*
X15571967Y-12727560D01*
X15571967Y-12727560D02*
X15543396Y-12737084D01*
X15543396Y-12737084D02*
X15495777Y-12737084D01*
X15695777Y-12737084D02*
X15695777Y-12603750D01*
X15695777Y-12641846D02*
X15705301Y-12622798D01*
X15705301Y-12622798D02*
X15714824Y-12613274D01*
X15714824Y-12613274D02*
X15733872Y-12603750D01*
X15733872Y-12603750D02*
X15752920Y-12603750D01*
X15819586Y-12737084D02*
X15819586Y-12603750D01*
X15819586Y-12537084D02*
X15810062Y-12546608D01*
X15810062Y-12546608D02*
X15819586Y-12556131D01*
X15819586Y-12556131D02*
X15829110Y-12546608D01*
X15829110Y-12546608D02*
X15819586Y-12537084D01*
X15819586Y-12537084D02*
X15819586Y-12556131D01*
X15943396Y-12737084D02*
X15924348Y-12727560D01*
X15924348Y-12727560D02*
X15914824Y-12708512D01*
X15914824Y-12708512D02*
X15914824Y-12537084D01*
X16048158Y-12737084D02*
X16029110Y-12727560D01*
X16029110Y-12727560D02*
X16019586Y-12708512D01*
X16019586Y-12708512D02*
X16019586Y-12537084D01*
X16276729Y-12737084D02*
X16276729Y-12537084D01*
X16276729Y-12537084D02*
X16343396Y-12679941D01*
X16343396Y-12679941D02*
X16410062Y-12537084D01*
X16410062Y-12537084D02*
X16410062Y-12737084D01*
X16591015Y-12737084D02*
X16591015Y-12632322D01*
X16591015Y-12632322D02*
X16581491Y-12613274D01*
X16581491Y-12613274D02*
X16562443Y-12603750D01*
X16562443Y-12603750D02*
X16524348Y-12603750D01*
X16524348Y-12603750D02*
X16505301Y-12613274D01*
X16591015Y-12727560D02*
X16571967Y-12737084D01*
X16571967Y-12737084D02*
X16524348Y-12737084D01*
X16524348Y-12737084D02*
X16505301Y-12727560D01*
X16505301Y-12727560D02*
X16495777Y-12708512D01*
X16495777Y-12708512D02*
X16495777Y-12689465D01*
X16495777Y-12689465D02*
X16505301Y-12670417D01*
X16505301Y-12670417D02*
X16524348Y-12660893D01*
X16524348Y-12660893D02*
X16571967Y-12660893D01*
X16571967Y-12660893D02*
X16591015Y-12651369D01*
X16686253Y-12603750D02*
X16686253Y-12803750D01*
X16686253Y-12613274D02*
X16705301Y-12603750D01*
X16705301Y-12603750D02*
X16743396Y-12603750D01*
X16743396Y-12603750D02*
X16762443Y-12613274D01*
X16762443Y-12613274D02*
X16771967Y-12622798D01*
X16771967Y-12622798D02*
X16781491Y-12641846D01*
X16781491Y-12641846D02*
X16781491Y-12698988D01*
X16781491Y-12698988D02*
X16771967Y-12718036D01*
X16771967Y-12718036D02*
X16762443Y-12727560D01*
X16762443Y-12727560D02*
X16743396Y-12737084D01*
X16743396Y-12737084D02*
X16705301Y-12737084D01*
X16705301Y-12737084D02*
X16686253Y-12727560D01*
X16867205Y-12718036D02*
X16876729Y-12727560D01*
X16876729Y-12727560D02*
X16867205Y-12737084D01*
X16867205Y-12737084D02*
X16857682Y-12727560D01*
X16857682Y-12727560D02*
X16867205Y-12718036D01*
X16867205Y-12718036D02*
X16867205Y-12737084D01*
X16867205Y-12613274D02*
X16876729Y-12622798D01*
X16876729Y-12622798D02*
X16867205Y-12632322D01*
X16867205Y-12632322D02*
X16857682Y-12622798D01*
X16857682Y-12622798D02*
X16867205Y-12613274D01*
X16867205Y-12613274D02*
X16867205Y-12632322D01*
D12*
X15195000Y-13045600D02*
X15235000Y-13085600D01*
X15235000Y-13045600D02*
X15195000Y-13085600D01*
D11*
X15533872Y-12957084D02*
X15552920Y-12957084D01*
X15552920Y-12957084D02*
X15571967Y-12966608D01*
X15571967Y-12966608D02*
X15581491Y-12976131D01*
X15581491Y-12976131D02*
X15591015Y-12995179D01*
X15591015Y-12995179D02*
X15600539Y-13033274D01*
X15600539Y-13033274D02*
X15600539Y-13080893D01*
X15600539Y-13080893D02*
X15591015Y-13118988D01*
X15591015Y-13118988D02*
X15581491Y-13138036D01*
X15581491Y-13138036D02*
X15571967Y-13147560D01*
X15571967Y-13147560D02*
X15552920Y-13157084D01*
X15552920Y-13157084D02*
X15533872Y-13157084D01*
X15533872Y-13157084D02*
X15514824Y-13147560D01*
X15514824Y-13147560D02*
X15505301Y-13138036D01*
X15505301Y-13138036D02*
X15495777Y-13118988D01*
X15495777Y-13118988D02*
X15486253Y-13080893D01*
X15486253Y-13080893D02*
X15486253Y-13033274D01*
X15486253Y-13033274D02*
X15495777Y-12995179D01*
X15495777Y-12995179D02*
X15505301Y-12976131D01*
X15505301Y-12976131D02*
X15514824Y-12966608D01*
X15514824Y-12966608D02*
X15533872Y-12957084D01*
X15686253Y-13138036D02*
X15695777Y-13147560D01*
X15695777Y-13147560D02*
X15686253Y-13157084D01*
X15686253Y-13157084D02*
X15676729Y-13147560D01*
X15676729Y-13147560D02*
X15686253Y-13138036D01*
X15686253Y-13138036D02*
X15686253Y-13157084D01*
X15867205Y-13023750D02*
X15867205Y-13157084D01*
X15819586Y-12947560D02*
X15771967Y-13090417D01*
X15771967Y-13090417D02*
X15895777Y-13090417D01*
X16010062Y-12957084D02*
X16029110Y-12957084D01*
X16029110Y-12957084D02*
X16048158Y-12966608D01*
X16048158Y-12966608D02*
X16057682Y-12976131D01*
X16057682Y-12976131D02*
X16067205Y-12995179D01*
X16067205Y-12995179D02*
X16076729Y-13033274D01*
X16076729Y-13033274D02*
X16076729Y-13080893D01*
X16076729Y-13080893D02*
X16067205Y-13118988D01*
X16067205Y-13118988D02*
X16057682Y-13138036D01*
X16057682Y-13138036D02*
X16048158Y-13147560D01*
X16048158Y-13147560D02*
X16029110Y-13157084D01*
X16029110Y-13157084D02*
X16010062Y-13157084D01*
X16010062Y-13157084D02*
X15991015Y-13147560D01*
X15991015Y-13147560D02*
X15981491Y-13138036D01*
X15981491Y-13138036D02*
X15971967Y-13118988D01*
X15971967Y-13118988D02*
X15962443Y-13080893D01*
X15962443Y-13080893D02*
X15962443Y-13033274D01*
X15962443Y-13033274D02*
X15971967Y-12995179D01*
X15971967Y-12995179D02*
X15981491Y-12976131D01*
X15981491Y-12976131D02*
X15991015Y-12966608D01*
X15991015Y-12966608D02*
X16010062Y-12957084D01*
X16200539Y-12957084D02*
X16219586Y-12957084D01*
X16219586Y-12957084D02*
X16238634Y-12966608D01*
X16238634Y-12966608D02*
X16248158Y-12976131D01*
X16248158Y-12976131D02*
X16257682Y-12995179D01*
X16257682Y-12995179D02*
X16267205Y-13033274D01*
X16267205Y-13033274D02*
X16267205Y-13080893D01*
X16267205Y-13080893D02*
X16257682Y-13118988D01*
X16257682Y-13118988D02*
X16248158Y-13138036D01*
X16248158Y-13138036D02*
X16238634Y-13147560D01*
X16238634Y-13147560D02*
X16219586Y-13157084D01*
X16219586Y-13157084D02*
X16200539Y-13157084D01*
X16200539Y-13157084D02*
X16181491Y-13147560D01*
X16181491Y-13147560D02*
X16171967Y-13138036D01*
X16171967Y-13138036D02*
X16162443Y-13118988D01*
X16162443Y-13118988D02*
X16152920Y-13080893D01*
X16152920Y-13080893D02*
X16152920Y-13033274D01*
X16152920Y-13033274D02*
X16162443Y-12995179D01*
X16162443Y-12995179D02*
X16171967Y-12976131D01*
X16171967Y-12976131D02*
X16181491Y-12966608D01*
X16181491Y-12966608D02*
X16200539Y-12957084D01*
X16352920Y-13157084D02*
X16352920Y-13023750D01*
X16352920Y-13042798D02*
X16362443Y-13033274D01*
X16362443Y-13033274D02*
X16381491Y-13023750D01*
X16381491Y-13023750D02*
X16410063Y-13023750D01*
X16410063Y-13023750D02*
X16429110Y-13033274D01*
X16429110Y-13033274D02*
X16438634Y-13052322D01*
X16438634Y-13052322D02*
X16438634Y-13157084D01*
X16438634Y-13052322D02*
X16448158Y-13033274D01*
X16448158Y-13033274D02*
X16467205Y-13023750D01*
X16467205Y-13023750D02*
X16495777Y-13023750D01*
X16495777Y-13023750D02*
X16514824Y-13033274D01*
X16514824Y-13033274D02*
X16524348Y-13052322D01*
X16524348Y-13052322D02*
X16524348Y-13157084D01*
X16619586Y-13157084D02*
X16619586Y-13023750D01*
X16619586Y-13042798D02*
X16629110Y-13033274D01*
X16629110Y-13033274D02*
X16648158Y-13023750D01*
X16648158Y-13023750D02*
X16676729Y-13023750D01*
X16676729Y-13023750D02*
X16695777Y-13033274D01*
X16695777Y-13033274D02*
X16705301Y-13052322D01*
X16705301Y-13052322D02*
X16705301Y-13157084D01*
X16705301Y-13052322D02*
X16714824Y-13033274D01*
X16714824Y-13033274D02*
X16733872Y-13023750D01*
X16733872Y-13023750D02*
X16762443Y-13023750D01*
X16762443Y-13023750D02*
X16781491Y-13033274D01*
X16781491Y-13033274D02*
X16791015Y-13052322D01*
X16791015Y-13052322D02*
X16791015Y-13157084D01*
X17181491Y-12947560D02*
X17010063Y-13204703D01*
X17438634Y-12957084D02*
X17457682Y-12957084D01*
X17457682Y-12957084D02*
X17476729Y-12966608D01*
X17476729Y-12966608D02*
X17486253Y-12976131D01*
X17486253Y-12976131D02*
X17495777Y-12995179D01*
X17495777Y-12995179D02*
X17505301Y-13033274D01*
X17505301Y-13033274D02*
X17505301Y-13080893D01*
X17505301Y-13080893D02*
X17495777Y-13118988D01*
X17495777Y-13118988D02*
X17486253Y-13138036D01*
X17486253Y-13138036D02*
X17476729Y-13147560D01*
X17476729Y-13147560D02*
X17457682Y-13157084D01*
X17457682Y-13157084D02*
X17438634Y-13157084D01*
X17438634Y-13157084D02*
X17419587Y-13147560D01*
X17419587Y-13147560D02*
X17410063Y-13138036D01*
X17410063Y-13138036D02*
X17400539Y-13118988D01*
X17400539Y-13118988D02*
X17391015Y-13080893D01*
X17391015Y-13080893D02*
X17391015Y-13033274D01*
X17391015Y-13033274D02*
X17400539Y-12995179D01*
X17400539Y-12995179D02*
X17410063Y-12976131D01*
X17410063Y-12976131D02*
X17419587Y-12966608D01*
X17419587Y-12966608D02*
X17438634Y-12957084D01*
X17591015Y-13138036D02*
X17600539Y-13147560D01*
X17600539Y-13147560D02*
X17591015Y-13157084D01*
X17591015Y-13157084D02*
X17581491Y-13147560D01*
X17581491Y-13147560D02*
X17591015Y-13138036D01*
X17591015Y-13138036D02*
X17591015Y-13157084D01*
X17724348Y-12957084D02*
X17743396Y-12957084D01*
X17743396Y-12957084D02*
X17762444Y-12966608D01*
X17762444Y-12966608D02*
X17771968Y-12976131D01*
X17771968Y-12976131D02*
X17781491Y-12995179D01*
X17781491Y-12995179D02*
X17791015Y-13033274D01*
X17791015Y-13033274D02*
X17791015Y-13080893D01*
X17791015Y-13080893D02*
X17781491Y-13118988D01*
X17781491Y-13118988D02*
X17771968Y-13138036D01*
X17771968Y-13138036D02*
X17762444Y-13147560D01*
X17762444Y-13147560D02*
X17743396Y-13157084D01*
X17743396Y-13157084D02*
X17724348Y-13157084D01*
X17724348Y-13157084D02*
X17705301Y-13147560D01*
X17705301Y-13147560D02*
X17695777Y-13138036D01*
X17695777Y-13138036D02*
X17686253Y-13118988D01*
X17686253Y-13118988D02*
X17676729Y-13080893D01*
X17676729Y-13080893D02*
X17676729Y-13033274D01*
X17676729Y-13033274D02*
X17686253Y-12995179D01*
X17686253Y-12995179D02*
X17695777Y-12976131D01*
X17695777Y-12976131D02*
X17705301Y-12966608D01*
X17705301Y-12966608D02*
X17724348Y-12957084D01*
X17981491Y-13157084D02*
X17867206Y-13157084D01*
X17924348Y-13157084D02*
X17924348Y-12957084D01*
X17924348Y-12957084D02*
X17905301Y-12985655D01*
X17905301Y-12985655D02*
X17886253Y-13004703D01*
X17886253Y-13004703D02*
X17867206Y-13014227D01*
X18162444Y-12957084D02*
X18067206Y-12957084D01*
X18067206Y-12957084D02*
X18057682Y-13052322D01*
X18057682Y-13052322D02*
X18067206Y-13042798D01*
X18067206Y-13042798D02*
X18086253Y-13033274D01*
X18086253Y-13033274D02*
X18133872Y-13033274D01*
X18133872Y-13033274D02*
X18152920Y-13042798D01*
X18152920Y-13042798D02*
X18162444Y-13052322D01*
X18162444Y-13052322D02*
X18171968Y-13071369D01*
X18171968Y-13071369D02*
X18171968Y-13118988D01*
X18171968Y-13118988D02*
X18162444Y-13138036D01*
X18162444Y-13138036D02*
X18152920Y-13147560D01*
X18152920Y-13147560D02*
X18133872Y-13157084D01*
X18133872Y-13157084D02*
X18086253Y-13157084D01*
X18086253Y-13157084D02*
X18067206Y-13147560D01*
X18067206Y-13147560D02*
X18057682Y-13138036D01*
X18238634Y-12957084D02*
X18371968Y-12957084D01*
X18371968Y-12957084D02*
X18286253Y-13157084D01*
X18438634Y-12957084D02*
X18438634Y-12995179D01*
X18514825Y-12957084D02*
X18514825Y-12995179D01*
X18810063Y-13233274D02*
X18800539Y-13223750D01*
X18800539Y-13223750D02*
X18781491Y-13195179D01*
X18781491Y-13195179D02*
X18771968Y-13176131D01*
X18771968Y-13176131D02*
X18762444Y-13147560D01*
X18762444Y-13147560D02*
X18752920Y-13099941D01*
X18752920Y-13099941D02*
X18752920Y-13061846D01*
X18752920Y-13061846D02*
X18762444Y-13014227D01*
X18762444Y-13014227D02*
X18771968Y-12985655D01*
X18771968Y-12985655D02*
X18781491Y-12966608D01*
X18781491Y-12966608D02*
X18800539Y-12938036D01*
X18800539Y-12938036D02*
X18810063Y-12928512D01*
X18991015Y-13157084D02*
X18876730Y-13157084D01*
X18933872Y-13157084D02*
X18933872Y-12957084D01*
X18933872Y-12957084D02*
X18914825Y-12985655D01*
X18914825Y-12985655D02*
X18895777Y-13004703D01*
X18895777Y-13004703D02*
X18876730Y-13014227D01*
X19162444Y-12957084D02*
X19124349Y-12957084D01*
X19124349Y-12957084D02*
X19105301Y-12966608D01*
X19105301Y-12966608D02*
X19095777Y-12976131D01*
X19095777Y-12976131D02*
X19076730Y-13004703D01*
X19076730Y-13004703D02*
X19067206Y-13042798D01*
X19067206Y-13042798D02*
X19067206Y-13118988D01*
X19067206Y-13118988D02*
X19076730Y-13138036D01*
X19076730Y-13138036D02*
X19086253Y-13147560D01*
X19086253Y-13147560D02*
X19105301Y-13157084D01*
X19105301Y-13157084D02*
X19143396Y-13157084D01*
X19143396Y-13157084D02*
X19162444Y-13147560D01*
X19162444Y-13147560D02*
X19171968Y-13138036D01*
X19171968Y-13138036D02*
X19181491Y-13118988D01*
X19181491Y-13118988D02*
X19181491Y-13071369D01*
X19181491Y-13071369D02*
X19171968Y-13052322D01*
X19171968Y-13052322D02*
X19162444Y-13042798D01*
X19162444Y-13042798D02*
X19143396Y-13033274D01*
X19143396Y-13033274D02*
X19105301Y-13033274D01*
X19105301Y-13033274D02*
X19086253Y-13042798D01*
X19086253Y-13042798D02*
X19076730Y-13052322D01*
X19076730Y-13052322D02*
X19067206Y-13071369D01*
X19419587Y-13157084D02*
X19419587Y-12957084D01*
X19505301Y-13157084D02*
X19505301Y-13052322D01*
X19505301Y-13052322D02*
X19495777Y-13033274D01*
X19495777Y-13033274D02*
X19476730Y-13023750D01*
X19476730Y-13023750D02*
X19448158Y-13023750D01*
X19448158Y-13023750D02*
X19429111Y-13033274D01*
X19429111Y-13033274D02*
X19419587Y-13042798D01*
X19629111Y-13157084D02*
X19610063Y-13147560D01*
X19610063Y-13147560D02*
X19600539Y-13138036D01*
X19600539Y-13138036D02*
X19591015Y-13118988D01*
X19591015Y-13118988D02*
X19591015Y-13061846D01*
X19591015Y-13061846D02*
X19600539Y-13042798D01*
X19600539Y-13042798D02*
X19610063Y-13033274D01*
X19610063Y-13033274D02*
X19629111Y-13023750D01*
X19629111Y-13023750D02*
X19657682Y-13023750D01*
X19657682Y-13023750D02*
X19676730Y-13033274D01*
X19676730Y-13033274D02*
X19686253Y-13042798D01*
X19686253Y-13042798D02*
X19695777Y-13061846D01*
X19695777Y-13061846D02*
X19695777Y-13118988D01*
X19695777Y-13118988D02*
X19686253Y-13138036D01*
X19686253Y-13138036D02*
X19676730Y-13147560D01*
X19676730Y-13147560D02*
X19657682Y-13157084D01*
X19657682Y-13157084D02*
X19629111Y-13157084D01*
X19810063Y-13157084D02*
X19791015Y-13147560D01*
X19791015Y-13147560D02*
X19781492Y-13128512D01*
X19781492Y-13128512D02*
X19781492Y-12957084D01*
X19962444Y-13147560D02*
X19943396Y-13157084D01*
X19943396Y-13157084D02*
X19905301Y-13157084D01*
X19905301Y-13157084D02*
X19886253Y-13147560D01*
X19886253Y-13147560D02*
X19876730Y-13128512D01*
X19876730Y-13128512D02*
X19876730Y-13052322D01*
X19876730Y-13052322D02*
X19886253Y-13033274D01*
X19886253Y-13033274D02*
X19905301Y-13023750D01*
X19905301Y-13023750D02*
X19943396Y-13023750D01*
X19943396Y-13023750D02*
X19962444Y-13033274D01*
X19962444Y-13033274D02*
X19971968Y-13052322D01*
X19971968Y-13052322D02*
X19971968Y-13071369D01*
X19971968Y-13071369D02*
X19876730Y-13090417D01*
X20048158Y-13147560D02*
X20067206Y-13157084D01*
X20067206Y-13157084D02*
X20105301Y-13157084D01*
X20105301Y-13157084D02*
X20124349Y-13147560D01*
X20124349Y-13147560D02*
X20133873Y-13128512D01*
X20133873Y-13128512D02*
X20133873Y-13118988D01*
X20133873Y-13118988D02*
X20124349Y-13099941D01*
X20124349Y-13099941D02*
X20105301Y-13090417D01*
X20105301Y-13090417D02*
X20076730Y-13090417D01*
X20076730Y-13090417D02*
X20057682Y-13080893D01*
X20057682Y-13080893D02*
X20048158Y-13061846D01*
X20048158Y-13061846D02*
X20048158Y-13052322D01*
X20048158Y-13052322D02*
X20057682Y-13033274D01*
X20057682Y-13033274D02*
X20076730Y-13023750D01*
X20076730Y-13023750D02*
X20105301Y-13023750D01*
X20105301Y-13023750D02*
X20124349Y-13033274D01*
X20200539Y-13233274D02*
X20210063Y-13223750D01*
X20210063Y-13223750D02*
X20229111Y-13195179D01*
X20229111Y-13195179D02*
X20238634Y-13176131D01*
X20238634Y-13176131D02*
X20248158Y-13147560D01*
X20248158Y-13147560D02*
X20257682Y-13099941D01*
X20257682Y-13099941D02*
X20257682Y-13061846D01*
X20257682Y-13061846D02*
X20248158Y-13014227D01*
X20248158Y-13014227D02*
X20238634Y-12985655D01*
X20238634Y-12985655D02*
X20229111Y-12966608D01*
X20229111Y-12966608D02*
X20210063Y-12938036D01*
X20210063Y-12938036D02*
X20200539Y-12928512D01*
D13*
X15235000Y-13329600D02*
G75*
G03*
X15235000Y-13329600I-40000J0D01*
G01*
D11*
X15533872Y-13221084D02*
X15552920Y-13221084D01*
X15552920Y-13221084D02*
X15571967Y-13230608D01*
X15571967Y-13230608D02*
X15581491Y-13240131D01*
X15581491Y-13240131D02*
X15591015Y-13259179D01*
X15591015Y-13259179D02*
X15600539Y-13297274D01*
X15600539Y-13297274D02*
X15600539Y-13344893D01*
X15600539Y-13344893D02*
X15591015Y-13382988D01*
X15591015Y-13382988D02*
X15581491Y-13402036D01*
X15581491Y-13402036D02*
X15571967Y-13411560D01*
X15571967Y-13411560D02*
X15552920Y-13421084D01*
X15552920Y-13421084D02*
X15533872Y-13421084D01*
X15533872Y-13421084D02*
X15514824Y-13411560D01*
X15514824Y-13411560D02*
X15505301Y-13402036D01*
X15505301Y-13402036D02*
X15495777Y-13382988D01*
X15495777Y-13382988D02*
X15486253Y-13344893D01*
X15486253Y-13344893D02*
X15486253Y-13297274D01*
X15486253Y-13297274D02*
X15495777Y-13259179D01*
X15495777Y-13259179D02*
X15505301Y-13240131D01*
X15505301Y-13240131D02*
X15514824Y-13230608D01*
X15514824Y-13230608D02*
X15533872Y-13221084D01*
X15686253Y-13402036D02*
X15695777Y-13411560D01*
X15695777Y-13411560D02*
X15686253Y-13421084D01*
X15686253Y-13421084D02*
X15676729Y-13411560D01*
X15676729Y-13411560D02*
X15686253Y-13402036D01*
X15686253Y-13402036D02*
X15686253Y-13421084D01*
X15810062Y-13306798D02*
X15791015Y-13297274D01*
X15791015Y-13297274D02*
X15781491Y-13287750D01*
X15781491Y-13287750D02*
X15771967Y-13268703D01*
X15771967Y-13268703D02*
X15771967Y-13259179D01*
X15771967Y-13259179D02*
X15781491Y-13240131D01*
X15781491Y-13240131D02*
X15791015Y-13230608D01*
X15791015Y-13230608D02*
X15810062Y-13221084D01*
X15810062Y-13221084D02*
X15848158Y-13221084D01*
X15848158Y-13221084D02*
X15867205Y-13230608D01*
X15867205Y-13230608D02*
X15876729Y-13240131D01*
X15876729Y-13240131D02*
X15886253Y-13259179D01*
X15886253Y-13259179D02*
X15886253Y-13268703D01*
X15886253Y-13268703D02*
X15876729Y-13287750D01*
X15876729Y-13287750D02*
X15867205Y-13297274D01*
X15867205Y-13297274D02*
X15848158Y-13306798D01*
X15848158Y-13306798D02*
X15810062Y-13306798D01*
X15810062Y-13306798D02*
X15791015Y-13316322D01*
X15791015Y-13316322D02*
X15781491Y-13325846D01*
X15781491Y-13325846D02*
X15771967Y-13344893D01*
X15771967Y-13344893D02*
X15771967Y-13382988D01*
X15771967Y-13382988D02*
X15781491Y-13402036D01*
X15781491Y-13402036D02*
X15791015Y-13411560D01*
X15791015Y-13411560D02*
X15810062Y-13421084D01*
X15810062Y-13421084D02*
X15848158Y-13421084D01*
X15848158Y-13421084D02*
X15867205Y-13411560D01*
X15867205Y-13411560D02*
X15876729Y-13402036D01*
X15876729Y-13402036D02*
X15886253Y-13382988D01*
X15886253Y-13382988D02*
X15886253Y-13344893D01*
X15886253Y-13344893D02*
X15876729Y-13325846D01*
X15876729Y-13325846D02*
X15867205Y-13316322D01*
X15867205Y-13316322D02*
X15848158Y-13306798D01*
X16010062Y-13221084D02*
X16029110Y-13221084D01*
X16029110Y-13221084D02*
X16048158Y-13230608D01*
X16048158Y-13230608D02*
X16057682Y-13240131D01*
X16057682Y-13240131D02*
X16067205Y-13259179D01*
X16067205Y-13259179D02*
X16076729Y-13297274D01*
X16076729Y-13297274D02*
X16076729Y-13344893D01*
X16076729Y-13344893D02*
X16067205Y-13382988D01*
X16067205Y-13382988D02*
X16057682Y-13402036D01*
X16057682Y-13402036D02*
X16048158Y-13411560D01*
X16048158Y-13411560D02*
X16029110Y-13421084D01*
X16029110Y-13421084D02*
X16010062Y-13421084D01*
X16010062Y-13421084D02*
X15991015Y-13411560D01*
X15991015Y-13411560D02*
X15981491Y-13402036D01*
X15981491Y-13402036D02*
X15971967Y-13382988D01*
X15971967Y-13382988D02*
X15962443Y-13344893D01*
X15962443Y-13344893D02*
X15962443Y-13297274D01*
X15962443Y-13297274D02*
X15971967Y-13259179D01*
X15971967Y-13259179D02*
X15981491Y-13240131D01*
X15981491Y-13240131D02*
X15991015Y-13230608D01*
X15991015Y-13230608D02*
X16010062Y-13221084D01*
X16200539Y-13221084D02*
X16219586Y-13221084D01*
X16219586Y-13221084D02*
X16238634Y-13230608D01*
X16238634Y-13230608D02*
X16248158Y-13240131D01*
X16248158Y-13240131D02*
X16257682Y-13259179D01*
X16257682Y-13259179D02*
X16267205Y-13297274D01*
X16267205Y-13297274D02*
X16267205Y-13344893D01*
X16267205Y-13344893D02*
X16257682Y-13382988D01*
X16257682Y-13382988D02*
X16248158Y-13402036D01*
X16248158Y-13402036D02*
X16238634Y-13411560D01*
X16238634Y-13411560D02*
X16219586Y-13421084D01*
X16219586Y-13421084D02*
X16200539Y-13421084D01*
X16200539Y-13421084D02*
X16181491Y-13411560D01*
X16181491Y-13411560D02*
X16171967Y-13402036D01*
X16171967Y-13402036D02*
X16162443Y-13382988D01*
X16162443Y-13382988D02*
X16152920Y-13344893D01*
X16152920Y-13344893D02*
X16152920Y-13297274D01*
X16152920Y-13297274D02*
X16162443Y-13259179D01*
X16162443Y-13259179D02*
X16171967Y-13240131D01*
X16171967Y-13240131D02*
X16181491Y-13230608D01*
X16181491Y-13230608D02*
X16200539Y-13221084D01*
X16352920Y-13421084D02*
X16352920Y-13287750D01*
X16352920Y-13306798D02*
X16362443Y-13297274D01*
X16362443Y-13297274D02*
X16381491Y-13287750D01*
X16381491Y-13287750D02*
X16410063Y-13287750D01*
X16410063Y-13287750D02*
X16429110Y-13297274D01*
X16429110Y-13297274D02*
X16438634Y-13316322D01*
X16438634Y-13316322D02*
X16438634Y-13421084D01*
X16438634Y-13316322D02*
X16448158Y-13297274D01*
X16448158Y-13297274D02*
X16467205Y-13287750D01*
X16467205Y-13287750D02*
X16495777Y-13287750D01*
X16495777Y-13287750D02*
X16514824Y-13297274D01*
X16514824Y-13297274D02*
X16524348Y-13316322D01*
X16524348Y-13316322D02*
X16524348Y-13421084D01*
X16619586Y-13421084D02*
X16619586Y-13287750D01*
X16619586Y-13306798D02*
X16629110Y-13297274D01*
X16629110Y-13297274D02*
X16648158Y-13287750D01*
X16648158Y-13287750D02*
X16676729Y-13287750D01*
X16676729Y-13287750D02*
X16695777Y-13297274D01*
X16695777Y-13297274D02*
X16705301Y-13316322D01*
X16705301Y-13316322D02*
X16705301Y-13421084D01*
X16705301Y-13316322D02*
X16714824Y-13297274D01*
X16714824Y-13297274D02*
X16733872Y-13287750D01*
X16733872Y-13287750D02*
X16762443Y-13287750D01*
X16762443Y-13287750D02*
X16781491Y-13297274D01*
X16781491Y-13297274D02*
X16791015Y-13316322D01*
X16791015Y-13316322D02*
X16791015Y-13421084D01*
X17181491Y-13211560D02*
X17010063Y-13468703D01*
X17438634Y-13221084D02*
X17457682Y-13221084D01*
X17457682Y-13221084D02*
X17476729Y-13230608D01*
X17476729Y-13230608D02*
X17486253Y-13240131D01*
X17486253Y-13240131D02*
X17495777Y-13259179D01*
X17495777Y-13259179D02*
X17505301Y-13297274D01*
X17505301Y-13297274D02*
X17505301Y-13344893D01*
X17505301Y-13344893D02*
X17495777Y-13382988D01*
X17495777Y-13382988D02*
X17486253Y-13402036D01*
X17486253Y-13402036D02*
X17476729Y-13411560D01*
X17476729Y-13411560D02*
X17457682Y-13421084D01*
X17457682Y-13421084D02*
X17438634Y-13421084D01*
X17438634Y-13421084D02*
X17419587Y-13411560D01*
X17419587Y-13411560D02*
X17410063Y-13402036D01*
X17410063Y-13402036D02*
X17400539Y-13382988D01*
X17400539Y-13382988D02*
X17391015Y-13344893D01*
X17391015Y-13344893D02*
X17391015Y-13297274D01*
X17391015Y-13297274D02*
X17400539Y-13259179D01*
X17400539Y-13259179D02*
X17410063Y-13240131D01*
X17410063Y-13240131D02*
X17419587Y-13230608D01*
X17419587Y-13230608D02*
X17438634Y-13221084D01*
X17591015Y-13402036D02*
X17600539Y-13411560D01*
X17600539Y-13411560D02*
X17591015Y-13421084D01*
X17591015Y-13421084D02*
X17581491Y-13411560D01*
X17581491Y-13411560D02*
X17591015Y-13402036D01*
X17591015Y-13402036D02*
X17591015Y-13421084D01*
X17724348Y-13221084D02*
X17743396Y-13221084D01*
X17743396Y-13221084D02*
X17762444Y-13230608D01*
X17762444Y-13230608D02*
X17771968Y-13240131D01*
X17771968Y-13240131D02*
X17781491Y-13259179D01*
X17781491Y-13259179D02*
X17791015Y-13297274D01*
X17791015Y-13297274D02*
X17791015Y-13344893D01*
X17791015Y-13344893D02*
X17781491Y-13382988D01*
X17781491Y-13382988D02*
X17771968Y-13402036D01*
X17771968Y-13402036D02*
X17762444Y-13411560D01*
X17762444Y-13411560D02*
X17743396Y-13421084D01*
X17743396Y-13421084D02*
X17724348Y-13421084D01*
X17724348Y-13421084D02*
X17705301Y-13411560D01*
X17705301Y-13411560D02*
X17695777Y-13402036D01*
X17695777Y-13402036D02*
X17686253Y-13382988D01*
X17686253Y-13382988D02*
X17676729Y-13344893D01*
X17676729Y-13344893D02*
X17676729Y-13297274D01*
X17676729Y-13297274D02*
X17686253Y-13259179D01*
X17686253Y-13259179D02*
X17695777Y-13240131D01*
X17695777Y-13240131D02*
X17705301Y-13230608D01*
X17705301Y-13230608D02*
X17724348Y-13221084D01*
X17857682Y-13221084D02*
X17981491Y-13221084D01*
X17981491Y-13221084D02*
X17914825Y-13297274D01*
X17914825Y-13297274D02*
X17943396Y-13297274D01*
X17943396Y-13297274D02*
X17962444Y-13306798D01*
X17962444Y-13306798D02*
X17971968Y-13316322D01*
X17971968Y-13316322D02*
X17981491Y-13335369D01*
X17981491Y-13335369D02*
X17981491Y-13382988D01*
X17981491Y-13382988D02*
X17971968Y-13402036D01*
X17971968Y-13402036D02*
X17962444Y-13411560D01*
X17962444Y-13411560D02*
X17943396Y-13421084D01*
X17943396Y-13421084D02*
X17886253Y-13421084D01*
X17886253Y-13421084D02*
X17867206Y-13411560D01*
X17867206Y-13411560D02*
X17857682Y-13402036D01*
X18171968Y-13421084D02*
X18057682Y-13421084D01*
X18114825Y-13421084D02*
X18114825Y-13221084D01*
X18114825Y-13221084D02*
X18095777Y-13249655D01*
X18095777Y-13249655D02*
X18076729Y-13268703D01*
X18076729Y-13268703D02*
X18057682Y-13278227D01*
X18352920Y-13221084D02*
X18257682Y-13221084D01*
X18257682Y-13221084D02*
X18248158Y-13316322D01*
X18248158Y-13316322D02*
X18257682Y-13306798D01*
X18257682Y-13306798D02*
X18276729Y-13297274D01*
X18276729Y-13297274D02*
X18324349Y-13297274D01*
X18324349Y-13297274D02*
X18343396Y-13306798D01*
X18343396Y-13306798D02*
X18352920Y-13316322D01*
X18352920Y-13316322D02*
X18362444Y-13335369D01*
X18362444Y-13335369D02*
X18362444Y-13382988D01*
X18362444Y-13382988D02*
X18352920Y-13402036D01*
X18352920Y-13402036D02*
X18343396Y-13411560D01*
X18343396Y-13411560D02*
X18324349Y-13421084D01*
X18324349Y-13421084D02*
X18276729Y-13421084D01*
X18276729Y-13421084D02*
X18257682Y-13411560D01*
X18257682Y-13411560D02*
X18248158Y-13402036D01*
X18438634Y-13221084D02*
X18438634Y-13259179D01*
X18514825Y-13221084D02*
X18514825Y-13259179D01*
X18810063Y-13497274D02*
X18800539Y-13487750D01*
X18800539Y-13487750D02*
X18781491Y-13459179D01*
X18781491Y-13459179D02*
X18771968Y-13440131D01*
X18771968Y-13440131D02*
X18762444Y-13411560D01*
X18762444Y-13411560D02*
X18752920Y-13363941D01*
X18752920Y-13363941D02*
X18752920Y-13325846D01*
X18752920Y-13325846D02*
X18762444Y-13278227D01*
X18762444Y-13278227D02*
X18771968Y-13249655D01*
X18771968Y-13249655D02*
X18781491Y-13230608D01*
X18781491Y-13230608D02*
X18800539Y-13202036D01*
X18800539Y-13202036D02*
X18810063Y-13192512D01*
X18876730Y-13240131D02*
X18886253Y-13230608D01*
X18886253Y-13230608D02*
X18905301Y-13221084D01*
X18905301Y-13221084D02*
X18952920Y-13221084D01*
X18952920Y-13221084D02*
X18971968Y-13230608D01*
X18971968Y-13230608D02*
X18981491Y-13240131D01*
X18981491Y-13240131D02*
X18991015Y-13259179D01*
X18991015Y-13259179D02*
X18991015Y-13278227D01*
X18991015Y-13278227D02*
X18981491Y-13306798D01*
X18981491Y-13306798D02*
X18867206Y-13421084D01*
X18867206Y-13421084D02*
X18991015Y-13421084D01*
X19171968Y-13221084D02*
X19076730Y-13221084D01*
X19076730Y-13221084D02*
X19067206Y-13316322D01*
X19067206Y-13316322D02*
X19076730Y-13306798D01*
X19076730Y-13306798D02*
X19095777Y-13297274D01*
X19095777Y-13297274D02*
X19143396Y-13297274D01*
X19143396Y-13297274D02*
X19162444Y-13306798D01*
X19162444Y-13306798D02*
X19171968Y-13316322D01*
X19171968Y-13316322D02*
X19181491Y-13335369D01*
X19181491Y-13335369D02*
X19181491Y-13382988D01*
X19181491Y-13382988D02*
X19171968Y-13402036D01*
X19171968Y-13402036D02*
X19162444Y-13411560D01*
X19162444Y-13411560D02*
X19143396Y-13421084D01*
X19143396Y-13421084D02*
X19095777Y-13421084D01*
X19095777Y-13421084D02*
X19076730Y-13411560D01*
X19076730Y-13411560D02*
X19067206Y-13402036D01*
X19419587Y-13421084D02*
X19419587Y-13221084D01*
X19505301Y-13421084D02*
X19505301Y-13316322D01*
X19505301Y-13316322D02*
X19495777Y-13297274D01*
X19495777Y-13297274D02*
X19476730Y-13287750D01*
X19476730Y-13287750D02*
X19448158Y-13287750D01*
X19448158Y-13287750D02*
X19429111Y-13297274D01*
X19429111Y-13297274D02*
X19419587Y-13306798D01*
X19629111Y-13421084D02*
X19610063Y-13411560D01*
X19610063Y-13411560D02*
X19600539Y-13402036D01*
X19600539Y-13402036D02*
X19591015Y-13382988D01*
X19591015Y-13382988D02*
X19591015Y-13325846D01*
X19591015Y-13325846D02*
X19600539Y-13306798D01*
X19600539Y-13306798D02*
X19610063Y-13297274D01*
X19610063Y-13297274D02*
X19629111Y-13287750D01*
X19629111Y-13287750D02*
X19657682Y-13287750D01*
X19657682Y-13287750D02*
X19676730Y-13297274D01*
X19676730Y-13297274D02*
X19686253Y-13306798D01*
X19686253Y-13306798D02*
X19695777Y-13325846D01*
X19695777Y-13325846D02*
X19695777Y-13382988D01*
X19695777Y-13382988D02*
X19686253Y-13402036D01*
X19686253Y-13402036D02*
X19676730Y-13411560D01*
X19676730Y-13411560D02*
X19657682Y-13421084D01*
X19657682Y-13421084D02*
X19629111Y-13421084D01*
X19810063Y-13421084D02*
X19791015Y-13411560D01*
X19791015Y-13411560D02*
X19781492Y-13392512D01*
X19781492Y-13392512D02*
X19781492Y-13221084D01*
X19962444Y-13411560D02*
X19943396Y-13421084D01*
X19943396Y-13421084D02*
X19905301Y-13421084D01*
X19905301Y-13421084D02*
X19886253Y-13411560D01*
X19886253Y-13411560D02*
X19876730Y-13392512D01*
X19876730Y-13392512D02*
X19876730Y-13316322D01*
X19876730Y-13316322D02*
X19886253Y-13297274D01*
X19886253Y-13297274D02*
X19905301Y-13287750D01*
X19905301Y-13287750D02*
X19943396Y-13287750D01*
X19943396Y-13287750D02*
X19962444Y-13297274D01*
X19962444Y-13297274D02*
X19971968Y-13316322D01*
X19971968Y-13316322D02*
X19971968Y-13335369D01*
X19971968Y-13335369D02*
X19876730Y-13354417D01*
X20048158Y-13411560D02*
X20067206Y-13421084D01*
X20067206Y-13421084D02*
X20105301Y-13421084D01*
X20105301Y-13421084D02*
X20124349Y-13411560D01*
X20124349Y-13411560D02*
X20133873Y-13392512D01*
X20133873Y-13392512D02*
X20133873Y-13382988D01*
X20133873Y-13382988D02*
X20124349Y-13363941D01*
X20124349Y-13363941D02*
X20105301Y-13354417D01*
X20105301Y-13354417D02*
X20076730Y-13354417D01*
X20076730Y-13354417D02*
X20057682Y-13344893D01*
X20057682Y-13344893D02*
X20048158Y-13325846D01*
X20048158Y-13325846D02*
X20048158Y-13316322D01*
X20048158Y-13316322D02*
X20057682Y-13297274D01*
X20057682Y-13297274D02*
X20076730Y-13287750D01*
X20076730Y-13287750D02*
X20105301Y-13287750D01*
X20105301Y-13287750D02*
X20124349Y-13297274D01*
X20200539Y-13497274D02*
X20210063Y-13487750D01*
X20210063Y-13487750D02*
X20229111Y-13459179D01*
X20229111Y-13459179D02*
X20238634Y-13440131D01*
X20238634Y-13440131D02*
X20248158Y-13411560D01*
X20248158Y-13411560D02*
X20257682Y-13363941D01*
X20257682Y-13363941D02*
X20257682Y-13325846D01*
X20257682Y-13325846D02*
X20248158Y-13278227D01*
X20248158Y-13278227D02*
X20238634Y-13249655D01*
X20238634Y-13249655D02*
X20229111Y-13230608D01*
X20229111Y-13230608D02*
X20210063Y-13202036D01*
X20210063Y-13202036D02*
X20200539Y-13192512D01*
D10*
X15185000Y-13543600D02*
X15185000Y-13643600D01*
X15135000Y-13593600D02*
X15235000Y-13593600D01*
D11*
X15600539Y-13685084D02*
X15486253Y-13685084D01*
X15543396Y-13685084D02*
X15543396Y-13485084D01*
X15543396Y-13485084D02*
X15524348Y-13513655D01*
X15524348Y-13513655D02*
X15505301Y-13532703D01*
X15505301Y-13532703D02*
X15486253Y-13542227D01*
X15686253Y-13666036D02*
X15695777Y-13675560D01*
X15695777Y-13675560D02*
X15686253Y-13685084D01*
X15686253Y-13685084D02*
X15676729Y-13675560D01*
X15676729Y-13675560D02*
X15686253Y-13666036D01*
X15686253Y-13666036D02*
X15686253Y-13685084D01*
X15819586Y-13485084D02*
X15838634Y-13485084D01*
X15838634Y-13485084D02*
X15857682Y-13494608D01*
X15857682Y-13494608D02*
X15867205Y-13504131D01*
X15867205Y-13504131D02*
X15876729Y-13523179D01*
X15876729Y-13523179D02*
X15886253Y-13561274D01*
X15886253Y-13561274D02*
X15886253Y-13608893D01*
X15886253Y-13608893D02*
X15876729Y-13646988D01*
X15876729Y-13646988D02*
X15867205Y-13666036D01*
X15867205Y-13666036D02*
X15857682Y-13675560D01*
X15857682Y-13675560D02*
X15838634Y-13685084D01*
X15838634Y-13685084D02*
X15819586Y-13685084D01*
X15819586Y-13685084D02*
X15800539Y-13675560D01*
X15800539Y-13675560D02*
X15791015Y-13666036D01*
X15791015Y-13666036D02*
X15781491Y-13646988D01*
X15781491Y-13646988D02*
X15771967Y-13608893D01*
X15771967Y-13608893D02*
X15771967Y-13561274D01*
X15771967Y-13561274D02*
X15781491Y-13523179D01*
X15781491Y-13523179D02*
X15791015Y-13504131D01*
X15791015Y-13504131D02*
X15800539Y-13494608D01*
X15800539Y-13494608D02*
X15819586Y-13485084D01*
X16010062Y-13485084D02*
X16029110Y-13485084D01*
X16029110Y-13485084D02*
X16048158Y-13494608D01*
X16048158Y-13494608D02*
X16057682Y-13504131D01*
X16057682Y-13504131D02*
X16067205Y-13523179D01*
X16067205Y-13523179D02*
X16076729Y-13561274D01*
X16076729Y-13561274D02*
X16076729Y-13608893D01*
X16076729Y-13608893D02*
X16067205Y-13646988D01*
X16067205Y-13646988D02*
X16057682Y-13666036D01*
X16057682Y-13666036D02*
X16048158Y-13675560D01*
X16048158Y-13675560D02*
X16029110Y-13685084D01*
X16029110Y-13685084D02*
X16010062Y-13685084D01*
X16010062Y-13685084D02*
X15991015Y-13675560D01*
X15991015Y-13675560D02*
X15981491Y-13666036D01*
X15981491Y-13666036D02*
X15971967Y-13646988D01*
X15971967Y-13646988D02*
X15962443Y-13608893D01*
X15962443Y-13608893D02*
X15962443Y-13561274D01*
X15962443Y-13561274D02*
X15971967Y-13523179D01*
X15971967Y-13523179D02*
X15981491Y-13504131D01*
X15981491Y-13504131D02*
X15991015Y-13494608D01*
X15991015Y-13494608D02*
X16010062Y-13485084D01*
X16200539Y-13485084D02*
X16219586Y-13485084D01*
X16219586Y-13485084D02*
X16238634Y-13494608D01*
X16238634Y-13494608D02*
X16248158Y-13504131D01*
X16248158Y-13504131D02*
X16257682Y-13523179D01*
X16257682Y-13523179D02*
X16267205Y-13561274D01*
X16267205Y-13561274D02*
X16267205Y-13608893D01*
X16267205Y-13608893D02*
X16257682Y-13646988D01*
X16257682Y-13646988D02*
X16248158Y-13666036D01*
X16248158Y-13666036D02*
X16238634Y-13675560D01*
X16238634Y-13675560D02*
X16219586Y-13685084D01*
X16219586Y-13685084D02*
X16200539Y-13685084D01*
X16200539Y-13685084D02*
X16181491Y-13675560D01*
X16181491Y-13675560D02*
X16171967Y-13666036D01*
X16171967Y-13666036D02*
X16162443Y-13646988D01*
X16162443Y-13646988D02*
X16152920Y-13608893D01*
X16152920Y-13608893D02*
X16152920Y-13561274D01*
X16152920Y-13561274D02*
X16162443Y-13523179D01*
X16162443Y-13523179D02*
X16171967Y-13504131D01*
X16171967Y-13504131D02*
X16181491Y-13494608D01*
X16181491Y-13494608D02*
X16200539Y-13485084D01*
X16352920Y-13685084D02*
X16352920Y-13551750D01*
X16352920Y-13570798D02*
X16362443Y-13561274D01*
X16362443Y-13561274D02*
X16381491Y-13551750D01*
X16381491Y-13551750D02*
X16410063Y-13551750D01*
X16410063Y-13551750D02*
X16429110Y-13561274D01*
X16429110Y-13561274D02*
X16438634Y-13580322D01*
X16438634Y-13580322D02*
X16438634Y-13685084D01*
X16438634Y-13580322D02*
X16448158Y-13561274D01*
X16448158Y-13561274D02*
X16467205Y-13551750D01*
X16467205Y-13551750D02*
X16495777Y-13551750D01*
X16495777Y-13551750D02*
X16514824Y-13561274D01*
X16514824Y-13561274D02*
X16524348Y-13580322D01*
X16524348Y-13580322D02*
X16524348Y-13685084D01*
X16619586Y-13685084D02*
X16619586Y-13551750D01*
X16619586Y-13570798D02*
X16629110Y-13561274D01*
X16629110Y-13561274D02*
X16648158Y-13551750D01*
X16648158Y-13551750D02*
X16676729Y-13551750D01*
X16676729Y-13551750D02*
X16695777Y-13561274D01*
X16695777Y-13561274D02*
X16705301Y-13580322D01*
X16705301Y-13580322D02*
X16705301Y-13685084D01*
X16705301Y-13580322D02*
X16714824Y-13561274D01*
X16714824Y-13561274D02*
X16733872Y-13551750D01*
X16733872Y-13551750D02*
X16762443Y-13551750D01*
X16762443Y-13551750D02*
X16781491Y-13561274D01*
X16781491Y-13561274D02*
X16791015Y-13580322D01*
X16791015Y-13580322D02*
X16791015Y-13685084D01*
X17181491Y-13475560D02*
X17010063Y-13732703D01*
X17438634Y-13485084D02*
X17457682Y-13485084D01*
X17457682Y-13485084D02*
X17476729Y-13494608D01*
X17476729Y-13494608D02*
X17486253Y-13504131D01*
X17486253Y-13504131D02*
X17495777Y-13523179D01*
X17495777Y-13523179D02*
X17505301Y-13561274D01*
X17505301Y-13561274D02*
X17505301Y-13608893D01*
X17505301Y-13608893D02*
X17495777Y-13646988D01*
X17495777Y-13646988D02*
X17486253Y-13666036D01*
X17486253Y-13666036D02*
X17476729Y-13675560D01*
X17476729Y-13675560D02*
X17457682Y-13685084D01*
X17457682Y-13685084D02*
X17438634Y-13685084D01*
X17438634Y-13685084D02*
X17419587Y-13675560D01*
X17419587Y-13675560D02*
X17410063Y-13666036D01*
X17410063Y-13666036D02*
X17400539Y-13646988D01*
X17400539Y-13646988D02*
X17391015Y-13608893D01*
X17391015Y-13608893D02*
X17391015Y-13561274D01*
X17391015Y-13561274D02*
X17400539Y-13523179D01*
X17400539Y-13523179D02*
X17410063Y-13504131D01*
X17410063Y-13504131D02*
X17419587Y-13494608D01*
X17419587Y-13494608D02*
X17438634Y-13485084D01*
X17591015Y-13666036D02*
X17600539Y-13675560D01*
X17600539Y-13675560D02*
X17591015Y-13685084D01*
X17591015Y-13685084D02*
X17581491Y-13675560D01*
X17581491Y-13675560D02*
X17591015Y-13666036D01*
X17591015Y-13666036D02*
X17591015Y-13685084D01*
X17724348Y-13485084D02*
X17743396Y-13485084D01*
X17743396Y-13485084D02*
X17762444Y-13494608D01*
X17762444Y-13494608D02*
X17771968Y-13504131D01*
X17771968Y-13504131D02*
X17781491Y-13523179D01*
X17781491Y-13523179D02*
X17791015Y-13561274D01*
X17791015Y-13561274D02*
X17791015Y-13608893D01*
X17791015Y-13608893D02*
X17781491Y-13646988D01*
X17781491Y-13646988D02*
X17771968Y-13666036D01*
X17771968Y-13666036D02*
X17762444Y-13675560D01*
X17762444Y-13675560D02*
X17743396Y-13685084D01*
X17743396Y-13685084D02*
X17724348Y-13685084D01*
X17724348Y-13685084D02*
X17705301Y-13675560D01*
X17705301Y-13675560D02*
X17695777Y-13666036D01*
X17695777Y-13666036D02*
X17686253Y-13646988D01*
X17686253Y-13646988D02*
X17676729Y-13608893D01*
X17676729Y-13608893D02*
X17676729Y-13561274D01*
X17676729Y-13561274D02*
X17686253Y-13523179D01*
X17686253Y-13523179D02*
X17695777Y-13504131D01*
X17695777Y-13504131D02*
X17705301Y-13494608D01*
X17705301Y-13494608D02*
X17724348Y-13485084D01*
X17857682Y-13485084D02*
X17981491Y-13485084D01*
X17981491Y-13485084D02*
X17914825Y-13561274D01*
X17914825Y-13561274D02*
X17943396Y-13561274D01*
X17943396Y-13561274D02*
X17962444Y-13570798D01*
X17962444Y-13570798D02*
X17971968Y-13580322D01*
X17971968Y-13580322D02*
X17981491Y-13599369D01*
X17981491Y-13599369D02*
X17981491Y-13646988D01*
X17981491Y-13646988D02*
X17971968Y-13666036D01*
X17971968Y-13666036D02*
X17962444Y-13675560D01*
X17962444Y-13675560D02*
X17943396Y-13685084D01*
X17943396Y-13685084D02*
X17886253Y-13685084D01*
X17886253Y-13685084D02*
X17867206Y-13675560D01*
X17867206Y-13675560D02*
X17857682Y-13666036D01*
X18076729Y-13685084D02*
X18114825Y-13685084D01*
X18114825Y-13685084D02*
X18133872Y-13675560D01*
X18133872Y-13675560D02*
X18143396Y-13666036D01*
X18143396Y-13666036D02*
X18162444Y-13637465D01*
X18162444Y-13637465D02*
X18171968Y-13599369D01*
X18171968Y-13599369D02*
X18171968Y-13523179D01*
X18171968Y-13523179D02*
X18162444Y-13504131D01*
X18162444Y-13504131D02*
X18152920Y-13494608D01*
X18152920Y-13494608D02*
X18133872Y-13485084D01*
X18133872Y-13485084D02*
X18095777Y-13485084D01*
X18095777Y-13485084D02*
X18076729Y-13494608D01*
X18076729Y-13494608D02*
X18067206Y-13504131D01*
X18067206Y-13504131D02*
X18057682Y-13523179D01*
X18057682Y-13523179D02*
X18057682Y-13570798D01*
X18057682Y-13570798D02*
X18067206Y-13589846D01*
X18067206Y-13589846D02*
X18076729Y-13599369D01*
X18076729Y-13599369D02*
X18095777Y-13608893D01*
X18095777Y-13608893D02*
X18133872Y-13608893D01*
X18133872Y-13608893D02*
X18152920Y-13599369D01*
X18152920Y-13599369D02*
X18162444Y-13589846D01*
X18162444Y-13589846D02*
X18171968Y-13570798D01*
X18343396Y-13551750D02*
X18343396Y-13685084D01*
X18295777Y-13475560D02*
X18248158Y-13618417D01*
X18248158Y-13618417D02*
X18371968Y-13618417D01*
X18438634Y-13485084D02*
X18438634Y-13523179D01*
X18514825Y-13485084D02*
X18514825Y-13523179D01*
X18810063Y-13761274D02*
X18800539Y-13751750D01*
X18800539Y-13751750D02*
X18781491Y-13723179D01*
X18781491Y-13723179D02*
X18771968Y-13704131D01*
X18771968Y-13704131D02*
X18762444Y-13675560D01*
X18762444Y-13675560D02*
X18752920Y-13627941D01*
X18752920Y-13627941D02*
X18752920Y-13589846D01*
X18752920Y-13589846D02*
X18762444Y-13542227D01*
X18762444Y-13542227D02*
X18771968Y-13513655D01*
X18771968Y-13513655D02*
X18781491Y-13494608D01*
X18781491Y-13494608D02*
X18800539Y-13466036D01*
X18800539Y-13466036D02*
X18810063Y-13456512D01*
X18971968Y-13551750D02*
X18971968Y-13685084D01*
X18924349Y-13475560D02*
X18876730Y-13618417D01*
X18876730Y-13618417D02*
X19000539Y-13618417D01*
X19114825Y-13485084D02*
X19133872Y-13485084D01*
X19133872Y-13485084D02*
X19152920Y-13494608D01*
X19152920Y-13494608D02*
X19162444Y-13504131D01*
X19162444Y-13504131D02*
X19171968Y-13523179D01*
X19171968Y-13523179D02*
X19181491Y-13561274D01*
X19181491Y-13561274D02*
X19181491Y-13608893D01*
X19181491Y-13608893D02*
X19171968Y-13646988D01*
X19171968Y-13646988D02*
X19162444Y-13666036D01*
X19162444Y-13666036D02*
X19152920Y-13675560D01*
X19152920Y-13675560D02*
X19133872Y-13685084D01*
X19133872Y-13685084D02*
X19114825Y-13685084D01*
X19114825Y-13685084D02*
X19095777Y-13675560D01*
X19095777Y-13675560D02*
X19086253Y-13666036D01*
X19086253Y-13666036D02*
X19076730Y-13646988D01*
X19076730Y-13646988D02*
X19067206Y-13608893D01*
X19067206Y-13608893D02*
X19067206Y-13561274D01*
X19067206Y-13561274D02*
X19076730Y-13523179D01*
X19076730Y-13523179D02*
X19086253Y-13504131D01*
X19086253Y-13504131D02*
X19095777Y-13494608D01*
X19095777Y-13494608D02*
X19114825Y-13485084D01*
X19419587Y-13685084D02*
X19419587Y-13485084D01*
X19505301Y-13685084D02*
X19505301Y-13580322D01*
X19505301Y-13580322D02*
X19495777Y-13561274D01*
X19495777Y-13561274D02*
X19476730Y-13551750D01*
X19476730Y-13551750D02*
X19448158Y-13551750D01*
X19448158Y-13551750D02*
X19429111Y-13561274D01*
X19429111Y-13561274D02*
X19419587Y-13570798D01*
X19629111Y-13685084D02*
X19610063Y-13675560D01*
X19610063Y-13675560D02*
X19600539Y-13666036D01*
X19600539Y-13666036D02*
X19591015Y-13646988D01*
X19591015Y-13646988D02*
X19591015Y-13589846D01*
X19591015Y-13589846D02*
X19600539Y-13570798D01*
X19600539Y-13570798D02*
X19610063Y-13561274D01*
X19610063Y-13561274D02*
X19629111Y-13551750D01*
X19629111Y-13551750D02*
X19657682Y-13551750D01*
X19657682Y-13551750D02*
X19676730Y-13561274D01*
X19676730Y-13561274D02*
X19686253Y-13570798D01*
X19686253Y-13570798D02*
X19695777Y-13589846D01*
X19695777Y-13589846D02*
X19695777Y-13646988D01*
X19695777Y-13646988D02*
X19686253Y-13666036D01*
X19686253Y-13666036D02*
X19676730Y-13675560D01*
X19676730Y-13675560D02*
X19657682Y-13685084D01*
X19657682Y-13685084D02*
X19629111Y-13685084D01*
X19810063Y-13685084D02*
X19791015Y-13675560D01*
X19791015Y-13675560D02*
X19781492Y-13656512D01*
X19781492Y-13656512D02*
X19781492Y-13485084D01*
X19962444Y-13675560D02*
X19943396Y-13685084D01*
X19943396Y-13685084D02*
X19905301Y-13685084D01*
X19905301Y-13685084D02*
X19886253Y-13675560D01*
X19886253Y-13675560D02*
X19876730Y-13656512D01*
X19876730Y-13656512D02*
X19876730Y-13580322D01*
X19876730Y-13580322D02*
X19886253Y-13561274D01*
X19886253Y-13561274D02*
X19905301Y-13551750D01*
X19905301Y-13551750D02*
X19943396Y-13551750D01*
X19943396Y-13551750D02*
X19962444Y-13561274D01*
X19962444Y-13561274D02*
X19971968Y-13580322D01*
X19971968Y-13580322D02*
X19971968Y-13599369D01*
X19971968Y-13599369D02*
X19876730Y-13618417D01*
X20048158Y-13675560D02*
X20067206Y-13685084D01*
X20067206Y-13685084D02*
X20105301Y-13685084D01*
X20105301Y-13685084D02*
X20124349Y-13675560D01*
X20124349Y-13675560D02*
X20133873Y-13656512D01*
X20133873Y-13656512D02*
X20133873Y-13646988D01*
X20133873Y-13646988D02*
X20124349Y-13627941D01*
X20124349Y-13627941D02*
X20105301Y-13618417D01*
X20105301Y-13618417D02*
X20076730Y-13618417D01*
X20076730Y-13618417D02*
X20057682Y-13608893D01*
X20057682Y-13608893D02*
X20048158Y-13589846D01*
X20048158Y-13589846D02*
X20048158Y-13580322D01*
X20048158Y-13580322D02*
X20057682Y-13561274D01*
X20057682Y-13561274D02*
X20076730Y-13551750D01*
X20076730Y-13551750D02*
X20105301Y-13551750D01*
X20105301Y-13551750D02*
X20124349Y-13561274D01*
X20200539Y-13761274D02*
X20210063Y-13751750D01*
X20210063Y-13751750D02*
X20229111Y-13723179D01*
X20229111Y-13723179D02*
X20238634Y-13704131D01*
X20238634Y-13704131D02*
X20248158Y-13675560D01*
X20248158Y-13675560D02*
X20257682Y-13627941D01*
X20257682Y-13627941D02*
X20257682Y-13589846D01*
X20257682Y-13589846D02*
X20248158Y-13542227D01*
X20248158Y-13542227D02*
X20238634Y-13513655D01*
X20238634Y-13513655D02*
X20229111Y-13494608D01*
X20229111Y-13494608D02*
X20210063Y-13466036D01*
X20210063Y-13466036D02*
X20200539Y-13456512D01*
D14*
X15218891Y-13896491D02*
X15218891Y-13818709D01*
X15141109Y-13818709D01*
X15141109Y-13896491D01*
X15218891Y-13896491D01*
D11*
X15600539Y-13949084D02*
X15486253Y-13949084D01*
X15543396Y-13949084D02*
X15543396Y-13749084D01*
X15543396Y-13749084D02*
X15524348Y-13777655D01*
X15524348Y-13777655D02*
X15505301Y-13796703D01*
X15505301Y-13796703D02*
X15486253Y-13806227D01*
X15686253Y-13930036D02*
X15695777Y-13939560D01*
X15695777Y-13939560D02*
X15686253Y-13949084D01*
X15686253Y-13949084D02*
X15676729Y-13939560D01*
X15676729Y-13939560D02*
X15686253Y-13930036D01*
X15686253Y-13930036D02*
X15686253Y-13949084D01*
X15886253Y-13949084D02*
X15771967Y-13949084D01*
X15829110Y-13949084D02*
X15829110Y-13749084D01*
X15829110Y-13749084D02*
X15810062Y-13777655D01*
X15810062Y-13777655D02*
X15791015Y-13796703D01*
X15791015Y-13796703D02*
X15771967Y-13806227D01*
X16010062Y-13749084D02*
X16029110Y-13749084D01*
X16029110Y-13749084D02*
X16048158Y-13758608D01*
X16048158Y-13758608D02*
X16057682Y-13768131D01*
X16057682Y-13768131D02*
X16067205Y-13787179D01*
X16067205Y-13787179D02*
X16076729Y-13825274D01*
X16076729Y-13825274D02*
X16076729Y-13872893D01*
X16076729Y-13872893D02*
X16067205Y-13910988D01*
X16067205Y-13910988D02*
X16057682Y-13930036D01*
X16057682Y-13930036D02*
X16048158Y-13939560D01*
X16048158Y-13939560D02*
X16029110Y-13949084D01*
X16029110Y-13949084D02*
X16010062Y-13949084D01*
X16010062Y-13949084D02*
X15991015Y-13939560D01*
X15991015Y-13939560D02*
X15981491Y-13930036D01*
X15981491Y-13930036D02*
X15971967Y-13910988D01*
X15971967Y-13910988D02*
X15962443Y-13872893D01*
X15962443Y-13872893D02*
X15962443Y-13825274D01*
X15962443Y-13825274D02*
X15971967Y-13787179D01*
X15971967Y-13787179D02*
X15981491Y-13768131D01*
X15981491Y-13768131D02*
X15991015Y-13758608D01*
X15991015Y-13758608D02*
X16010062Y-13749084D01*
X16200539Y-13749084D02*
X16219586Y-13749084D01*
X16219586Y-13749084D02*
X16238634Y-13758608D01*
X16238634Y-13758608D02*
X16248158Y-13768131D01*
X16248158Y-13768131D02*
X16257682Y-13787179D01*
X16257682Y-13787179D02*
X16267205Y-13825274D01*
X16267205Y-13825274D02*
X16267205Y-13872893D01*
X16267205Y-13872893D02*
X16257682Y-13910988D01*
X16257682Y-13910988D02*
X16248158Y-13930036D01*
X16248158Y-13930036D02*
X16238634Y-13939560D01*
X16238634Y-13939560D02*
X16219586Y-13949084D01*
X16219586Y-13949084D02*
X16200539Y-13949084D01*
X16200539Y-13949084D02*
X16181491Y-13939560D01*
X16181491Y-13939560D02*
X16171967Y-13930036D01*
X16171967Y-13930036D02*
X16162443Y-13910988D01*
X16162443Y-13910988D02*
X16152920Y-13872893D01*
X16152920Y-13872893D02*
X16152920Y-13825274D01*
X16152920Y-13825274D02*
X16162443Y-13787179D01*
X16162443Y-13787179D02*
X16171967Y-13768131D01*
X16171967Y-13768131D02*
X16181491Y-13758608D01*
X16181491Y-13758608D02*
X16200539Y-13749084D01*
X16352920Y-13949084D02*
X16352920Y-13815750D01*
X16352920Y-13834798D02*
X16362443Y-13825274D01*
X16362443Y-13825274D02*
X16381491Y-13815750D01*
X16381491Y-13815750D02*
X16410063Y-13815750D01*
X16410063Y-13815750D02*
X16429110Y-13825274D01*
X16429110Y-13825274D02*
X16438634Y-13844322D01*
X16438634Y-13844322D02*
X16438634Y-13949084D01*
X16438634Y-13844322D02*
X16448158Y-13825274D01*
X16448158Y-13825274D02*
X16467205Y-13815750D01*
X16467205Y-13815750D02*
X16495777Y-13815750D01*
X16495777Y-13815750D02*
X16514824Y-13825274D01*
X16514824Y-13825274D02*
X16524348Y-13844322D01*
X16524348Y-13844322D02*
X16524348Y-13949084D01*
X16619586Y-13949084D02*
X16619586Y-13815750D01*
X16619586Y-13834798D02*
X16629110Y-13825274D01*
X16629110Y-13825274D02*
X16648158Y-13815750D01*
X16648158Y-13815750D02*
X16676729Y-13815750D01*
X16676729Y-13815750D02*
X16695777Y-13825274D01*
X16695777Y-13825274D02*
X16705301Y-13844322D01*
X16705301Y-13844322D02*
X16705301Y-13949084D01*
X16705301Y-13844322D02*
X16714824Y-13825274D01*
X16714824Y-13825274D02*
X16733872Y-13815750D01*
X16733872Y-13815750D02*
X16762443Y-13815750D01*
X16762443Y-13815750D02*
X16781491Y-13825274D01*
X16781491Y-13825274D02*
X16791015Y-13844322D01*
X16791015Y-13844322D02*
X16791015Y-13949084D01*
X17181491Y-13739560D02*
X17010063Y-13996703D01*
X17438634Y-13749084D02*
X17457682Y-13749084D01*
X17457682Y-13749084D02*
X17476729Y-13758608D01*
X17476729Y-13758608D02*
X17486253Y-13768131D01*
X17486253Y-13768131D02*
X17495777Y-13787179D01*
X17495777Y-13787179D02*
X17505301Y-13825274D01*
X17505301Y-13825274D02*
X17505301Y-13872893D01*
X17505301Y-13872893D02*
X17495777Y-13910988D01*
X17495777Y-13910988D02*
X17486253Y-13930036D01*
X17486253Y-13930036D02*
X17476729Y-13939560D01*
X17476729Y-13939560D02*
X17457682Y-13949084D01*
X17457682Y-13949084D02*
X17438634Y-13949084D01*
X17438634Y-13949084D02*
X17419587Y-13939560D01*
X17419587Y-13939560D02*
X17410063Y-13930036D01*
X17410063Y-13930036D02*
X17400539Y-13910988D01*
X17400539Y-13910988D02*
X17391015Y-13872893D01*
X17391015Y-13872893D02*
X17391015Y-13825274D01*
X17391015Y-13825274D02*
X17400539Y-13787179D01*
X17400539Y-13787179D02*
X17410063Y-13768131D01*
X17410063Y-13768131D02*
X17419587Y-13758608D01*
X17419587Y-13758608D02*
X17438634Y-13749084D01*
X17591015Y-13930036D02*
X17600539Y-13939560D01*
X17600539Y-13939560D02*
X17591015Y-13949084D01*
X17591015Y-13949084D02*
X17581491Y-13939560D01*
X17581491Y-13939560D02*
X17591015Y-13930036D01*
X17591015Y-13930036D02*
X17591015Y-13949084D01*
X17724348Y-13749084D02*
X17743396Y-13749084D01*
X17743396Y-13749084D02*
X17762444Y-13758608D01*
X17762444Y-13758608D02*
X17771968Y-13768131D01*
X17771968Y-13768131D02*
X17781491Y-13787179D01*
X17781491Y-13787179D02*
X17791015Y-13825274D01*
X17791015Y-13825274D02*
X17791015Y-13872893D01*
X17791015Y-13872893D02*
X17781491Y-13910988D01*
X17781491Y-13910988D02*
X17771968Y-13930036D01*
X17771968Y-13930036D02*
X17762444Y-13939560D01*
X17762444Y-13939560D02*
X17743396Y-13949084D01*
X17743396Y-13949084D02*
X17724348Y-13949084D01*
X17724348Y-13949084D02*
X17705301Y-13939560D01*
X17705301Y-13939560D02*
X17695777Y-13930036D01*
X17695777Y-13930036D02*
X17686253Y-13910988D01*
X17686253Y-13910988D02*
X17676729Y-13872893D01*
X17676729Y-13872893D02*
X17676729Y-13825274D01*
X17676729Y-13825274D02*
X17686253Y-13787179D01*
X17686253Y-13787179D02*
X17695777Y-13768131D01*
X17695777Y-13768131D02*
X17705301Y-13758608D01*
X17705301Y-13758608D02*
X17724348Y-13749084D01*
X17962444Y-13815750D02*
X17962444Y-13949084D01*
X17914825Y-13739560D02*
X17867206Y-13882417D01*
X17867206Y-13882417D02*
X17991015Y-13882417D01*
X18048158Y-13749084D02*
X18171968Y-13749084D01*
X18171968Y-13749084D02*
X18105301Y-13825274D01*
X18105301Y-13825274D02*
X18133872Y-13825274D01*
X18133872Y-13825274D02*
X18152920Y-13834798D01*
X18152920Y-13834798D02*
X18162444Y-13844322D01*
X18162444Y-13844322D02*
X18171968Y-13863369D01*
X18171968Y-13863369D02*
X18171968Y-13910988D01*
X18171968Y-13910988D02*
X18162444Y-13930036D01*
X18162444Y-13930036D02*
X18152920Y-13939560D01*
X18152920Y-13939560D02*
X18133872Y-13949084D01*
X18133872Y-13949084D02*
X18076729Y-13949084D01*
X18076729Y-13949084D02*
X18057682Y-13939560D01*
X18057682Y-13939560D02*
X18048158Y-13930036D01*
X18238634Y-13749084D02*
X18362444Y-13749084D01*
X18362444Y-13749084D02*
X18295777Y-13825274D01*
X18295777Y-13825274D02*
X18324349Y-13825274D01*
X18324349Y-13825274D02*
X18343396Y-13834798D01*
X18343396Y-13834798D02*
X18352920Y-13844322D01*
X18352920Y-13844322D02*
X18362444Y-13863369D01*
X18362444Y-13863369D02*
X18362444Y-13910988D01*
X18362444Y-13910988D02*
X18352920Y-13930036D01*
X18352920Y-13930036D02*
X18343396Y-13939560D01*
X18343396Y-13939560D02*
X18324349Y-13949084D01*
X18324349Y-13949084D02*
X18267206Y-13949084D01*
X18267206Y-13949084D02*
X18248158Y-13939560D01*
X18248158Y-13939560D02*
X18238634Y-13930036D01*
X18438634Y-13749084D02*
X18438634Y-13787179D01*
X18514825Y-13749084D02*
X18514825Y-13787179D01*
X18810063Y-14025274D02*
X18800539Y-14015750D01*
X18800539Y-14015750D02*
X18781491Y-13987179D01*
X18781491Y-13987179D02*
X18771968Y-13968131D01*
X18771968Y-13968131D02*
X18762444Y-13939560D01*
X18762444Y-13939560D02*
X18752920Y-13891941D01*
X18752920Y-13891941D02*
X18752920Y-13853846D01*
X18752920Y-13853846D02*
X18762444Y-13806227D01*
X18762444Y-13806227D02*
X18771968Y-13777655D01*
X18771968Y-13777655D02*
X18781491Y-13758608D01*
X18781491Y-13758608D02*
X18800539Y-13730036D01*
X18800539Y-13730036D02*
X18810063Y-13720512D01*
X18971968Y-13815750D02*
X18971968Y-13949084D01*
X18924349Y-13739560D02*
X18876730Y-13882417D01*
X18876730Y-13882417D02*
X19000539Y-13882417D01*
X19105301Y-13834798D02*
X19086253Y-13825274D01*
X19086253Y-13825274D02*
X19076730Y-13815750D01*
X19076730Y-13815750D02*
X19067206Y-13796703D01*
X19067206Y-13796703D02*
X19067206Y-13787179D01*
X19067206Y-13787179D02*
X19076730Y-13768131D01*
X19076730Y-13768131D02*
X19086253Y-13758608D01*
X19086253Y-13758608D02*
X19105301Y-13749084D01*
X19105301Y-13749084D02*
X19143396Y-13749084D01*
X19143396Y-13749084D02*
X19162444Y-13758608D01*
X19162444Y-13758608D02*
X19171968Y-13768131D01*
X19171968Y-13768131D02*
X19181491Y-13787179D01*
X19181491Y-13787179D02*
X19181491Y-13796703D01*
X19181491Y-13796703D02*
X19171968Y-13815750D01*
X19171968Y-13815750D02*
X19162444Y-13825274D01*
X19162444Y-13825274D02*
X19143396Y-13834798D01*
X19143396Y-13834798D02*
X19105301Y-13834798D01*
X19105301Y-13834798D02*
X19086253Y-13844322D01*
X19086253Y-13844322D02*
X19076730Y-13853846D01*
X19076730Y-13853846D02*
X19067206Y-13872893D01*
X19067206Y-13872893D02*
X19067206Y-13910988D01*
X19067206Y-13910988D02*
X19076730Y-13930036D01*
X19076730Y-13930036D02*
X19086253Y-13939560D01*
X19086253Y-13939560D02*
X19105301Y-13949084D01*
X19105301Y-13949084D02*
X19143396Y-13949084D01*
X19143396Y-13949084D02*
X19162444Y-13939560D01*
X19162444Y-13939560D02*
X19171968Y-13930036D01*
X19171968Y-13930036D02*
X19181491Y-13910988D01*
X19181491Y-13910988D02*
X19181491Y-13872893D01*
X19181491Y-13872893D02*
X19171968Y-13853846D01*
X19171968Y-13853846D02*
X19162444Y-13844322D01*
X19162444Y-13844322D02*
X19143396Y-13834798D01*
X19419587Y-13949084D02*
X19419587Y-13749084D01*
X19505301Y-13949084D02*
X19505301Y-13844322D01*
X19505301Y-13844322D02*
X19495777Y-13825274D01*
X19495777Y-13825274D02*
X19476730Y-13815750D01*
X19476730Y-13815750D02*
X19448158Y-13815750D01*
X19448158Y-13815750D02*
X19429111Y-13825274D01*
X19429111Y-13825274D02*
X19419587Y-13834798D01*
X19629111Y-13949084D02*
X19610063Y-13939560D01*
X19610063Y-13939560D02*
X19600539Y-13930036D01*
X19600539Y-13930036D02*
X19591015Y-13910988D01*
X19591015Y-13910988D02*
X19591015Y-13853846D01*
X19591015Y-13853846D02*
X19600539Y-13834798D01*
X19600539Y-13834798D02*
X19610063Y-13825274D01*
X19610063Y-13825274D02*
X19629111Y-13815750D01*
X19629111Y-13815750D02*
X19657682Y-13815750D01*
X19657682Y-13815750D02*
X19676730Y-13825274D01*
X19676730Y-13825274D02*
X19686253Y-13834798D01*
X19686253Y-13834798D02*
X19695777Y-13853846D01*
X19695777Y-13853846D02*
X19695777Y-13910988D01*
X19695777Y-13910988D02*
X19686253Y-13930036D01*
X19686253Y-13930036D02*
X19676730Y-13939560D01*
X19676730Y-13939560D02*
X19657682Y-13949084D01*
X19657682Y-13949084D02*
X19629111Y-13949084D01*
X19810063Y-13949084D02*
X19791015Y-13939560D01*
X19791015Y-13939560D02*
X19781492Y-13920512D01*
X19781492Y-13920512D02*
X19781492Y-13749084D01*
X19962444Y-13939560D02*
X19943396Y-13949084D01*
X19943396Y-13949084D02*
X19905301Y-13949084D01*
X19905301Y-13949084D02*
X19886253Y-13939560D01*
X19886253Y-13939560D02*
X19876730Y-13920512D01*
X19876730Y-13920512D02*
X19876730Y-13844322D01*
X19876730Y-13844322D02*
X19886253Y-13825274D01*
X19886253Y-13825274D02*
X19905301Y-13815750D01*
X19905301Y-13815750D02*
X19943396Y-13815750D01*
X19943396Y-13815750D02*
X19962444Y-13825274D01*
X19962444Y-13825274D02*
X19971968Y-13844322D01*
X19971968Y-13844322D02*
X19971968Y-13863369D01*
X19971968Y-13863369D02*
X19876730Y-13882417D01*
X20048158Y-13939560D02*
X20067206Y-13949084D01*
X20067206Y-13949084D02*
X20105301Y-13949084D01*
X20105301Y-13949084D02*
X20124349Y-13939560D01*
X20124349Y-13939560D02*
X20133873Y-13920512D01*
X20133873Y-13920512D02*
X20133873Y-13910988D01*
X20133873Y-13910988D02*
X20124349Y-13891941D01*
X20124349Y-13891941D02*
X20105301Y-13882417D01*
X20105301Y-13882417D02*
X20076730Y-13882417D01*
X20076730Y-13882417D02*
X20057682Y-13872893D01*
X20057682Y-13872893D02*
X20048158Y-13853846D01*
X20048158Y-13853846D02*
X20048158Y-13844322D01*
X20048158Y-13844322D02*
X20057682Y-13825274D01*
X20057682Y-13825274D02*
X20076730Y-13815750D01*
X20076730Y-13815750D02*
X20105301Y-13815750D01*
X20105301Y-13815750D02*
X20124349Y-13825274D01*
X20200539Y-14025274D02*
X20210063Y-14015750D01*
X20210063Y-14015750D02*
X20229111Y-13987179D01*
X20229111Y-13987179D02*
X20238634Y-13968131D01*
X20238634Y-13968131D02*
X20248158Y-13939560D01*
X20248158Y-13939560D02*
X20257682Y-13891941D01*
X20257682Y-13891941D02*
X20257682Y-13853846D01*
X20257682Y-13853846D02*
X20248158Y-13806227D01*
X20248158Y-13806227D02*
X20238634Y-13777655D01*
X20238634Y-13777655D02*
X20229111Y-13758608D01*
X20229111Y-13758608D02*
X20210063Y-13730036D01*
X20210063Y-13730036D02*
X20200539Y-13720512D01*
M02*
