%TF.GenerationSoftware,KiCad,Pcbnew,7.0.5-7.0.5~ubuntu22.04.1*%
%TF.CreationDate,2023-08-20T16:34:42-07:00*%
%TF.ProjectId,terminal_strip_adaptor,7465726d-696e-4616-9c5f-73747269705f,rev?*%
%TF.SameCoordinates,Original*%
%TF.FileFunction,Soldermask,Top*%
%TF.FilePolarity,Negative*%
%FSLAX46Y46*%
G04 Gerber Fmt 4.6, Leading zero omitted, Abs format (unit mm)*
G04 Created by KiCad (PCBNEW 7.0.5-7.0.5~ubuntu22.04.1) date 2023-08-20 16:34:42*
%MOMM*%
%LPD*%
G01*
G04 APERTURE LIST*
%ADD10R,2.100000X2.100000*%
%ADD11C,2.100000*%
%ADD12C,1.600000*%
%ADD13R,1.700000X1.700000*%
%ADD14O,1.700000X1.700000*%
G04 APERTURE END LIST*
D10*
%TO.C,J10*%
X177500000Y-73439600D03*
D11*
X177500000Y-70899600D03*
X177500000Y-68359600D03*
X177500000Y-65819600D03*
%TD*%
D10*
%TO.C,J8*%
X177500000Y-96790800D03*
D11*
X177500000Y-94250800D03*
X177500000Y-91710800D03*
X177500000Y-89170800D03*
%TD*%
D10*
%TO.C,J11*%
X177500000Y-61764000D03*
D11*
X177500000Y-59224000D03*
X177500000Y-56684000D03*
X177500000Y-54144000D03*
%TD*%
D10*
%TO.C,J13*%
X177500000Y-120142000D03*
D11*
X177500000Y-117602000D03*
X177500000Y-115062000D03*
X177500000Y-112522000D03*
%TD*%
D10*
%TO.C,J9*%
X177500000Y-85115200D03*
D11*
X177500000Y-82575200D03*
X177500000Y-80035200D03*
X177500000Y-77495200D03*
%TD*%
D10*
%TO.C,J6*%
X169118000Y-100838400D03*
D11*
X169118000Y-103378400D03*
X169118000Y-105918400D03*
X169118000Y-108458400D03*
%TD*%
D10*
%TO.C,J12*%
X169118000Y-120142000D03*
D11*
X169118000Y-117602000D03*
X169118000Y-115062000D03*
X169118000Y-112522000D03*
%TD*%
D12*
%TO.C,J14*%
X186944000Y-111633000D03*
X186944000Y-114173000D03*
X186944000Y-116713000D03*
X186944000Y-119253000D03*
X186944000Y-121793000D03*
X189484000Y-111633000D03*
X189484000Y-114173000D03*
X189484000Y-116713000D03*
X189484000Y-119253000D03*
X189484000Y-121793000D03*
X192024000Y-111633000D03*
X192024000Y-114173000D03*
X192024000Y-116713000D03*
X192024000Y-119253000D03*
X192024000Y-121793000D03*
X194564000Y-111633000D03*
X194564000Y-114173000D03*
X194564000Y-116713000D03*
X194564000Y-119253000D03*
X194564000Y-121793000D03*
X197104000Y-111633000D03*
X197104000Y-114173000D03*
X197104000Y-116713000D03*
X197104000Y-119253000D03*
X197104000Y-121793000D03*
%TD*%
D10*
%TO.C,J5*%
X169118000Y-89164800D03*
D11*
X169118000Y-91704800D03*
X169118000Y-94244800D03*
X169118000Y-96784800D03*
%TD*%
D10*
%TO.C,J4*%
X169118000Y-77491200D03*
D11*
X169118000Y-80031200D03*
X169118000Y-82571200D03*
X169118000Y-85111200D03*
%TD*%
D10*
%TO.C,J7*%
X177500000Y-108466400D03*
D11*
X177500000Y-105926400D03*
X177500000Y-103386400D03*
X177500000Y-100846400D03*
%TD*%
D10*
%TO.C,J3*%
X169118000Y-65817600D03*
D11*
X169118000Y-68357600D03*
X169118000Y-70897600D03*
X169118000Y-73437600D03*
%TD*%
D10*
%TO.C,J2*%
X169118000Y-54144000D03*
D11*
X169118000Y-56684000D03*
X169118000Y-59224000D03*
X169118000Y-61764000D03*
%TD*%
D13*
%TO.C,J1*%
X192532000Y-56896000D03*
D14*
X192532000Y-59436000D03*
X192532000Y-61976000D03*
X192532000Y-64516000D03*
X192532000Y-67056000D03*
X192532000Y-69596000D03*
X192532000Y-72136000D03*
X192532000Y-74676000D03*
X192532000Y-77216000D03*
X192532000Y-79756000D03*
X192532000Y-82296000D03*
X192532000Y-84836000D03*
X192532000Y-87376000D03*
X192532000Y-89916000D03*
X192532000Y-92456000D03*
X192532000Y-94996000D03*
X192532000Y-97536000D03*
X192532000Y-100076000D03*
X192532000Y-102616000D03*
X192532000Y-105156000D03*
X195072000Y-105156000D03*
X195072000Y-102616000D03*
X195072000Y-100076000D03*
X195072000Y-97536000D03*
X195072000Y-94996000D03*
X195072000Y-92456000D03*
X195072000Y-89916000D03*
X195072000Y-87376000D03*
X195072000Y-84836000D03*
X195072000Y-82296000D03*
X195072000Y-79756000D03*
X195072000Y-77216000D03*
X195072000Y-74676000D03*
X195072000Y-72136000D03*
X195072000Y-69596000D03*
X195072000Y-67056000D03*
X195072000Y-64516000D03*
X195072000Y-61976000D03*
X195072000Y-59436000D03*
X195072000Y-56896000D03*
%TD*%
M02*
