M48
; DRILL file {KiCad 7.0.5-7.0.5~ubuntu22.04.1} date Sun 20 Aug 2023 04:34:45 PM PDT
; FORMAT={-:-/ absolute / metric / decimal}
; #@! TF.CreationDate,2023-08-20T16:34:45-07:00
; #@! TF.GenerationSoftware,Kicad,Pcbnew,7.0.5-7.0.5~ubuntu22.04.1
; #@! TF.FileFunction,Plated,1,2,PTH
FMAT,2
METRIC
; #@! TA.AperFunction,Plated,PTH,ViaDrill
T1C0.400
; #@! TA.AperFunction,Plated,PTH,ComponentDrill
T2C0.800
; #@! TA.AperFunction,Plated,PTH,ComponentDrill
T3C1.000
; #@! TA.AperFunction,Plated,PTH,ComponentDrill
T4C1.100
%
G90
G05
T1
X172.466Y-120.142
X173.482Y-118.872
X179.832Y-113.792
X180.848Y-115.824
X182.88Y-50.292
X182.88Y-72.136
X183.896Y-108.466
X184.404Y-103.886
X185.79Y-48.514
X186.182Y-87.63
X186.944Y-64.262
X187.96Y-102.87
X188.468Y-86.106
X188.722Y-82.804
X193.888Y-53.34
X195.326Y-53.848
T2
X186.944Y-111.633
X186.944Y-114.173
X186.944Y-116.713
X186.944Y-119.253
X186.944Y-121.793
X189.484Y-111.633
X189.484Y-114.173
X189.484Y-116.713
X189.484Y-119.253
X189.484Y-121.793
X192.024Y-111.633
X192.024Y-114.173
X192.024Y-116.713
X192.024Y-119.253
X192.024Y-121.793
X194.564Y-111.633
X194.564Y-114.173
X194.564Y-116.713
X194.564Y-119.253
X194.564Y-121.793
X197.104Y-111.633
X197.104Y-114.173
X197.104Y-116.713
X197.104Y-119.253
X197.104Y-121.793
T3
X192.532Y-56.896
X192.532Y-59.436
X192.532Y-61.976
X192.532Y-64.516
X192.532Y-67.056
X192.532Y-69.596
X192.532Y-72.136
X192.532Y-74.676
X192.532Y-77.216
X192.532Y-79.756
X192.532Y-82.296
X192.532Y-84.836
X192.532Y-87.376
X192.532Y-89.916
X192.532Y-92.456
X192.532Y-94.996
X192.532Y-97.536
X192.532Y-100.076
X192.532Y-102.616
X192.532Y-105.156
X195.072Y-56.896
X195.072Y-59.436
X195.072Y-61.976
X195.072Y-64.516
X195.072Y-67.056
X195.072Y-69.596
X195.072Y-72.136
X195.072Y-74.676
X195.072Y-77.216
X195.072Y-79.756
X195.072Y-82.296
X195.072Y-84.836
X195.072Y-87.376
X195.072Y-89.916
X195.072Y-92.456
X195.072Y-94.996
X195.072Y-97.536
X195.072Y-100.076
X195.072Y-102.616
X195.072Y-105.156
T4
X169.118Y-54.144
X169.118Y-56.684
X169.118Y-59.224
X169.118Y-61.764
X169.118Y-65.818
X169.118Y-68.358
X169.118Y-70.898
X169.118Y-73.438
X169.118Y-77.491
X169.118Y-80.031
X169.118Y-82.571
X169.118Y-85.111
X169.118Y-89.165
X169.118Y-91.705
X169.118Y-94.245
X169.118Y-96.785
X169.118Y-100.838
X169.118Y-103.378
X169.118Y-105.918
X169.118Y-108.458
X169.118Y-112.522
X169.118Y-115.062
X169.118Y-117.602
X169.118Y-120.142
X177.5Y-54.144
X177.5Y-56.684
X177.5Y-59.224
X177.5Y-61.764
X177.5Y-65.82
X177.5Y-68.36
X177.5Y-70.9
X177.5Y-73.44
X177.5Y-77.495
X177.5Y-80.035
X177.5Y-82.575
X177.5Y-85.115
X177.5Y-89.171
X177.5Y-91.711
X177.5Y-94.251
X177.5Y-96.791
X177.5Y-100.846
X177.5Y-103.386
X177.5Y-105.926
X177.5Y-108.466
X177.5Y-112.522
X177.5Y-115.062
X177.5Y-117.602
X177.5Y-120.142
T0
M30
