<?xml version="1.0" encoding="UTF-8" standalone="no"?>
<!-- Created with Inkscape (http://www.inkscape.org/) -->

<svg
   width="164.58365mm"
   height="40.619511mm"
   viewBox="0 0 164.58365 40.619511"
   version="1.1"
   id="svg5"
   xml:space="preserve"
   inkscape:version="1.2.2 (b0a8486541, 2022-12-01)"
   sodipodi:docname="mission shitshow.svg"
   xmlns:inkscape="http://www.inkscape.org/namespaces/inkscape"
   xmlns:sodipodi="http://sodipodi.sourceforge.net/DTD/sodipodi-0.dtd"
   xmlns="http://www.w3.org/2000/svg"
   xmlns:svg="http://www.w3.org/2000/svg"><sodipodi:namedview
     id="namedview7"
     pagecolor="#505050"
     bordercolor="#ffffff"
     borderopacity="1"
     inkscape:showpageshadow="0"
     inkscape:pageopacity="0"
     inkscape:pagecheckerboard="1"
     inkscape:deskcolor="#505050"
     inkscape:document-units="mm"
     showgrid="false"
     inkscape:current-layer="layer1" /><defs
     id="defs2" /><g
     inkscape:label="Layer 1"
     inkscape:groupmode="layer"
     id="layer1"
     transform="translate(-21.584017,-102.38316)"><path
       style="fill:#000000;stroke-width:0.147723"
       d="m 29.120099,142.92747 -1.107921,0.0543 -1.255644,-0.0973 -1.255644,-0.0973 -0.886337,-0.18657 -0.886337,-0.18657 -1.03406,-0.3693 -1.034059,-0.36931 -0.03804,-0.033 -0.03804,-0.033 0.907471,-1.90698 0.90747,-1.90698 0.02506,-0.0328 0.02506,-0.0328 1.126049,0.59005 1.126049,0.59005 1.142204,0.29212 1.142203,0.29213 h 1.424915 1.424914 l 0.892747,-0.30148 0.892747,-0.30149 0.51683,-0.47406 0.51683,-0.47406 0.244058,-0.47276 0.244058,-0.47277 v -0.43737 -0.43737 l -0.426832,-0.35916 -0.426831,-0.35915 -1.825942,-0.47411 -1.825942,-0.47411 -0.762982,-0.29985 -0.762983,-0.29984 -0.529391,-0.52939 -0.529391,-0.5294 -0.1471,-0.52954 -0.1471,-0.52954 -8.27e-4,-0.38699 -8.28e-4,-0.387 0.29074,-0.91009 0.290739,-0.91009 0.552376,-0.99262 0.552377,-0.99262 1.130297,-1.13141 1.130298,-1.13142 1.387281,-0.66573 1.387281,-0.66572 1.107921,-0.24764 1.107922,-0.24763 1.846535,0.002 1.846535,0.002 1.03406,0.16149 1.03406,0.16149 1.07099,0.24609 1.070991,0.24608 v 0.0985 0.0985 l -0.888216,1.87082 -0.888216,1.87081 -0.584039,-0.29795 -0.584039,-0.29796 -1.339566,-0.38425 -1.339567,-0.38425 -1.730655,0.0558 -1.730656,0.0558 -0.819777,0.38102 -0.819777,0.38102 -0.48128,0.60767 -0.48128,0.60766 -0.08201,0.50537 -0.08201,0.50536 0.292309,0.29231 0.292308,0.29231 0.647589,0.22958 0.647589,0.22959 1.694288,0.39501 1.694289,0.395 0.743137,0.37221 0.743139,0.37222 0.274234,0.24167 0.274235,0.24168 0.260244,0.51703 0.260245,0.51703 -0.03224,0.51703 -0.03224,0.51703 -0.116372,0.59089 -0.11637,0.59089 -0.512532,1.03406 -0.512533,1.03406 -0.603987,0.81247 -0.603985,0.81248 -0.451131,0.42788 -0.451131,0.42788 -0.748198,0.56635 -0.748199,0.56635 -1.079914,0.44532 -1.079914,0.44532 -1.126344,0.21296 -1.126337,0.21297 z m 69.577453,0 -1.107921,0.0543 -1.255644,-0.0973 -1.255644,-0.0973 -0.886337,-0.18657 -0.886337,-0.18657 -1.03406,-0.3693 -1.03406,-0.36931 -0.03804,-0.033 -0.03804,-0.033 0.90747,-1.90698 0.90747,-1.90698 0.02506,-0.0328 0.02505,-0.0328 1.12605,0.59005 1.126049,0.59005 1.142203,0.29212 1.142205,0.29213 h 1.424913 1.424911 l 0.89275,-0.30148 0.89275,-0.30149 0.51683,-0.47406 0.51683,-0.47406 0.24406,-0.47276 0.24405,-0.47277 v -0.43737 -0.43737 l -0.42683,-0.35916 -0.42683,-0.35915 -1.82594,-0.47411 -1.825943,-0.47411 -0.762982,-0.29985 -0.762983,-0.29984 -0.529391,-0.52939 -0.529392,-0.5294 -0.147099,-0.52954 -0.147101,-0.52954 -8.86e-4,-0.38699 -8.87e-4,-0.387 0.29074,-0.91009 0.290739,-0.91009 0.552377,-0.99262 0.552375,-0.99262 1.130299,-1.13141 1.130294,-1.13142 1.38728,-0.66573 1.38728,-0.66572 1.10793,-0.24764 1.10792,-0.24763 1.84653,0.002 1.84653,0.002 1.03406,0.16149 1.03406,0.16149 1.07099,0.24609 1.07099,0.24608 v 0.0985 0.0985 l -0.88821,1.87082 -0.88822,1.87081 -0.58404,-0.29795 -0.58404,-0.29796 -1.33956,-0.38425 -1.33957,-0.38425 -1.73065,0.0558 -1.73066,0.0558 -0.81977,0.38102 -0.81978,0.38102 -0.48128,0.60767 -0.48128,0.60766 -0.082,0.50537 -0.082,0.50536 0.29231,0.29231 0.29231,0.29231 0.64759,0.22958 0.64759,0.22959 1.69428,0.39501 1.69429,0.395 0.74314,0.37221 0.74314,0.37222 0.27423,0.24167 0.27424,0.24168 0.26024,0.51703 0.26025,0.51703 -0.0323,0.51703 -0.0322,0.51703 -0.11637,0.59089 -0.11637,0.59089 -0.51253,1.03406 -0.51253,1.03406 -0.60399,0.81247 -0.60398,0.81248 -0.45114,0.42788 -0.45113,0.42788 -0.74819,0.56635 -0.7482,0.56635 -1.07992,0.44532 -1.07991,0.44532 -1.12635,0.21296 -1.126339,0.21296 -1.107921,0.0543 z m 43.282788,0.009 -1.10792,0.0662 -1.11313,-0.1196 -1.11313,-0.11961 -0.84897,-0.31764 -0.84897,-0.31764 -0.62305,-0.4677 -0.62305,-0.46769 -0.49731,-0.9902 -0.49731,-0.99021 -0.003,-1.00405 -0.003,-1.00405 0.0985,-0.5909 0.0985,-0.59089 0.46106,-1.3295 0.46106,-1.32951 0.21933,-0.44317 0.21932,-0.44316 0.71092,-1.18179 0.71092,-1.18178 0.94915,-1.18178 0.94915,-1.18178 0.86766,-0.75119 0.86766,-0.75118 0.88634,-0.59859 0.88633,-0.59859 1.06533,-0.5327 1.06533,-0.5327 1.27217,-0.36866 1.27216,-0.36866 1.42944,-0.13328 1.42944,-0.13328 1.25564,0.11813 1.25565,0.11813 0.73861,0.25171 0.73861,0.25171 0.27159,0.1433 0.27158,0.1433 0.58852,0.53169 0.58852,0.53169 0.26765,0.52711 0.26765,0.5271 0.17631,0.85427 0.1763,0.85427 -0.0882,0.69682 -0.0882,0.69682 -0.083,0.44317 -0.083,0.44317 -0.37527,1.10792 -0.37527,1.10792 -0.74217,1.40337 -0.74217,1.40337 -0.45858,0.65822 -0.45857,0.65823 -0.29545,0.37515 -0.29544,0.37516 -1.18179,1.19925 -1.18178,1.19924 -1.25705,0.81877 -1.25705,0.81878 -0.81224,0.35921 -0.81224,0.35921 -0.95903,0.30991 -0.95903,0.30992 -0.81247,0.14652 -0.81248,0.14651 -1.10792,0.0662 z m 0.85407,-3.44259 1.07565,1.1e-4 0.90235,-0.30398 0.90235,-0.30398 0.86321,-0.58619 0.86321,-0.5862 0.75054,-0.78467 0.75054,-0.78466 0.56855,-0.81946 0.56856,-0.81947 0.73624,-1.605 0.73624,-1.605 0.18873,-0.81248 0.18874,-0.81248 0.0212,-0.51703 0.0212,-0.51703 -0.21,-0.63197 -0.21,-0.63198 -0.52758,-0.40208 -0.52759,-0.40208 h -1.57021 -1.57021 l -1.09988,0.54523 -1.09987,0.54523 -0.85798,0.7668 -0.85798,0.76681 -0.82948,1.12162 -0.82948,1.12162 -0.63878,1.36694 -0.63877,1.36694 -0.22852,0.63109 -0.22852,0.63108 -0.0872,1.12637 -0.0872,1.12637 0.34095,0.60663 0.34095,0.60664 0.60216,0.29807 0.60216,0.29807 z m -99.675858,3.0691 -2.40283,0.0407 0.07902,-0.1884 0.07902,-0.1884 4.451785,-9.38039 4.451784,-9.3804 0.114044,-0.11468 0.114045,-0.11467 2.302757,0.0408 2.302756,0.0408 -1.403665,2.95446 -1.403664,2.95446 -0.34827,0.77554 -0.34827,0.77555 h 3.800402 3.800402 l 1.768006,-3.7642 1.768006,-3.7642 2.392189,-0.003 2.39219,-0.003 -0.281572,0.62783 -0.281571,0.62782 -4.274043,9.01109 -4.274044,9.01109 -2.379051,0.0406 -2.379052,0.0406 v -0.0684 -0.0684 l 1.768964,-3.72189 1.768965,-3.72189 0.08832,-0.27828 0.08833,-0.27828 -3.79146,0.0394 -3.79146,0.0395 -1.884597,3.98852 -1.884599,3.98851 -2.40283,0.0407 z m 22.304709,0 -2.401392,0.0407 0.07902,-0.1884 0.07902,-0.1884 4.451786,-9.38039 4.451784,-9.3804 0.114043,-0.11468 0.114045,-0.11467 2.303069,0.0408 2.303066,0.0408 -4.546521,9.60199 -4.54652,9.60198 z m 14.045828,-8e-5 -2.37907,0.0406 v -0.0526 -0.0525 l 3.672232,-7.74348 3.67223,-7.74349 -3.207425,-0.0739 -3.207426,-0.0739 0.854831,-1.8096 0.854832,-1.80961 h 8.799377 8.799377 v 0.0692 0.0692 l -0.834398,1.77735 -0.834398,1.77735 h -3.207779 -3.207779 l -3.697767,7.79238 -3.697768,7.79238 z m 33.226921,8e-5 -2.40283,0.0407 0.079,-0.1884 0.079,-0.1884 4.45179,-9.38039 4.45178,-9.3804 0.11404,-0.11468 0.11405,-0.11467 2.30276,0.0408 2.30275,0.0408 -1.40366,2.95446 -1.40367,2.95446 -0.34827,0.77554 -0.34827,0.77555 h 3.8004 3.80041 l 1.768,-3.7642 1.76801,-3.7642 2.39219,-0.003 2.39219,-0.003 -0.28157,0.62783 -0.28158,0.62782 -4.27404,9.01109 -4.27404,9.01109 -2.37905,0.0406 -2.37906,0.0406 v -0.0684 -0.0684 l 1.76897,-3.72189 1.76896,-3.72189 0.0883,-0.27828 0.0883,-0.27828 -3.79146,0.0394 -3.79146,0.0395 -1.8846,3.98852 -1.88459,3.98851 -2.40283,0.0407 z m 49.62629,0.0332 h -2.21205 l 0.004,-0.33238 0.004,-0.33237 0.1548,-0.66476 0.1548,-0.66475 0.35656,-1.99426 0.35656,-1.99426 0.0731,-0.3693 0.0731,-0.36931 0.72394,-3.69307 0.72393,-3.69307 0.49761,-2.62196 0.4976,-2.62196 1.86743,-1.2e-4 1.86742,-1.2e-4 -0.26912,1.21871 -0.26914,1.21872 -0.0958,0.66475 -0.0958,0.66475 -0.20372,0.88634 -0.20373,0.88634 -0.37366,1.99425 -0.37367,1.99426 -0.30771,1.62495 -0.30771,1.62495 -0.12083,0.63465 -0.12083,0.63465 0.15262,-0.0509 0.15261,-0.0509 0.64154,-1.10081 0.64153,-1.10081 0.53796,-0.96019 0.53796,-0.9602 0.92463,-1.55109 0.92463,-1.55109 0.31351,-0.59089 0.3135,-0.59089 0.18311,-0.29185 0.18311,-0.29185 0.45054,-0.74221 0.45055,-0.74221 0.56503,-1.03406 0.56502,-1.03406 0.44013,-0.70169 0.44012,-0.70168 h 1.84694 1.84694 l -0.0871,0.22691 -0.0871,0.22691 -0.30655,1.80428 -0.30654,1.80428 -0.13592,0.59089 -0.13592,0.59089 -0.81577,4.16302 -0.81577,4.16303 v 0.23173 0.23173 l 0.11079,-0.001 0.11079,-10e-4 1.32951,-2.31369 1.32951,-2.3137 0.66475,-1.1522 0.66475,-1.1522 1.53248,-2.62627 1.53247,-2.62626 0.52621,-0.92326 0.52619,-0.92327 h 1.82777 1.82776 l -0.0633,0.11079 -0.0633,0.11079 -1.62701,2.80674 -1.627,2.80673 -1.59241,2.73287 -1.59239,2.73288 -0.51105,0.88633 -0.51105,0.88634 -0.29227,0.51703 -0.29228,0.51703 -0.77371,1.3295 -0.77372,1.32951 -0.73245,1.25564 -0.73247,1.25565 -2.24586,0.0408 -2.24586,0.0408 v -0.14585 -0.14585 l 0.28069,-1.22443 0.2807,-1.22443 0.25386,-1.55109 0.25386,-1.55109 0.044,-0.22159 0.044,-0.22158 0.31431,-1.62495 0.31431,-1.62495 0.29011,-1.32951 0.29013,-1.3295 0.22014,-1.25565 0.22013,-1.25564 v -0.055 -0.055 l -0.21493,0.17838 -0.21494,0.17839 -0.53942,0.98455 -0.53943,0.98456 -1.03853,1.77267 -1.03854,1.77268 -0.93387,1.55867 -0.93388,1.55866 -0.11689,0.28787 -0.11689,0.28787 -1.27355,2.14198 -1.27355,2.14198 -0.2444,0.4801 -0.24441,0.4801 h -2.21205 z m -77.255248,-19.73681 -0.664753,0.0474 -1.477228,-0.11716 -1.477228,-0.11715 -1.496707,-0.29344 -1.496708,-0.29345 -1.014581,-0.30641 -1.014581,-0.30641 -1.072009,-2.06237 -1.07201,-2.06237 0.998148,0.38111 0.998149,0.3811 1.450553,0.4226 1.450554,0.42259 0.943506,0.16431 0.943507,0.1643 1.473262,-0.051 1.473264,-0.051 0.416639,-0.31005 0.416639,-0.31005 0.04642,-0.46724 0.04642,-0.46725 -0.336231,-0.67324 -0.336234,-0.67324 -0.582836,-0.42862 -0.582836,-0.42862 -0.900025,-0.29819 -0.900026,-0.29818 -2.215843,-0.44631 -2.215842,-0.44631 -0.960199,-0.31464 -0.960198,-0.31464 -1.03406,-0.51377 -1.03406,-0.51376 -0.744238,-0.6047 -0.744237,-0.6047 -0.598378,-0.74423 -0.59838,-0.74424 -0.483076,-0.85858 -0.483077,-0.85858 -0.251848,-0.69251 -0.251847,-0.69251 -0.03758,-0.83556 -0.03758,-0.83555 0.308432,-0.60458 0.308432,-0.60458 0.572244,-0.37869 0.572244,-0.37869 0.791275,-0.21795 0.791272,-0.21794 1.994259,-0.002 1.994258,-0.002 1.107921,0.15919 1.107921,0.1592 1.289152,0.23544 1.289154,0.23543 0.213421,0.16651 0.213422,0.16651 0.998447,1.90951 0.998446,1.9095 -0.246822,-0.0947 -0.246821,-0.0947 -1.22014,-0.36736 -1.220139,-0.36736 -1.311884,-0.24127 -1.311882,-0.24128 -1.59534,0.0495 -1.595339,0.0495 -0.416541,0.31006 -0.416541,0.31005 -0.04683,0.39255 -0.04683,0.39256 0.314945,0.63061 0.314947,0.63062 0.491543,0.33681 0.491543,0.33681 0.737849,0.28037 0.737849,0.28036 2.46508,0.45598 2.465081,0.45598 1.207712,0.38064 1.207713,0.38065 0.738614,0.3679 0.738614,0.3679 0.886337,0.67019 0.886337,0.67019 0.614121,0.75429 0.61412,0.7543 0.612043,1.13487 0.612043,1.13487 0.148373,0.49008 0.148373,0.49008 0.07046,0.29544 0.07046,0.29545 0.0058,0.76554 0.0058,0.76554 -0.176325,0.34238 -0.176323,0.34238 -0.378488,0.40581 -0.378487,0.40582 -0.788296,0.29493 -0.788296,0.29494 -0.846356,0.0801 -0.846356,0.0801 -0.664753,0.0474 z m 23.487928,0 -0.66475,0.0474 -1.47723,-0.11716 -1.47723,-0.11715 -1.49671,-0.29344 -1.4967,-0.29345 -1.01458,-0.30641 -1.014584,-0.30641 -1.07201,-2.06237 -1.072009,-2.06237 0.998148,0.38111 0.998148,0.3811 1.450557,0.4226 1.45055,0.42259 0.94351,0.16431 0.9435,0.1643 1.47327,-0.051 1.47326,-0.051 0.41664,-0.31005 0.41664,-0.31005 0.0464,-0.46724 0.0464,-0.46725 -0.33623,-0.67324 -0.33624,-0.67324 -0.58283,-0.42862 -0.58284,-0.42862 -0.90002,-0.29819 -0.90003,-0.29818 -2.21584,-0.44631 -2.21585,-0.44631 -0.960194,-0.31464 -0.960198,-0.31464 -1.03406,-0.51377 -1.03406,-0.51376 -0.744238,-0.6047 -0.744238,-0.6047 -0.598377,-0.74423 -0.59838,-0.74424 -0.483076,-0.85858 -0.483077,-0.85858 -0.251848,-0.69251 -0.251847,-0.69251 -0.03758,-0.83556 -0.03758,-0.83555 0.308432,-0.60458 0.308432,-0.60458 0.572244,-0.37869 0.572244,-0.37869 0.791274,-0.21795 0.791273,-0.21794 1.994259,-0.002 1.994258,-0.002 1.107917,0.15919 1.10792,0.1592 1.28916,0.23544 1.28915,0.23543 0.21342,0.16651 0.21342,0.16651 0.99845,1.90951 0.99845,1.9095 -0.24683,-0.0947 -0.24682,-0.0947 -1.22014,-0.36736 -1.22014,-0.36736 -1.31188,-0.24127 -1.31188,-0.24128 -1.595341,0.0495 -1.595339,0.0495 -0.416541,0.31006 -0.416542,0.31005 -0.04683,0.39255 -0.04683,0.39256 0.314945,0.63061 0.314946,0.63062 0.491544,0.33681 0.491543,0.33681 0.737849,0.28037 0.737846,0.28036 2.46508,0.45598 2.46508,0.45598 1.20772,0.38064 1.20771,0.38065 0.73862,0.3679 0.73861,0.3679 0.88634,0.67019 0.88633,0.67019 0.61412,0.75429 0.61413,0.7543 0.61204,1.13487 0.61204,1.13487 0.14837,0.49008 0.14838,0.49008 0.0705,0.29544 0.0705,0.29545 0.006,0.76554 0.006,0.76554 -0.17633,0.34238 -0.17632,0.34238 -0.37849,0.40581 -0.37848,0.40582 -0.7883,0.29493 -0.7883,0.29494 -0.84635,0.0801 -0.84636,0.0801 -0.66475,0.0474 z m 38.77725,0.0623 -0.14773,-0.0223 -0.59089,-0.0476 -0.59089,-0.0476 -1.09874,-0.16439 -1.09873,-0.16439 -1.09378,-0.35704 -1.09377,-0.35705 -1.20512,-0.60068 -1.20511,-0.60067 -1.15801,-0.83296 -1.15801,-0.83296 -1.28054,-1.33712 -1.28055,-1.33713 -0.76371,-1.14677 -0.7637,-1.14676 -0.75492,-1.46966 -0.75491,-1.46967 -0.28772,-0.90063 -0.28772,-0.90063 -0.16389,-0.94117 -0.1639,-0.94118 0.085,-0.60779 0.085,-0.6078 0.15111,-0.56118 0.15111,-0.56117 0.32666,-0.42552 0.32667,-0.42553 0.37452,-0.34135 0.37452,-0.34135 0.54945,-0.28717 0.54946,-0.28718 0.85391,-0.22805 0.85391,-0.22806 1.77267,-0.009 1.77268,-0.009 0.9602,0.16907 0.9602,0.16907 1.18178,0.38003 1.18178,0.38004 1.25564,0.64661 1.25565,0.64661 1.25564,0.94466 1.25565,0.94466 0.96837,1.02205 0.96838,1.02206 0.67613,0.95311 0.67613,0.9531 0.63001,1.03406 0.63002,1.03406 0.47551,1.18178 0.4755,1.18178 0.25173,0.87089 0.25173,0.87088 0.0387,0.90179 0.0387,0.90179 -0.17377,0.66475 -0.17378,0.66476 -0.23964,0.46318 -0.23965,0.46319 -0.6849,0.60288 -0.68491,0.60288 -0.80939,0.30283 -0.80939,0.30283 -1.35432,0.1427 -1.35432,0.1427 -0.14772,-0.0223 z m -1.78239,-3.67556 1.17208,0.01 0.60382,-0.2923 0.60383,-0.29231 0.2619,-0.44336 0.2619,-0.44336 0.0843,-0.71199 0.0843,-0.71199 -0.32083,-1.17442 -0.32082,-1.17443 -0.82545,-1.55109 -0.82545,-1.55109 -0.66605,-0.88633 -0.66606,-0.88634 -0.87364,-0.82419 -0.87365,-0.82419 -0.80915,-0.49039 -0.80915,-0.4904 -0.82884,-0.27343 -0.82885,-0.27344 h -1.11221 -1.11221 l -0.6006,0.29759 -0.6006,0.29759 -0.26979,0.37297 -0.26978,0.37296 -0.0815,0.78938 -0.0815,0.78938 0.18217,0.79284 0.18218,0.79283 0.73022,1.55109 0.73023,1.55109 0.39402,0.5909 0.39401,0.59089 0.70496,0.90506 0.70495,0.90506 0.9989,0.81245 0.9989,0.81244 0.66475,0.33802 0.66476,0.33802 0.59089,0.18736 0.59089,0.18737 1.17207,0.01 z m 21.21042,3.70295 h -2.81183 l -0.93017,-1.44029 -0.93016,-1.4403 -0.50275,-0.81248 -0.50276,-0.81247 -0.94894,-1.47723 -0.94895,-1.47723 -0.33056,-0.51703 -0.33056,-0.51703 -0.55823,-0.88634 -0.55822,-0.88633 -0.61764,-0.9602 -0.61764,-0.9602 -0.87446,-1.38063 -0.87447,-1.38063 -0.96624,-1.49996 -0.96624,-1.49997 -0.54792,-0.84713 -0.54792,-0.84714 v -0.0761 -0.0761 h 3.34755 3.34754 l 1.12107,0.84266 1.12107,0.84267 1.41611,1.11466 1.41611,1.11466 0.49043,0.36931 0.49043,0.3693 1.51523,1.18179 1.51522,1.18178 2.11204,1.62495 2.11204,1.62495 2.12586,1.66983 2.12585,1.66982 0.19657,-0.0449 0.19656,-0.0449 -3.30373,-5.1703 -3.30373,-5.17029 -0.95877,-1.55109 -0.95878,-1.55109 2.83113,-0.0403 2.8311,-0.0403 0.0407,0.11411 0.0406,0.11411 2.44239,3.84079 2.44241,3.8408 0.90148,1.40336 0.90147,1.40337 0.51344,0.81248 0.51344,0.81247 0.32595,0.51703 0.32594,0.51703 0.66623,1.03406 0.66625,1.03406 0.80572,1.25564 0.80572,1.25565 0.31889,0.51703 0.31889,0.51703 0.23143,0.40624 0.23143,0.40623 h -3.38833 -3.38835 l -4.70327,-3.64674 -4.70329,-3.64675 -3.2499,-2.51967 -3.2499,-2.51967 -0.66476,-0.50461 -0.66475,-0.5046 -0.0492,-0.12423 -0.0492,-0.12423 h -0.20928 -0.20927 v 0.15371 0.1537 l 0.27371,0.40026 0.27372,0.40025 0.67054,1.03406 0.67055,1.03406 0.77835,1.25565 0.77834,1.25564 0.76674,1.18179 0.76673,1.18178 0.57591,0.92732 0.57591,0.92732 0.93724,1.43625 0.93724,1.43624 0.21141,0.40624 0.2114,0.40623 z M 34.596974,122.50614 H 32.24124 l -2.216917,-4.3209 -2.216916,-4.32089 -2.883832,-5.61347 -2.883832,-5.61346 3.133941,-0.0423 3.13394,-0.0423 1.03406,1.08346 1.034059,1.08346 1.329506,1.40752 1.329505,1.40751 2.014192,2.1336 2.014194,2.1336 0.625477,0.69884 0.625478,0.69885 h 0.14304 0.14304 l -0.09241,-1.07099 -0.09241,-1.07099 -0.06149,-0.66476 -0.06149,-0.66475 -0.08449,-1.03406 -0.08449,-1.03406 -0.06324,-0.66475 -0.06323,-0.66475 -0.08327,-1.03406 -0.08327,-1.03406 -0.08322,-0.85232 -0.08322,-0.85233 3.202368,0.0399 3.202369,0.0399 5.082147,9.88965 5.082145,9.88966 v 0.0447 0.0447 h -2.330132 -2.330131 l -2.064623,-4.02124 -2.064622,-4.02124 -1.62735,-3.18025 -1.627349,-3.18025 h -0.145325 -0.145324 l 0.02102,0.0739 0.02102,0.0739 0.104816,1.47437 0.104819,1.47438 0.04227,0.22444 0.04227,0.22444 0.106959,1.55109 0.106958,1.55109 0.04134,0.22158 0.04134,0.22159 0.104496,1.25564 0.104498,1.25564 0.04112,0.4801 0.04112,0.4801 h -1.516733 -1.516742 l -1.919964,-2.03119 -1.919965,-2.03119 -0.47709,-0.51703 -0.477092,-0.51703 -1.275357,-1.337 -1.275358,-1.33701 -1.390617,-1.5071 -1.390618,-1.50709 -0.06452,0.0645 -0.06452,0.0645 3.099612,6.02949 3.099613,6.02949 0.609946,1.21871 0.609945,1.21872 z m 31.086383,0 h -2.43557 l -0.537993,-1.071 -0.537995,-1.07099 -3.876299,-7.53386 -3.8763,-7.53386 -0.685483,-1.36644 -0.685484,-1.36644 2.475839,0.005 2.475841,0.005 5.059507,9.87697 5.059506,9.87698 v 0.0896 0.0896 h -2.435569 z m 61.009533,0 h -2.43557 l -0.538,-1.071 -0.53799,-1.07099 -3.8763,-7.53386 -3.8763,-7.53386 -0.68548,-1.36644 -0.68549,-1.36644 2.47584,0.005 2.47584,0.005 5.05951,9.87697 5.05951,9.87698 v 0.0896 0.0896 h -2.43557 z"
       id="path187" /></g></svg>
