999
"DXF R12 Output" (www.mydxf.blogspot.com)
 0 
SECTION
 2 
HEADER
 9 
$ACADVER
 1 
AC1009
 9 
$EXTMIN
 10 
 0 
 20 
 0 
 9 
$EXTMAX
 10 
 8.5 
 20 
 11 
 0 
ENDSEC
 0 
SECTION
 2 
ENTITIES
0
LINE
8
Layer 1
10
16.959200
20
42.763100
11
16.697900
21
42.763100
0
LINE
8
Layer 1
10
16.697900
20
42.763100
11
16.616812
21
42.788190
0
LINE
8
Layer 1
10
16.616812
20
42.788190
11
16.592894
21
42.869278
0
LINE
8
Layer 1
10
16.592894
20
42.869278
11
16.592900
21
43.512100
0
LINE
8
Layer 1
10
16.592900
20
43.512100
11
16.617403
21
43.593188
0
LINE
8
Layer 1
10
16.617403
20
43.593188
11
16.697907
21
43.618277
0
LINE
8
Layer 1
10
16.697907
20
43.618277
11
16.975000
21
43.618300
0
LINE
8
Layer 1
10
16.975000
20
43.618300
11
17.081173
21
43.610708
0
LINE
8
Layer 1
10
17.081173
20
43.610708
11
17.161678
21
43.581538
0
LINE
8
Layer 1
10
17.161678
20
43.581538
11
17.215348
21
43.535454
0
LINE
8
Layer 1
10
17.215348
20
43.535454
11
17.250933
21
43.474197
0
LINE
8
Layer 1
10
17.250933
20
43.474197
11
17.263185
21
43.403611
0
LINE
8
Layer 1
10
17.263185
20
43.403611
11
17.134844
21
43.215767
0
LINE
8
Layer 1
10
17.134844
20
43.215767
11
17.303437
21
43.006920
0
LINE
8
Layer 1
10
17.303437
20
43.006920
11
17.266684
21
42.877414
0
LINE
8
Layer 1
10
17.266684
20
42.877414
11
17.167512
21
42.792824
0
LINE
8
Layer 1
10
17.167512
20
42.792824
11
17.077673
21
42.769484
0
LINE
8
Layer 1
10
17.077673
20
42.769484
11
16.959249
21
42.763077
0
LINE
8
Layer 1
10
16.959249
20
42.763077
11
16.959200
21
42.763100
0
LINE
8
Layer 1
10
16.946367
20
43.142875
11
16.766200
21
43.142900
0
LINE
8
Layer 1
10
16.766200
20
43.142900
11
16.766200
21
42.893200
0
LINE
8
Layer 1
10
16.766200
20
42.893200
11
16.952300
21
42.893200
0
LINE
8
Layer 1
10
16.952300
20
42.893200
11
17.127894
21
43.019791
0
LINE
8
Layer 1
10
17.127894
20
43.019791
11
17.082391
21
43.113712
0
LINE
8
Layer 1
10
17.082391
20
43.113712
11
16.946466
21
43.142882
0
LINE
8
Layer 1
10
16.946466
20
43.142882
11
16.946367
21
43.142875
0
LINE
8
Layer 1
10
16.766106
20
43.488227
11
16.766200
21
43.267100
0
LINE
8
Layer 1
10
16.766200
20
43.267100
11
16.924800
21
43.267100
0
LINE
8
Layer 1
10
16.924800
20
43.267100
11
17.024556
21
43.279348
0
LINE
8
Layer 1
10
17.024556
20
43.279348
11
17.078809
21
43.326017
0
LINE
8
Layer 1
10
17.078809
20
43.326017
11
17.093395
21
43.380855
0
LINE
8
Layer 1
10
17.093395
20
43.380855
11
17.047309
21
43.466608
0
LINE
8
Layer 1
10
17.047309
20
43.466608
11
16.906717
21
43.488198
0
LINE
8
Layer 1
10
16.906717
20
43.488198
11
16.766106
21
43.488227
0
LINE
8
Layer 1
10
18.103200
20
43.019800
11
18.062948
21
42.880374
0
LINE
8
Layer 1
10
18.062948
20
42.880374
11
17.946274
21
42.783535
0
LINE
8
Layer 1
10
17.946274
20
42.783535
11
17.763680
21
42.748534
0
LINE
8
Layer 1
10
17.763680
20
42.748534
11
17.554834
21
42.796371
0
LINE
8
Layer 1
10
17.554834
20
42.796371
11
17.459745
21
42.887957
0
LINE
8
Layer 1
10
17.459745
20
42.887957
11
17.423576
21
42.999965
0
LINE
8
Layer 1
10
17.423576
20
42.999965
11
17.445160
21
43.053635
0
LINE
8
Layer 1
10
17.445160
20
43.053635
11
17.501164
21
43.076383
0
LINE
8
Layer 1
10
17.501164
20
43.076383
11
17.547250
21
43.058885
0
LINE
8
Layer 1
10
17.547250
20
43.058885
11
17.579918
21
43.006964
0
LINE
8
Layer 1
10
17.579918
20
43.006964
11
17.614920
21
42.938712
0
LINE
8
Layer 1
10
17.614920
20
42.938712
11
17.668590
21
42.893209
0
LINE
8
Layer 1
10
17.668590
20
42.893209
11
17.759013
21
42.875711
0
LINE
8
Layer 1
10
17.759013
20
42.875711
11
17.883854
21
42.911297
0
LINE
8
Layer 1
10
17.883854
20
42.911297
11
17.932273
21
43.001134
0
LINE
8
Layer 1
10
17.932273
20
43.001134
11
17.906021
21
43.069970
0
LINE
8
Layer 1
10
17.906021
20
43.069970
11
17.838933
21
43.110808
0
LINE
8
Layer 1
10
17.838933
20
43.110808
11
17.729260
21
43.140560
0
LINE
8
Layer 1
10
17.729260
20
43.140560
11
17.574667
21
43.190730
0
LINE
8
Layer 1
10
17.574667
20
43.190730
11
17.476078
21
43.269484
0
LINE
8
Layer 1
10
17.476078
20
43.269484
11
17.439909
21
43.393741
0
LINE
8
Layer 1
10
17.439909
20
43.393741
11
17.478412
21
43.519166
0
LINE
8
Layer 1
10
17.478412
20
43.519166
11
17.589835
21
43.603170
0
LINE
8
Layer 1
10
17.589835
20
43.603170
11
17.761346
21
43.632921
0
LINE
8
Layer 1
10
17.761346
20
43.632921
11
17.897271
21
43.613081
0
LINE
8
Layer 1
10
17.897271
20
43.613081
11
17.992943
21
43.561164
0
LINE
8
Layer 1
10
17.992943
20
43.561164
11
18.048363
21
43.493492
0
LINE
8
Layer 1
10
18.048363
20
43.493492
11
18.065863
21
43.424071
0
LINE
8
Layer 1
10
18.065863
20
43.424071
11
18.043695
21
43.368067
0
LINE
8
Layer 1
10
18.043695
20
43.368067
11
17.989442
21
43.343570
0
LINE
8
Layer 1
10
17.989442
20
43.343570
11
17.943939
21
43.358161
0
LINE
8
Layer 1
10
17.943939
20
43.358161
11
17.910687
21
43.407164
0
LINE
8
Layer 1
10
17.910687
20
43.407164
11
17.854684
21
43.482418
0
LINE
8
Layer 1
10
17.854684
20
43.482418
11
17.749678
21
43.509822
0
LINE
8
Layer 1
10
17.749678
20
43.509822
11
17.641171
21
43.480070
0
LINE
8
Layer 1
10
17.641171
20
43.480070
11
17.600335
21
43.409484
0
LINE
8
Layer 1
10
17.600335
20
43.409484
11
17.614336
21
43.365146
0
LINE
8
Layer 1
10
17.614336
20
43.365146
11
17.652838
21
43.333063
0
LINE
8
Layer 1
10
17.652838
20
43.333063
11
17.702424
21
43.312066
0
LINE
8
Layer 1
10
17.702424
20
43.312066
11
17.785263
21
43.289884
0
LINE
8
Layer 1
10
17.785263
20
43.289884
11
17.915938
21
43.252548
0
LINE
8
Layer 1
10
17.915938
20
43.252548
11
18.015694
21
43.202962
0
LINE
8
Layer 1
10
18.015694
20
43.202962
11
18.079864
21
43.128876
0
LINE
8
Layer 1
10
18.079864
20
43.128876
11
18.103198
21
43.019786
0
LINE
8
Layer 1
10
18.103198
20
43.019786
11
18.103200
21
43.019800
0
LINE
8
Layer 1
10
18.626500
20
43.632900
11
18.854597
21
43.578648
0
LINE
8
Layer 1
10
18.854597
20
43.578648
11
18.999272
21
43.425221
0
LINE
8
Layer 1
10
18.999272
20
43.425221
11
19.048275
21
43.191874
0
LINE
8
Layer 1
10
19.048275
20
43.191874
11
19.021439
21
43.011613
0
LINE
8
Layer 1
10
19.021439
20
43.011613
11
18.940934
21
42.871021
0
LINE
8
Layer 1
10
18.940934
20
42.871021
11
18.809093
21
42.780016
0
LINE
8
Layer 1
10
18.809093
20
42.780016
11
18.629999
21
42.748515
0
LINE
8
Layer 1
10
18.629999
20
42.748515
11
18.450322
21
42.780600
0
LINE
8
Layer 1
10
18.450322
20
42.780600
11
18.317897
21
42.872187
0
LINE
8
Layer 1
10
18.317897
20
42.872187
11
18.237392
21
43.013947
0
LINE
8
Layer 1
10
18.237392
20
43.013947
11
18.210558
21
43.193039
0
LINE
8
Layer 1
10
18.210558
20
43.193039
11
18.238560
21
43.373884
0
LINE
8
Layer 1
10
18.238560
20
43.373884
11
18.320815
21
43.513892
0
LINE
8
Layer 1
10
18.320815
20
43.513892
11
18.451490
21
43.601982
0
LINE
8
Layer 1
10
18.451490
20
43.601982
11
18.626500
21
43.632899
0
LINE
8
Layer 1
10
18.626500
20
43.632899
11
18.626500
21
43.632900
0
LINE
8
Layer 1
10
18.872682
20
43.193040
11
18.842347
21
43.355800
0
LINE
8
Layer 1
10
18.842347
20
43.355800
11
18.755425
21
43.459641
0
LINE
8
Layer 1
10
18.755425
20
43.459641
11
18.626500
21
43.495226
0
LINE
8
Layer 1
10
18.626500
20
43.495226
11
18.530244
21
43.475386
0
LINE
8
Layer 1
10
18.530244
20
43.475386
11
18.454406
21
43.418798
0
LINE
8
Layer 1
10
18.454406
20
43.418798
11
18.404237
21
43.323127
0
LINE
8
Layer 1
10
18.404237
20
43.323127
11
18.386152
21
43.193034
0
LINE
8
Layer 1
10
18.386152
20
43.193034
11
18.404237
21
43.061194
0
LINE
8
Layer 1
10
18.404237
20
43.061194
11
18.456156
21
42.963187
0
LINE
8
Layer 1
10
18.456156
20
42.963187
11
18.533161
21
42.905436
0
LINE
8
Layer 1
10
18.533161
20
42.905436
11
18.628834
21
42.886189
0
LINE
8
Layer 1
10
18.628834
20
42.886189
11
18.750758
21
42.919440
0
LINE
8
Layer 1
10
18.750758
20
42.919440
11
18.839430
21
43.022115
0
LINE
8
Layer 1
10
18.839430
20
43.022115
11
18.872682
21
43.193040
0
LINE
8
Layer 1
10
18.872682
20
43.193040
11
18.872682
21
43.193040
0
LINE
8
Layer 1
10
19.303800
20
43.618300
11
19.529600
21
43.618300
0
LINE
8
Layer 1
10
19.529600
20
43.618300
11
19.680693
21
43.601959
0
LINE
8
Layer 1
10
19.680693
20
43.601959
11
19.795033
21
43.540706
0
LINE
8
Layer 1
10
19.795033
20
43.540706
11
19.928624
21
43.193017
0
LINE
8
Layer 1
10
19.928624
20
43.193017
11
19.915207
21
43.052425
0
LINE
8
Layer 1
10
19.915207
20
43.052425
11
19.873788
21
42.937501
0
LINE
8
Layer 1
10
19.873788
20
42.937501
11
19.802034
21
42.846495
0
LINE
8
Layer 1
10
19.802034
20
42.846495
11
19.726779
21
42.796909
0
LINE
8
Layer 1
10
19.726779
20
42.796909
11
19.638691
21
42.770662
0
LINE
8
Layer 1
10
19.638691
20
42.770662
11
19.533101
21
42.763071
0
LINE
8
Layer 1
10
19.533101
20
42.763071
11
19.307300
21
42.763100
0
LINE
8
Layer 1
10
19.307300
20
42.763100
11
19.236129
21
42.777098
0
LINE
8
Layer 1
10
19.236129
20
42.777098
11
19.204627
21
42.817352
0
LINE
8
Layer 1
10
19.204627
20
42.817352
11
19.197625
21
42.885023
0
LINE
8
Layer 1
10
19.197625
20
42.885023
11
19.197600
21
43.512100
0
LINE
8
Layer 1
10
19.197600
20
43.512100
11
19.222684
21
43.593188
0
LINE
8
Layer 1
10
19.222684
20
43.593188
11
19.303772
21
43.618277
0
LINE
8
Layer 1
10
19.303772
20
43.618277
11
19.303800
21
43.618300
0
LINE
8
Layer 1
10
19.370887
20
43.481208
11
19.370900
21
42.900800
0
LINE
8
Layer 1
10
19.370900
20
42.900800
11
19.502200
21
42.900800
0
LINE
8
Layer 1
10
19.502200
20
42.900800
11
19.569871
21
42.903058
0
LINE
8
Layer 1
10
19.569871
20
42.903058
11
19.620624
21
42.914714
0
LINE
8
Layer 1
10
19.620624
20
42.914714
11
19.666126
21
42.940960
0
LINE
8
Layer 1
10
19.666126
20
42.940960
11
19.753048
21
43.194141
0
LINE
8
Layer 1
10
19.753048
20
43.194141
11
19.714546
21
43.383735
0
LINE
8
Layer 1
10
19.714546
20
43.383735
11
19.620624
21
43.463658
0
LINE
8
Layer 1
10
19.620624
20
43.463658
11
19.485282
21
43.481155
0
LINE
8
Layer 1
10
19.485282
20
43.481155
11
19.370887
21
43.481208
 0 
ENDSEC
 0 
EOF