<?xml version="1.0" encoding="UTF-8" standalone="no"?>
<!-- Created with Inkscape (http://www.inkscape.org/) -->

<svg
   width="210mm"
   height="297mm"
   viewBox="0 0 210 297"
   version="1.1"
   id="svg5"
   xmlns="http://www.w3.org/2000/svg"
   xmlns:svg="http://www.w3.org/2000/svg">
  <defs
     id="defs2" />
  <g
     id="layer1">
    <g
       aria-label="BSOD"
       id="text297"
       style="font-weight:bold;font-size:4.23333px;line-height:100%;font-family:'Arial Rounded MT Bold';-inkscape-font-specification:'Arial Rounded MT Bold, Bold';letter-spacing:0px;word-spacing:0px;stroke-width:0.264583px"
       transform="matrix(3.3842597,0,0,3.3842597,-198.97337,-481.90299)">
      <path
         d="m 60.091876,145.47739 h -0.926041 q -0.200504,0 -0.28732,-0.0889 -0.08475,-0.0909 -0.08475,-0.28732 v -2.27789 q 0,-0.20051 0.08682,-0.28732 0.08888,-0.0889 0.285253,-0.0889 h 0.981852 q 0.217041,0 0.376204,0.0269 0.159163,0.0269 0.285254,0.10336 0.107487,0.0641 0.190169,0.16329 0.08268,0.0972 0.12609,0.21705 0.04341,0.11782 0.04341,0.25011 0,0.45475 -0.454752,0.66559 0.597379,0.19017 0.597379,0.74001 0,0.25425 -0.130224,0.45888 -0.130225,0.20258 -0.3514,0.29973 -0.138493,0.0579 -0.318326,0.0827 -0.179834,0.0227 -0.419613,0.0227 z m -0.04547,-1.34566 h -0.63872 v 0.8847 h 0.659391 q 0.622183,0 0.622183,-0.44855 0,-0.22944 -0.16123,-0.33279 -0.16123,-0.10336 -0.481624,-0.10336 z m -0.63872,-1.22369 v 0.78341 h 0.562239 q 0.229443,0 0.353467,-0.0434 0.12609,-0.0434 0.192236,-0.16536 0.05168,-0.0868 0.05168,-0.19431 0,-0.22944 -0.163297,-0.30385 -0.163298,-0.0765 -0.498161,-0.0765 z"
         id="path6663" />
      <path
         d="m 64.145372,144.56788 q 0,0.27492 -0.142626,0.49403 -0.14056,0.21911 -0.413412,0.34313 -0.272851,0.12402 -0.646988,0.12402 -0.448551,0 -0.740006,-0.1695 -0.206705,-0.12195 -0.33693,-0.32452 -0.128157,-0.20464 -0.128157,-0.39688 0,-0.11162 0.07648,-0.19017 0.07855,-0.0806 0.198437,-0.0806 0.09715,0 0.163297,0.062 0.06821,0.062 0.115756,0.18397 0.05788,0.14469 0.124023,0.24184 0.06821,0.0971 0.190169,0.16123 0.121956,0.062 0.320394,0.062 0.272851,0 0.442349,-0.12609 0.171566,-0.12815 0.171566,-0.31832 0,-0.1509 -0.09302,-0.24391 -0.09095,-0.0951 -0.237712,-0.1447 -0.144694,-0.0496 -0.388606,-0.10542 -0.326595,-0.0765 -0.54777,-0.17777 -0.219108,-0.10335 -0.349332,-0.27905 -0.128158,-0.17776 -0.128158,-0.44028 0,-0.25011 0.136426,-0.44442 0.136426,-0.1943 0.394807,-0.29765 0.258382,-0.10542 0.607715,-0.10542 0.279052,0 0.481624,0.0703 0.204638,0.0682 0.338997,0.18396 0.134358,0.11369 0.19637,0.23978 0.06201,0.12609 0.06201,0.24598 0,0.10956 -0.07855,0.19844 -0.07648,0.0868 -0.192236,0.0868 -0.10542,0 -0.161231,-0.0517 -0.05374,-0.0537 -0.117822,-0.17363 -0.08268,-0.17157 -0.198437,-0.26665 -0.115755,-0.0971 -0.37207,-0.0971 -0.237712,0 -0.384473,0.10542 -0.144694,0.10335 -0.144694,0.25011 0,0.0909 0.04961,0.1571 0.04961,0.0661 0.136425,0.11368 0.08682,0.0475 0.1757,0.0744 0.08888,0.0269 0.293522,0.0786 0.256315,0.0599 0.463021,0.13229 0.208772,0.0723 0.353466,0.1757 0.146761,0.10335 0.227376,0.26251 0.08268,0.1571 0.08268,0.38654 z"
         id="path6665" />
      <path
         d="m 65.999521,142.39541 q 0.471289,0 0.808219,0.19223 0.338997,0.19017 0.51263,0.54364 0.173633,0.3514 0.173633,0.82682 0,0.3514 -0.09509,0.63872 -0.09508,0.28732 -0.285254,0.49816 -0.190169,0.21084 -0.467154,0.32246 -0.276986,0.11162 -0.634586,0.11162 -0.355534,0 -0.636653,-0.11369 -0.28112,-0.11575 -0.469222,-0.32452 -0.188102,-0.20878 -0.285254,-0.5023 -0.09508,-0.29352 -0.09508,-0.63458 0,-0.34934 0.09922,-0.64079 0.101285,-0.29146 0.291454,-0.49609 0.190169,-0.20464 0.463021,-0.31213 0.272851,-0.10955 0.620116,-0.10955 z m 0.872298,1.55856 q 0,-0.3328 -0.107487,-0.57671 -0.107487,-0.24391 -0.307991,-0.36794 -0.198438,-0.12609 -0.45682,-0.12609 -0.183967,0 -0.341064,0.0703 -0.155029,0.0682 -0.268717,0.20051 -0.111621,0.13229 -0.177767,0.33899 -0.06408,0.20464 -0.06408,0.46096 0,0.25838 0.06408,0.46715 0.06615,0.20877 0.183968,0.34727 0.119889,0.13642 0.272852,0.20463 0.155029,0.0682 0.338997,0.0682 0.235644,0 0.432014,-0.11782 0.198438,-0.11783 0.314193,-0.36381 0.117822,-0.24598 0.117822,-0.60564 z"
         id="path6667" />
      <path
         d="m 68.399373,142.44708 h 0.79995 q 0.312126,0 0.535368,0.0579 0.223242,0.0579 0.405143,0.21704 0.473355,0.40514 0.473355,1.23197 0,0.27285 -0.04754,0.49816 -0.04754,0.22531 -0.146761,0.40721 -0.09922,0.17983 -0.254248,0.32246 -0.121956,0.10955 -0.26665,0.1757 -0.144694,0.0661 -0.312125,0.093 -0.165365,0.0269 -0.374137,0.0269 h -0.799951 q -0.167431,0 -0.25218,-0.0496 -0.08475,-0.0517 -0.111621,-0.14263 -0.02481,-0.093 -0.02481,-0.23978 v -2.22208 q 0,-0.19844 0.08888,-0.28732 0.08888,-0.0889 0.287321,-0.0889 z m 0.237711,0.48576 v 2.05672 h 0.465088 q 0.152962,0 0.239778,-0.008 0.08682,-0.008 0.179834,-0.0413 0.09302,-0.0331 0.16123,-0.093 0.307992,-0.26044 0.307992,-0.8971 0,-0.44855 -0.136426,-0.67179 -0.134359,-0.22324 -0.332796,-0.28319 -0.198437,-0.062 -0.479557,-0.062 z"
         id="path6669" />
    </g>
  </g>
</svg>
