<?xml version="1.0" encoding="UTF-8" standalone="no"?>
<!-- Created with Inkscape (http://www.inkscape.org/) -->

<svg
   xmlns:dc="http://purl.org/dc/elements/1.1/"
   xmlns:cc="http://creativecommons.org/ns#"
   xmlns:rdf="http://www.w3.org/1999/02/22-rdf-syntax-ns#"
   xmlns:svg="http://www.w3.org/2000/svg"
   xmlns="http://www.w3.org/2000/svg"
   xmlns:sodipodi="http://sodipodi.sourceforge.net/DTD/sodipodi-0.dtd"
   xmlns:inkscape="http://www.inkscape.org/namespaces/inkscape"
   version="1.1"
   id="svg2"
   width="480"
   height="360"
   viewBox="0 0 480 360"
   sodipodi:docname="odio fiat.svg"
   inkscape:version="0.92.5 (2060ec1f9f, 2020-04-08)"
   inkscape:export-filename="/home/giacomo/share/Projects/Active/Lemons/odio fiat/odio fiat.png"
   inkscape:export-xdpi="600"
   inkscape:export-ydpi="600">
  <metadata
     id="metadata8">
    <rdf:RDF>
      <cc:Work
         rdf:about="">
        <dc:format>image/svg+xml</dc:format>
        <dc:type
           rdf:resource="http://purl.org/dc/dcmitype/StillImage" />
      </cc:Work>
    </rdf:RDF>
  </metadata>
  <defs
     id="defs6" />
  <sodipodi:namedview
     pagecolor="#ffffff"
     bordercolor="#666666"
     borderopacity="1"
     objecttolerance="10"
     gridtolerance="10"
     guidetolerance="10"
     inkscape:pageopacity="0"
     inkscape:pageshadow="2"
     inkscape:window-width="640"
     inkscape:window-height="480"
     id="namedview4"
     showgrid="false"
     inkscape:current-layer="g18"
     showguides="true"
     inkscape:guide-bbox="true" />
  <g
     id="g18"
     transform="translate(3.9205921,5.0407615)">
    <g
       id="g52"
       transform="translate(-3.6138064,-5.0408908)">
      <path
         sodipodi:nodetypes="cscscsscscscscsccsc"
         inkscape:connector-curvature="0"
         id="path22"
         d="m 67.359211,275.30858 c -2.044167,-0.40015 -1.46469,-2.45108 12.839157,-45.44133 8.23897,-24.76225 14.677651,-45.32489 14.30818,-45.69476 -0.369472,-0.36987 -21.605103,-0.79803 -47.190291,-0.95147 L 0.79773288,182.94203 1.459064,180.22102 C 1.8227962,178.72446 8.6984402,156.4625 16.738273,130.75 L 31.356151,84 190.24491,84.411353 c 104.8142,0.271357 222.83567,-0.01239 223.54527,0.437808 0.99869,0.633609 -0.61768,6.786597 -7.15448,27.234689 -14.86664,46.50505 -19.85791,63.02728 -19.22989,63.6553 0.33716,0.33715 21.095,0.81898 46.12853,1.07073 41.31864,0.41551 45.47027,0.60674 45.02499,2.07392 -0.26978,0.88891 -5.2777,17.1412 -11.12872,36.1162 -5.85102,18.975 -12.46904,40.4625 -14.7067,47.75 L 448.65542,276 259.07771,275.86382 C 154.80997,275.78892 68.536645,275.53906 67.359211,275.30858 Z"
         style="fill:#fdb910" />
      <path
         sodipodi:nodetypes="ccsssssscccsscscscsscscscccccsccccsssccccccccscccccscccccccccscccccssssscscsccsccccccccccccccssscccccssccccccsssccccccccccsccccscccccscccsccccsccsccccsccccccccccccccccccccccccccccccccccccccc"
         inkscape:connector-curvature="0"
         id="path20"
         transform="translate(-3.9205921,-5.0407615)"
         d="m 35.429688,89.541016 -1.322266,4 C 30.761498,103.66414 4.9199219,186.70317 4.9199219,187.33203 c 0,0.38997 21.1500001,0.70899 47.0000001,0.70899 34.952702,0 47,0.29668 47,1.1582 0,0.63716 -6.525,21.06381 -14.5,45.39258 -7.975,24.32877 -14.5,44.48514 -14.5,44.79297 0,0.30783 2.8125,0.72074 6.25,0.91601 3.4375,0.19527 89.399278,0.44091 191.025388,0.54688 l 184.77539,0.19336 1.04883,-2.75 c 2.3735,-6.22134 28.90039,-93.02873 28.90039,-94.57422 0,-1.54335 -3.56699,-1.67578 -45.03125,-1.67578 -37.53587,0 -45.11954,-0.23123 -45.56445,-1.39063 -0.45856,-1.195 9.05596,-32.6134 23.49414,-77.57617 2.20166,-6.856298 3.76431,-12.706298 3.4707,-13.000001 -0.2936,-0.293702 -86.55797,-0.533203 -191.69726,-0.533203 z M 388.5957,96.173828 c 11.02304,0.01882 19.27544,0.152389 19.54688,0.423828 0.3058,0.305799 -0.92648,5.368294 -2.74024,11.250004 -1.81375,5.8817 -7.41242,23.96836 -12.4414,40.19336 -5.02898,16.225 -9.3767,30.2875 -9.66016,31.25 -0.4805,1.6315 -3.42346,1.75 -43.4668,1.75 h -42.95117 l 0.56836,-2.25 c 0.31239,-1.2375 6.09945,-20.025 12.86133,-41.75 l 12.29492,-39.500004 11.90625,-0.615235 c 9.64281,-0.497588 35.71031,-0.783321 54.08203,-0.751953 z m -167.76367,0.845703 -1.31445,4.259769 c -0.72293,2.34332 -6.63553,21.24922 -13.13867,42.01172 l -11.82422,37.75 h -42.81641 c -23.54938,0 -42.81836,-0.36781 -42.81836,-0.81641 0,-0.44859 3.86749,-13.16109 8.59375,-28.25 4.72625,-15.0889 10.49304,-33.50859 12.81445,-40.93359 l 4.22071,-13.500004 43.14062,-0.261719 z m 93.93945,0 -2.25,7.259769 c -1.23838,3.9933 -7.12294,22.89922 -13.07617,42.01172 l -10.82422,34.75 h -42.84961 c -23.56761,0 -42.84489,-0.3375 -42.83789,-0.75 0.007,-0.4125 5.74614,-19.2 12.75391,-41.75 l 12.74219,-41.000004 43.17187,-0.261719 z m -207.66796,0.15625 c 17.69251,-0.0028 18.92047,0.355592 18.58984,1.603516 -0.25658,0.968455 -6.01158,19.874223 -12.78906,42.011723 l -12.32227,40.25 H 57.398438 14.216797 l 7.960937,-25.25 c 4.37888,-13.8875 10.310018,-32.675 13.181641,-41.75 l 5.222656,-16.500004 42.789063,-0.261719 c 10.108401,-0.06162 17.834916,-0.102595 23.732426,-0.103516 z m 154.49414,11.173829 -19.12891,59.67578 12.59961,-0.0566 17.57226,-59.4043 z m -185.082035,0.0703 c -13.265616,0.39594 -27.355766,10.73326 -33.253906,27.69336 -5.549641,15.95799 -2.170913,27.37365 9.314453,31.46875 10.690708,3.81176 21.256947,0.51396 30.916016,-9.65039 6.887086,-7.24736 10.768063,-14.5819 12.365234,-23.54687 2.030188,-11.3955 0.943452,-19.60549 -8.591797,-23.88672 -3.387014,-1.52074 -7.035628,-2.18899 -10.75,-2.07813 z m 282.695315,0.64258 c -11.06604,0.0358 -19.93771,5.22115 -26.91211,15.72852 -11.5889,17.45942 -11.21603,36.04489 0.8457,42.19336 5.84355,2.97876 17.14244,2.51163 24.17383,-1 9.8973,-4.94296 19.31252,-18.5971 21.68945,-31.45508 2.90866,-15.73439 -4.69522,-25.5156 -19.79687,-25.4668 z m -181.04917,-0.26042 h -26.42096 l -18.87241,59.649 h 18.63548 c 20.50871,-0.14925 28.15292,-1.09052 36.14304,-28.58391 5.32796,-22.62807 3.36273,-30.95242 -9.48515,-31.06509 z m -5.95971,10.34791 c 10.14024,0.57216 8.25101,4.89902 4.29266,20.15187 -3.48614,10.60598 -6.8354,20.71859 -15.33249,20.14323 -14.60571,-0.10799 -13.37065,-0.0409 -13.37065,-0.0409 l 12.55525,-40.56886 c 0,0 1.14167,-0.0986 11.85523,0.31466 z m 185.48153,0.0101 c 2.33287,-0.0741 4.2847,0.84606 6.47071,2.80078 3.0523,2.72934 3.26303,3.334 3.21093,9.25 -0.0901,10.23391 -7.00274,21.50077 -15.80468,25.76172 -13.22959,6.40433 -20.36455,-5.27081 -12.91602,-21.13477 3.79552,-8.08373 7.26136,-12.12698 12.61524,-14.71875 2.56505,-1.24172 4.60937,-1.90135 6.42382,-1.95898 z m -281.748043,0.26367 c 5.89402,-0.0941 10.947189,2.97502 9.679687,11.80078 -0.939729,9.10509 -9.61019,21.57443 -16.894531,25.39844 -4.347132,2.28208 -10.485993,1.8226 -13.304687,-0.9961 -3.270595,-3.27059 -3.881735,-6.40403 -2.525391,-12.9375 1.262621,-6.08202 3.978468,-14.06444 11.521484,-19.46289 3.064351,-2.19312 7.490687,-3.73833 11.523438,-3.80273 z m 30.089843,69.61719 h 43.01563 c 40.49562,0 42.98413,0.10249 42.5,1.75 -0.71422,2.43052 -22.38283,71.66428 -24.25586,77.5 l -1.52539,4.75 h -42.91993 c -23.605791,0 -42.919918,-0.25808 -42.919918,-0.57422 0,-0.31613 3.79069,-12.57863 8.423828,-27.25 4.633139,-14.67136 10.506897,-33.31328 13.05273,-41.42578 z m 94.05664,0 h 42.98633 c 40.47748,0 42.95571,0.10216 42.45117,1.75 -0.80437,2.62708 -23.52882,75.2479 -24.7207,79 l -1.03321,3.25 h -42.87109 -42.86914 l 0.91992,-2.75 c 0.5062,-1.5125 5.67912,-18.275 11.4961,-37.25 5.81698,-18.975 11.265,-36.6375 12.10742,-39.25 z m 94,0 H 337 c 23.6058,0 42.91064,0.3375 42.89844,0.75 -0.0122,0.4125 -5.79669,19.2 -12.85547,41.75 l -12.83399,41 -43.0957,0.25976 -43.0957,0.26172 0.9043,-2.76172 c 0.49726,-1.51833 5.67507,-18.28476 11.50585,-37.25976 5.83078,-18.975 11.28739,-36.6375 12.12696,-39.25 z m 93.91797,0 h 42.46094 c 33.32049,0 42.45223,0.26906 42.42383,1.25 -0.0199,0.6875 -5.80197,19.475 -12.84961,41.75 l -12.81446,40.5 -42.76172,0.25976 c -34.07757,0.20786 -42.66212,0.005 -42.27734,-1 0.38988,-1.01811 15.08411,-48.08732 23.88477,-76.50976 z m -143.91406,13 c -5.92451,0 -12.42774,0.15039 -12.42774,0.15039 -6.71106,20.66395 -17.87695,57.19531 -17.87695,57.19531 l 12.80859,0.0742 c 0,0 11.95324,-38.34025 17.54688,-57.41992 z m 81.81836,0 c -14.07392,21.36118 -24.15709,36.53783 -36.98438,56.61132 l 13.5,-0.11132 c 1.87565,-3.5 3.7513,-7 5.62696,-10.5 h 22.01953 c -0.12591,4.19035 -0.24407,7.59347 -0.23047,11.66992 0,0 8.04966,0.35558 12.08398,0.33008 -0.0107,-20.98243 0.2031,-37.87246 -0.34961,-57.99024 z m -200.19141,0.3789 -17.5,57.04883 13.20508,0.0723 c 2.33445,-7.82671 4.66751,-15.65376 7.00195,-23.48047 10.63627,-0.01 22.41211,-0.0762 22.41211,-0.0762 l 3.64063,-11.08399 -22.15235,-0.20898 3.25,-11.01172 23.55469,-0.13867 3.20508,-10.42383 c 0,0 -22.81705,-0.69527 -36.61719,-0.69727 z m 278.37305,0.6211 -3.04102,9.45703 c 0,0 9.99613,0.91388 14.92774,1.44922 l -14.31055,45.05664 13.09375,0.0371 2.51562,-7.75 c 3.97456,-12.27188 7.94958,-25.20241 11.8125,-37.50977 5.47405,-0.61171 16.22461,-1.24023 16.22461,-1.24023 0,0 1.6026,-6.33334 2.4043,-9.5 z m -75.63282,16.38671 c 1.14632,-0.0242 1.33579,3.17 1.39649,9.86329 l 0.0703,7.75 c -4.95101,0 -8.48313,0.006 -13.09765,-0.0254 0,0 2.66252,-5.25889 5.79687,-10.20312 3.06625,-4.83682 4.82253,-7.36338 5.83398,-7.38477 z"
         style="fill:#0a0802" />
    </g>
  </g>
</svg>
